<svg width="400" height="400" viewBox="0 0 400 400" xmlns="http://www.w3.org/2000/svg" style=""><rect id="backgroundrect" width="100%" height="100%" x="0" y="0" fill="none" stroke="none"/>
 <defs>
  <linearGradient y2="0.5" y1="-0.20710699260234833" x1="0.5" x2="1.2071069478988647" id="svg_13">
   <stop offset="0.3"/>
   <stop stop-color="#fff" offset="1"/>
  </linearGradient>
  <linearGradient y2="0.5" y1="-0.20710699260234833" x1="0.5" x2="1.2071069478988647" id="svg_14">
   <stop offset="0.3"/>
   <stop stop-color="#fff" offset="1"/>
  </linearGradient>
  <linearGradient y2="0.5" y1="-0.20710699260234833" x1="0.5" x2="1.2071069478988647" id="svg_15">
   <stop offset="0.3"/>
   <stop stop-color="#fff" offset="1"/>
  </linearGradient>
  <linearGradient y2="0.5" y1="-0.20710699260234833" x1="0.5" x2="1.2071069478988647" id="svg_16">
   <stop offset="0.3"/>
   <stop stop-color="#fff" offset="1"/>
  </linearGradient>
 </defs>

 <g style="" class="currentLayer"><ellipse id="svg_2" ry="198.8249969482422" rx="198.21299743652344" stroke="#000" fill="#fff" cy="199.8509979248047" cx="199.63600158691406" class=""/><path fill="url(#svg_13)" fill-opacity="0.15" stroke="none" stroke-opacity="1" style="color: rgb(0, 0, 0);" stroke-width="1"  stroke-linejoin="miter" stroke-linecap="butt" stroke-dashoffset="" fill-rule="nonzero" opacity="1" marker-start="" marker-mid="" marker-end="" id="svg_23" d="M205,397.143 C336.429,397.143 386.429,269.286 386.429,269.286 C386.429,269.286 301.429,183.571 301.429,183.571 C301.429,183.571 179.286,122.143 179.286,122.143 C179.286,122.143 129.286,71.4286 129.286,71.4286 C129.286,71.4286 137.143,327.143 137.143,327.143" class="" transform="translate(0, 0.714286) translate(1.42857, -2.85714) translate(-1.42857, 1.42857)"/>
  <title>Layer 1</title>






  <g id="svg_7" fill-rule="evenodd" class="">
   <path id="svg_8" d="m92,54.955002c0,0.688999 1.949997,1.139999 4.672997,1.079998c1.140007,-0.025002 2.186005,0.136002 2.324005,0.359001c0.137001,0.223 1.128998,0.405998 2.202995,0.405998c1.074005,0 2.064003,0.18 2.200005,0.400002c0.136002,0.219997 0.675995,0.399998 1.199997,0.399998c0.524002,0 1.064003,0.18 1.200005,0.400002c0.135994,0.220001 0.598999,0.400002 1.028999,0.400002c0.43,0 1.093994,0.163998 1.475998,0.363998c0.381996,0.201 2.404999,1.196999 4.495003,2.213001c6.766998,3.291996 8.385994,4.386997 13.344994,9.022999c4.25901,3.983002 9.825005,10.934998 9.847008,12.300003c0.003998,0.274994 0.187988,0.5 0.40799,0.5c0.220001,0 0.400009,0.360001 0.400009,0.799995c0,0.440002 0.179993,0.800003 0.399994,0.800003c0.220001,0 0.400009,0.360001 0.400009,0.799995c0,0.440002 0.179993,0.800003 0.399994,0.800003c0.220001,0 0.399994,0.272003 0.399994,0.605003c0,0.333 0.180008,0.962997 0.400009,1.399994l0.800003,1.590004c0.220001,0.436996 0.399994,1.145996 0.399994,1.575996c0,0.43 0.179993,0.893005 0.399994,1.028999c0.220001,0.136002 0.400009,0.856003 0.400009,1.600006c0,0.743996 0.179993,1.463997 0.399994,1.599998c0.220001,0.136002 0.400009,0.740997 0.400009,1.344002c0,0.602997 0.176987,1.272995 0.39299,1.488998c0.225006,0.224998 0.508011,5.272995 0.66301,11.847l0.270996,11.455002l25.835999,0.139999c14.210999,0.075996 26.050003,-0.011002 26.309998,-0.195c0.513,-0.361 4.669998,-0.092003 9.096008,0.588997c1.522995,0.235001 4.132996,0.474998 5.799988,0.534996c4.943008,0.177002 9.633011,0.675003 9.863007,1.048004c0.117996,0.191002 0.733994,0.348 1.367996,0.348c0.634003,0 1.264008,0.18 1.400009,0.400002c0.135986,0.220001 1.125992,0.400002 2.199997,0.400002c1.07399,0 2.063995,0.18 2.199997,0.399994c0.136002,0.220001 0.675995,0.400002 1.199997,0.400002c0.524002,0 1.064011,0.18 1.199997,0.400002c0.136002,0.220001 0.779007,0.400002 1.429001,0.400002s1.539001,0.18 1.975998,0.400002l1.590012,0.799995c0.436996,0.220001 1.151001,0.400002 1.58699,0.400002c0.437012,0 1.435013,0.360001 2.218002,0.800003c0.783005,0.440002 1.654999,0.800003 1.936996,0.800003c0.282013,0 1.222,0.334 2.088013,0.740997c0.865997,0.40799 2.159988,0.991989 2.875,1.298004c0.714996,0.306 1.299988,0.669998 1.299988,0.80899c0,0.138 0.518005,0.356003 1.152008,0.481995c0.632996,0.127014 1.397995,0.465012 1.699997,0.75c0.300995,0.286011 1.227005,0.758011 2.056,1.049011c2.615997,0.916992 7.986008,4.14299 8.189011,4.918991c0.106995,0.409012 0.36499,0.637009 0.574005,0.508011c0.208984,-0.129013 1.355988,0.412994 2.548981,1.203995c1.192017,0.791992 2.334991,1.440002 2.541016,1.440002c0.204987,0 0.431976,0.141998 0.505981,0.315002c0.072998,0.172989 0.942993,0.937988 1.933014,1.699997c0.98999,0.761993 1.889984,1.477005 2,1.589996c0.842987,0.865997 4.399994,3.613007 4.399994,3.397995c0,-0.148987 -1.26001,-1.446991 -2.799988,-2.885986c-1.544006,-1.442001 -2.800018,-2.952011 -2.800018,-3.366013c0,-0.531998 -0.287994,-0.750992 -0.985992,-0.750992c-0.545013,0 -1.507996,-0.51001 -2.151001,-1.138c-0.640015,-0.626007 -1.458008,-1.251007 -1.816986,-1.389008c-0.359009,-0.138 -0.860016,-0.705994 -1.114014,-1.261993c-0.252991,-0.556 -0.622009,-1.011002 -0.820007,-1.011002c-0.196991,0 -0.231995,0.205994 -0.075989,0.457993c0.154999,0.251007 -0.283997,0.122009 -0.97699,-0.286987c-0.692017,-0.409012 -1.259003,-0.983002 -1.259003,-1.275009c0,-0.291992 -0.225006,-0.494995 -0.5,-0.449997c-0.809021,0.130005 -1.900024,-0.488007 -1.900024,-1.076004c0,-0.319 -0.247986,-0.449997 -0.596985,-0.315994a0.642,0.642 0 0 1 -0.833008,-0.386993c-0.12999,-0.339005 -0.468994,-0.527008 -0.753998,-0.418015c-0.30899,0.119003 -0.619995,-0.209 -0.772003,-0.813995c-0.220001,-0.877991 -0.412994,-0.981003 -1.44899,-0.774002c-0.934006,0.187012 -1.195007,0.097 -1.195007,-0.410995c0,-0.406006 -0.337997,-0.651993 -0.899994,-0.656006c-0.744003,-0.00499 -0.796005,-0.078995 -0.300003,-0.427994c0.460007,-0.324005 0.296997,-0.386002 -0.699997,-0.264008c-0.902008,0.111008 -1.300003,-0.005997 -1.300003,-0.378998c0,-0.373993 -0.304001,-0.46199 -1,-0.287003c-0.778,0.195007 -1,0.097 -1,-0.441986c0,-0.560013 -0.110992,-0.600006 -0.582001,-0.209c-0.701996,0.582993 -1.557999,0.156998 -1.257996,-0.625c0.123993,-0.323013 -0.033997,-0.560013 -0.373001,-0.560013c-0.322998,0 -0.587006,0.180008 -0.587006,0.400009c0,0.75 -0.873993,0.403 -1.093002,-0.434006c-0.166992,-0.639999 -0.299988,-0.709 -0.569992,-0.300003c-0.281006,0.427002 -0.466995,0.383011 -0.92601,-0.216995c-0.372986,-0.488998 -0.869995,-0.674995 -1.416992,-0.530998c-0.501007,0.130997 -0.925003,0.006996 -1.044006,-0.305c-0.112,-0.292 -0.542999,-0.434998 -0.970993,-0.322998c-0.477005,0.124001 -0.863007,-0.043999 -1.016998,-0.445c-0.136002,-0.355003 -0.678009,-0.645004 -1.205002,-0.645004c-0.526001,0 -0.957001,-0.174995 -0.957001,-0.389999c0,-0.220001 -0.522003,-0.285995 -1.194,-0.151001c-0.899994,0.18 -1.257996,0.071999 -1.453995,-0.439995c-0.21701,-0.565002 -0.589005,-0.634003 -2.205002,-0.412003c-1.541,0.211998 -1.992004,0.141998 -2.17601,-0.339005c-0.17099,-0.445 -0.598999,-0.547997 -1.594986,-0.386993c-1.027008,0.167 -1.423004,0.061996 -1.611008,-0.427002c-0.173996,-0.455002 -0.535004,-0.576004 -1.207001,-0.407997c-0.733002,0.183998 -0.957993,0.078995 -0.957993,-0.449005c0,-0.601997 -0.278,-0.653999 -2.201004,-0.414001c-1.854996,0.232002 -2.242996,0.169006 -2.460007,-0.397995c-0.229996,-0.599998 -0.751999,-0.643005 -4.79599,-0.389999c-3.978012,0.249001 -4.569,0.203995 -4.786011,-0.362999c-0.201996,-0.526001 -0.612991,-0.599007 -2.195999,-0.389008c-1.58699,0.210007 -1.993988,0.138 -2.196991,-0.391998c-0.227005,-0.592995 -2.804001,-0.651001 -28.807007,-0.651001l-28.556992,0l0,-11.399994c0,-7.333 -0.14299,-11.400002 -0.399994,-11.400002c-0.220001,0 -0.400009,-0.770004 -0.400009,-1.711998c0,-1.253006 -0.213989,-1.866005 -0.799988,-2.288002c-0.520004,-0.375 -0.800003,-1.035004 -0.800003,-1.888c0,-0.722 -0.180008,-1.312004 -0.400009,-1.312004c-0.219986,0 -0.399994,-0.809998 -0.399994,-1.799995s-0.179993,-1.800003 -0.399994,-1.800003c-0.220001,0 -0.400009,-0.279999 -0.400009,-0.622002c0,-1.231995 -1.669998,-4.270996 -2.459991,-4.477997c-0.604004,-0.157997 -0.743011,-0.433998 -0.569,-1.126999c0.177002,-0.703003 0.026993,-0.983002 -0.636002,-1.194c-1.158005,-0.367004 -2.63501,-1.879997 -2.431,-2.489998c0.089005,-0.269005 -0.041,-0.489006 -0.290009,-0.489006c-0.645996,0 -11.613991,-11.259998 -11.613991,-11.922997c0,-0.194 -0.405006,-0.691002 -0.900002,-1.104c-0.495003,-0.414001 -0.675003,-0.496002 -0.400002,-0.181999c1.071999,1.221001 0.333,1.264 -1.487999,0.086998c-0.104004,-0.066998 0.075996,-0.297001 0.400002,-0.511997c0.420998,-0.279003 0.274994,-0.318001 -0.512001,-0.135002c-1.112,0.258999 -1.565002,-0.345001 -0.599998,-0.799999c0.274994,-0.130001 0.015999,-0.144001 -0.575005,-0.032001c-0.592003,0.112 -1.187996,0.023003 -1.323997,-0.197998c-0.137001,-0.220001 -0.598,-0.401001 -1.025002,-0.401001c-0.427002,0 -0.776001,-0.18 -0.776001,-0.400002c0,-0.219997 -0.360001,-0.399998 -0.799995,-0.399998c-0.440002,0 -0.800003,-0.18 -0.800003,-0.400002c0,-0.219997 -0.360001,-0.399998 -0.800003,-0.399998c-0.439995,0 -0.799995,-0.18 -0.799995,-0.400002c0,-0.220001 -0.270004,-0.400002 -0.599998,-0.400002c-0.330002,0 -0.600006,-0.18 -0.600006,-0.399998c0,-0.220001 -0.540001,-0.400002 -1.199997,-0.400002c-0.660004,0 -1.199997,-0.18 -1.199997,-0.399998c0,-0.220001 -0.439003,-0.400002 -0.976006,-0.400002c-0.536995,0 -1.087997,-0.18 -1.223999,-0.400002c-0.136002,-0.219997 -1.046997,-0.399998 -2.024002,-0.399998c-0.976997,0 -1.775993,-0.18 -1.775993,-0.400002c0,-0.248001 -2.200005,-0.399998 -5.800003,-0.399998c-4.678001,0 -5.800003,0.106998 -5.800003,0.555m-3.752998,3.209c0.221001,1.876999 0.162003,2.236 -0.364998,2.236c-0.558998,0 -0.620003,1.424 -0.555,13.012001c0.052002,9.225998 -0.056999,13.096001 -0.374001,13.299995c-0.751999,0.484001 -0.563004,144.104012 0.191002,144.876015c0.474998,0.485992 0.528999,1.742004 0.311996,7.255997c-0.234001,5.953995 -0.192001,6.695007 0.391998,6.919006c0.563004,0.215988 0.615005,0.692993 0.375999,3.444c-0.248993,2.853989 -0.205994,3.192993 0.404007,3.192993c0.589996,0 0.653,0.302994 0.455994,2.205994c-0.125,1.214005 -0.078995,2.115005 0.102005,2.001999c0.57,-0.350983 0.789001,0.889008 0.534996,3.029022c-0.195,1.643982 -0.114998,2.133972 0.390999,2.417999c0.475006,0.265991 0.577003,0.720978 0.401001,1.800995c-0.175995,1.084991 -0.073997,1.533997 0.410004,1.804993c0.353996,0.197998 0.542,0.625 0.417999,0.950012c-0.142998,0.369995 0.014999,0.588989 0.423996,0.588989c0.484001,0 0.590004,0.242004 0.413002,0.945984c-0.167999,0.667999 -0.040001,1.021027 0.433998,1.203003c0.369003,0.141998 0.574005,0.511017 0.455002,0.821014c-0.118996,0.309998 0.055,0.667999 0.386002,0.794983c0.393997,0.151001 0.514,0.509003 0.348,1.03302c-0.190002,0.596008 -0.072998,0.802002 0.452003,0.802002c0.549995,0 0.599998,0.106995 0.226997,0.47998c-0.581001,0.581024 -0.637001,1.920013 -0.080002,1.920013c0.220001,0 0.400002,0.338989 0.400002,0.752991c0,0.416992 0.357002,0.847015 0.800003,0.963013c0.868996,0.22699 1.114998,1.467987 0.299995,1.509003c-0.275002,0.013977 -0.073997,0.195984 0.445999,0.403992c0.742004,0.298004 0.848,0.497009 0.491005,0.925995c-0.357002,0.431 -0.260002,0.60202 0.454994,0.803009c0.889,0.25 0.890999,0.268005 0.132004,0.848999c-0.760002,0.579987 -0.757004,0.592987 0.099998,0.592987c0.512001,0 0.875999,0.249023 0.875999,0.600006c0,0.330017 0.179001,0.600006 0.398003,0.600006c0.219002,0 0.792999,0.855011 1.277,1.899994c0.482994,1.045013 1.114998,2.045013 1.404999,2.221008c0.380997,0.233002 0.415001,0.527985 0.123001,1.074005c-0.582001,1.087006 -0.519005,1.204987 0.643997,1.204987c0.875999,0 1.017998,0.149017 0.870003,0.92099c-0.178001,0.930023 0.474998,1.879028 1.292999,1.879028c0.248001,0 0.340996,0.322998 0.210999,0.732971c-0.167,0.526001 0.059998,0.867004 0.799004,1.203003c0.737,0.335999 0.965996,0.679016 0.799995,1.200012c-0.165001,0.522003 0.063004,0.86499 0.800003,1.200012c0.712997,0.324982 0.963997,0.685974 0.811996,1.166992c-0.152,0.484009 0.146004,0.906006 0.973999,1.377991c0.714005,0.40799 1.194,1.011017 1.194,1.5c0,0.451019 0.258003,0.819 0.573006,0.819c0.687996,0 1.143997,1.231018 0.792999,2.144012c-0.192001,0.5 -0.014,0.656006 0.75,0.656006c0.721001,0 1.546997,0.631989 2.943001,2.250977l2.640999,3.061005c0.384995,0.446014 0.699997,1.054993 0.699997,1.352997c0,0.299011 2.071999,2.657013 4.603004,5.239014l6.099998,6.221985c0.824005,0.83902 2.020004,1.803009 2.658997,2.141998c0.639999,0.33902 1.529007,0.958008 1.975998,1.375c0.447006,0.416016 1.009003,0.757019 1.249008,0.757019c0.23999,0 0.695999,0.359985 1.013,0.799988c0.317001,0.440002 0.896988,0.800018 1.287994,0.800018c0.391998,0 0.712006,0.179993 0.712006,0.399994c0,0.220001 0.235992,0.399994 0.524994,0.399994c0.287994,0 0.910995,0.359985 1.382996,0.799988c0.472,0.440002 1.136002,0.800018 1.475006,0.800018c0.339005,0 0.617004,0.179993 0.617004,0.399994c0,0.220001 0.319992,0.399994 0.71199,0.399994c0.391006,0 0.971008,0.360016 1.28801,0.800018c0.317001,0.439972 0.881989,0.799988 1.25499,0.799988c0.373001,0 0.738007,0.135986 0.812012,0.302002c0.072998,0.165985 1.39299,0.904999 2.932999,1.641998c1.539993,0.737 3.112991,1.501007 3.49498,1.697998c0.382004,0.196991 0.96701,0.358002 1.300003,0.358002c0.333008,0 0.604996,0.179993 0.604996,0.399994c0,0.220001 0.348999,0.399994 0.776001,0.399994c0.427002,0 0.888016,0.180023 1.024017,0.400024c0.136002,0.219971 0.686996,0.399994 1.223999,0.399994c0.537003,0 0.975998,0.147003 0.975998,0.328003c0,0.179993 0.910995,0.575989 2.024994,0.878998c1.114014,0.302979 2.112,0.690979 2.21701,0.860992c0.104996,0.170013 1.087997,0.428009 2.182999,0.572998c1.095993,0.145996 2.089996,0.42099 2.207993,0.612c0.118011,0.19101 0.834,0.347015 1.591003,0.347015s1.376007,0.179993 1.376007,0.399994c0,0.220001 0.720001,0.399994 1.599991,0.399994c0.880005,0 1.600006,0.179993 1.600006,0.399994c0,0.229004 1.199997,0.399994 2.800003,0.399994c1.599991,0 2.799988,0.171021 2.799988,0.400024c0,0.219971 1.001007,0.399994 2.224014,0.399994c1.37999,0 2.128998,0.151978 1.975998,0.399994c-0.162003,0.263 3.195999,0.399994 9.776001,0.399994c9.756989,0 10.023987,-0.020996 10.023987,-0.799988c0,-0.440002 0.180008,-0.800018 0.400009,-0.800018c0.263,0 0.399994,-9.571991 0.399994,-27.916992l0,-27.916992l-2.099991,0.016998c-1.553009,0.013 -2.070999,-0.123016 -1.988007,-0.519989c0.087006,-0.414001 -0.257996,-0.475006 -1.5,-0.265015c-1.326996,0.223999 -1.612,0.158997 -1.612,-0.369995c0,-0.485992 -0.244003,-0.582001 -0.996002,-0.393005c-0.716995,0.179993 -1.067993,0.065002 -1.25,-0.410004c-0.203995,-0.53299 -0.58699,-0.609009 -2.002991,-0.397003c-1.499008,0.225006 -1.751007,0.162018 -1.751007,-0.434998c0,-0.574005 -0.248001,-0.656982 -1.399994,-0.470001c-0.998001,0.161011 -1.400009,0.078003 -1.400009,-0.292999c0,-0.337982 -0.348999,-0.451996 -1,-0.328003c-0.584,0.112 -1,0.005005 -1,-0.255005c0,-0.246002 -0.269989,-0.446991 -0.599991,-0.446991c-0.330002,0 -0.600006,-0.22699 -0.600006,-0.503998c0,-0.302002 -0.518997,-0.501984 -1.300003,-0.5c-0.875,0.002991 -1.263992,-0.17099 -1.188995,-0.529999c0.082993,-0.397003 -0.199997,-0.466003 -1.100006,-0.269012c-0.973999,0.215027 -1.210999,0.13501 -1.210999,-0.40799c0,-0.434998 -0.212997,-0.592987 -0.599991,-0.444c-0.722,0.277008 -0.813004,-0.376984 -0.100006,-0.716003c0.274994,-0.130005 -0.085007,-0.149994 -0.800003,-0.042999c-0.761993,0.114014 -1.300003,0.020996 -1.300003,-0.225006c0,-0.822998 -1.093994,-1.513977 -2.014999,-1.27298c-0.751999,0.196991 -0.871994,0.11499 -0.654999,-0.450012c0.212006,-0.550995 0.104004,-0.639008 -0.53299,-0.437012c-0.456009,0.14502 -0.797012,0.070007 -0.797012,-0.173981c0,-0.235016 -0.347992,-0.427002 -0.772995,-0.427002c-0.425003,0 -0.886993,-0.360016 -1.026993,-0.799988c-0.139999,-0.440002 -0.602005,-0.800018 -1.027008,-0.800018c-0.425003,0 -0.772995,-0.179993 -0.772995,-0.399994c0,-0.220001 -0.300003,-0.399994 -0.667007,-0.399994c-0.365997,0 -0.55899,-0.106995 -0.427994,-0.239014c0.339005,-0.337982 -3.166,-3.760986 -3.852005,-3.760986c-0.311996,0 -0.669998,-0.266998 -0.794998,-0.593018a0.635,0.635 0 0 0 -0.815994,-0.367981c-0.766006,0.293976 -4.059006,-2.731995 -4.897003,-4.499023c-0.350006,-0.737 -0.796005,-1.339996 -0.990997,-1.339996c-0.195007,0 -0.354004,-0.289001 -0.354004,-0.641998c0,-0.354004 -0.438995,-0.988007 -0.975998,-1.410004c-1.145996,-0.901978 -2.100998,-2.68399 -2.458008,-4.587982c-0.139999,-0.748016 -0.439987,-1.360016 -0.666,-1.360016c-0.806992,0 -1.42099,-1.37999 -1.204987,-2.707993c0.159988,-0.988998 0.076996,-1.298996 -0.327011,-1.209991c-0.386993,0.084 -0.509003,-0.254013 -0.424988,-1.182007c0.065994,-0.733994 -0.070007,-1.300003 -0.313004,-1.300003c-0.236008,0 -0.430008,-0.269989 -0.430008,-0.599991c0,-0.330002 -0.179993,-0.600006 -0.399994,-0.600006c-0.220001,0 -0.400009,-0.897995 -0.400009,-1.996994c0,-1.563004 -0.173996,-2.105011 -0.799988,-2.496002c-0.875,-0.546005 -1.131012,-2.707001 -0.320007,-2.707001c0.373001,0 0.373001,-0.106995 0,-0.479996c-0.263992,-0.264008 -0.479996,-1.085007 -0.479996,-1.824005c0,-0.792999 -0.164001,-1.242004 -0.400009,-1.096008c-0.446991,0.276001 -0.488998,-0.110992 -0.403992,-3.699997c0.037003,-1.543991 -0.104004,-2.5 -0.367996,-2.5c-0.300003,0 -0.428009,-7.98999 -0.428009,-26.599991l0,-26.600006l25.799988,0c18.888016,0 25.800003,0.121002 25.800003,0.451004c0,0.321991 1.613007,0.399994 5.639999,0.272003c4.612,-0.14801 5.679001,-0.077011 5.85701,0.384995c0.163986,0.427002 0.644989,0.500992 1.962997,0.304001c1.414001,-0.212006 1.793991,-0.136002 2,0.399994c0.205002,0.536011 0.585999,0.612 1.996994,0.400009c1.126999,-0.169006 1.742996,-0.111008 1.742996,0.162994c0,0.233994 0.407013,0.425003 0.904007,0.425003c0.496994,0 1.397995,0.457993 2.000992,1.016998c0.604004,0.559998 1.322006,0.988007 1.596008,0.953003c1.067001,-0.138 1.535004,0.046997 1.257004,0.498001c-0.195999,0.317001 -0.069,0.384003 0.391998,0.207001c0.42099,-0.162003 0.766998,-0.036011 0.90799,0.332001c0.125,0.325989 0.57901,0.592987 1.008011,0.592987c0.48999,0 0.673996,0.173004 0.494995,0.463013c-0.195999,0.317001 -0.014999,0.391998 0.576004,0.237c0.474991,-0.124008 0.862991,-0.049011 0.862991,0.166c0,0.493988 1.02301,1.533997 1.509003,1.533997c0.201996,0 0.693008,0.360001 1.091003,0.800003c0.397995,0.439987 0.966003,0.799988 1.261993,0.799988c0.296005,0 0.53801,0.150009 0.53801,0.332001c0,0.182999 0.494995,0.588013 1.099991,0.900009c1.356003,0.699997 1.784012,1.024994 3.508011,2.667999c0.750992,0.714996 1.550995,1.300003 1.778992,1.300003c0.227005,0 0.41301,0.179993 0.41301,0.399994c0,0.220001 0.192993,0.399994 0.429001,0.399994c0.564987,0 1.570999,1.022003 1.570999,1.597c0,0.25 0.899994,1.332001 2,2.403s2,2.187012 2,2.478012c0,0.291992 0.404999,0.977997 0.899994,1.526001s1.169998,1.535995 1.5,2.195999c0.330002,0.659988 0.914993,1.548996 1.300003,1.974991c0.384995,0.427002 0.699997,1.012009 0.699997,1.300003c0,0.289001 0.179993,0.524994 0.399994,0.524994c0.220001,0 0.400009,0.360001 0.400009,0.800003c0,0.440002 0.179993,0.800003 0.399994,0.800003c0.220001,0 0.400009,0.539993 0.400009,1.199997c0,0.660004 0.179993,1.199997 0.399994,1.199997c0.220001,0 0.399994,0.360001 0.399994,0.800003c0,0.440002 0.180008,0.800003 0.400009,0.800003c0.220001,0 0.399994,0.539993 0.399994,1.199997c0,0.660004 0.180008,1.199997 0.400009,1.199997c0.220001,0 0.399994,0.720001 0.399994,1.600006c0,0.880005 0.179993,1.600006 0.399994,1.600006c0.220001,0 0.400009,0.709 0.400009,1.575989c0,0.867004 0.179993,1.688004 0.399994,1.824005c0.220001,0.136002 0.400009,1.910995 0.400009,3.944c0,2.341003 0.175995,3.871994 0.479996,4.175995c0.373001,0.373001 0.373001,0.587006 0,0.960007c-0.578003,0.578003 -0.647995,4.720001 -0.080002,4.720001c0.261002,0 0.399994,6.599991 0.399994,19s0.139008,19 0.400009,19c0.244003,0 0.399994,1.867004 0.399994,4.799988s0.156006,4.800018 0.400009,4.800018c0.250992,0 0.399994,2.608002 0.399994,7.023987c0,5.132019 0.122009,6.947998 0.453003,6.743011c0.878998,-0.542999 -0.196991,-71.602005 -1.171005,-77.367004c-0.546997,-3.236008 -3.356003,-11.283997 -4.940002,-14.154999c-3.132996,-5.673996 -5.07399,-8.439011 -8.587997,-12.235001c-1.125,-1.214996 -2.255997,-2.615005 -2.513992,-3.109985c-0.257004,-0.49501 -0.687012,-0.904007 -0.95401,-0.909012c-0.628998,-0.011993 -3.715988,-2.800995 -3.587997,-3.240997c0.053009,-0.184998 -0.352005,-0.449005 -0.899994,-0.585999c-0.549011,-0.138 -0.998001,-0.410995 -0.998001,-0.606995c0,-0.197006 -0.194,-0.35701 -0.432007,-0.35701s-1.362991,-0.603989 -2.5,-1.341995c-3.104996,-2.014008 -6.496002,-3.856995 -7.116989,-3.867004c-0.303009,-0.00499 -1.001007,-0.360992 -1.55101,-0.791c-0.550003,-0.429993 -1.382996,-0.785995 -1.850998,-0.791c-0.468002,-0.00499 -1.065994,-0.26799 -1.328995,-0.584991c-0.263,-0.317001 -0.738007,-0.477005 -1.054001,-0.355011c-0.317001,0.121002 -0.848007,-0.00499 -1.179001,-0.279999c-0.332001,-0.276001 -1.275009,-0.548996 -2.095001,-0.606995c-0.820999,-0.059006 -2.391998,-0.315002 -3.492004,-0.569992c-4.455994,-1.033005 -11.681,-1.303009 -39.110001,-1.459l-28.709991,-0.16301l0.164001,29.904999c0.155991,28.391998 0.328995,32.985001 1.403,37.105011c0.229996,0.87999 0.536987,2.097992 0.682999,2.705994c0.145996,0.608002 0.423996,1.203995 0.617996,1.324005c0.192993,0.118988 0.354996,0.881989 0.358002,1.694c0.005997,1.454987 0.763992,4.072998 1.75499,6.059998c0.279007,0.55899 1.211014,2.456009 2.073013,4.215988c0.860992,1.76001 1.700989,3.26001 1.865997,3.333008c0.164993,0.074005 0.300003,0.355011 0.300003,0.625s0.335999,0.851013 0.745987,1.291992c0.410004,0.440002 0.957001,1.196014 1.216003,1.679016c1,1.868988 6.375,7.300995 9.843002,9.947998c1.097,0.837982 2.055008,1.65799 2.128006,1.822998c0.07399,0.165009 0.395996,0.299988 0.715988,0.299988c0.321014,0 1.251007,0.675018 2.067001,1.5c1.501999,1.518005 3.305008,2.766022 4.584,3.171021c0.38501,0.121979 0.700012,0.380981 0.700012,0.575989c0,0.194 0.360001,0.352997 0.799988,0.352997c0.440002,0 0.800003,0.179993 0.800003,0.399994c0,0.220001 0.348999,0.399994 0.776001,0.399994c0.427002,0 0.888,0.180023 1.024002,0.400024c0.136002,0.220001 0.686996,0.399994 1.223999,0.399994c0.537003,0 0.975998,0.179993 0.975998,0.399994c0,0.220001 0.529007,0.399994 1.17601,0.399994c0.646988,0 1.287994,0.179993 1.423996,0.399994c0.136002,0.220001 0.574997,0.400024 0.974991,0.400024s1.424011,0.303986 2.276001,0.675995c0.852005,0.371002 1.669006,0.686005 1.81601,0.699982c0.145996,0.013 0.401001,0.159027 0.565994,0.324005c0.165009,0.165009 0.641998,0.300018 1.059998,0.300018c0.417999,0 1.153,0.214996 1.633011,0.47699c0.480988,0.263 1.331985,0.433014 1.890991,0.378998c0.559998,-0.053986 1.550003,0.110992 2.199997,0.368988c0.651001,0.257019 2.218002,0.437012 3.483002,0.400024l2.300003,-0.067017l0,52.71402l-1.018997,0.463989c-1.205002,0.549011 -5.057007,0.619995 -5.600998,0.102997c-0.209,-0.197998 -2.270004,-0.468994 -4.580002,-0.601013c-5.897003,-0.337982 -8.473999,-0.620972 -9.400009,-1.029999c-0.439987,-0.194 -1.429993,-0.463989 -2.199997,-0.599976l-2.703995,-0.471008c-0.716995,-0.123993 -1.402008,-0.386017 -1.522995,-0.580994c-0.121002,-0.196014 -0.919006,-0.356018 -1.77301,-0.356018c-0.854004,0 -1.664001,-0.179993 -1.800003,-0.399994c-0.135986,-0.220001 -0.675995,-0.399994 -1.199997,-0.399994c-0.524002,0 -1.063995,-0.179993 -1.199997,-0.399994c-0.136002,-0.220001 -0.675995,-0.400024 -1.199997,-0.400024c-0.524002,0 -1.064011,-0.179993 -1.199997,-0.399994c-0.136002,-0.220001 -0.766006,-0.399994 -1.400009,-0.399994c-0.634003,0 -1.263992,-0.179993 -1.399994,-0.399994c-0.136002,-0.220001 -0.856003,-0.399994 -1.600006,-0.399994c-0.744003,0 -1.464005,-0.180023 -1.599991,-0.400024c-0.136002,-0.220001 -0.766006,-0.399994 -1.400009,-0.399994c-0.634003,0 -1.263992,-0.179993 -1.399994,-0.399994c-0.136002,-0.220001 -0.498001,-0.399994 -0.804001,-0.399994c-0.306,0 -1.356003,-0.540009 -2.334,-1.200012c-0.977997,-0.660004 -2.070007,-1.199982 -2.428009,-1.199982c-0.356995,0 -1.362991,-0.450012 -2.233994,-1s-1.850998,-1 -2.177994,-1c-0.327011,0 -1.209,-0.540009 -1.961014,-1.200012c-0.751999,-0.660004 -1.577988,-1.200012 -1.835999,-1.200012c-0.57399,0 -4.188995,-2.520996 -7.424988,-5.177979c-1.320007,-1.084015 -2.542999,-1.983002 -2.718002,-1.997009c-0.175003,-0.014008 -0.768005,-0.475006 -1.318008,-1.024994c-0.549988,-0.550018 -1.156998,-1 -1.348999,-1c-0.192001,0 -1.224998,-0.855011 -2.294998,-1.899994a255.018997,255.018997 0 0 0 -4.334,-4.100006c-1.313995,-1.209991 -3.737999,-3.798004 -5.387001,-5.751007c-1.649994,-1.95401 -3.184998,-3.753998 -3.411995,-4c-0.227005,-0.247009 -0.795006,-0.988983 -1.261002,-1.648987c-0.466003,-0.660004 -1.584999,-1.973022 -2.487,-2.917023c-0.901001,-0.944 -1.639,-1.981995 -1.639,-2.304993c0,-0.824005 -0.845001,-2.220001 -1.844002,-3.048004c-0.464996,-0.385986 -1.233002,-1.60199 -1.707001,-2.704987c-0.473999,-1.10199 -1.197998,-2.18399 -1.608002,-2.403015c-0.410995,-0.220001 -1.314995,-1.619995 -2.009995,-3.110992c-0.695,-1.490997 -1.436005,-3.023987 -1.647003,-3.406006c-0.210999,-0.381989 -0.384003,-1.147003 -0.384003,-1.699982c0,-0.553009 -0.18,-1.005005 -0.399994,-1.005005c-0.220001,0 -0.400002,-0.360016 -0.400002,-0.800018c0,-0.439972 -0.18,-0.799988 -0.400002,-0.799988c-0.220001,0 -0.400002,-0.348999 -0.400002,-0.776001c0,-0.427002 -0.18,-0.888 -0.400002,-1.023987c-0.219994,-0.136017 -0.399994,-1.046997 -0.399994,-2.024017c0,-0.97699 -0.18,-1.776001 -0.400002,-1.776001c-0.220001,0 -0.400002,-0.362 -0.400002,-0.804993c0,-0.442993 -0.18,-1.162994 -0.400002,-1.600006l-0.799995,-1.589996c-0.220001,-0.437012 -0.400002,-1.145996 -0.400002,-1.575989c0,-0.430023 -0.160004,-0.881012 -0.356003,-1.002014c-0.195,-0.121002 -0.452995,-0.806 -0.570999,-1.52298c-0.364998,-2.205017 -0.717003,-3.667999 -1.084999,-4.504028c-0.194,-0.439972 -0.428001,-1.789978 -0.521004,-2.999985c-0.091995,-1.210007 -0.384995,-2.919998 -0.650993,-3.800003c-0.859001,-2.847 -1.145004,-5.556 -0.772003,-7.309006c0.275002,-1.29599 0.224998,-1.922989 -0.209999,-2.599991c-1.087997,-1.690994 -1.480003,-32.785004 -1.405998,-111.475006c0.052994,-55.329994 -0.045006,-74.221996 -0.386002,-74.334995c-0.327003,-0.109001 -0.382004,0.485001 -0.195,2.083m187.752998,93.739986c0,0.462006 1.97699,2.496002 2.425995,2.496002c0.216003,0 -0.179993,-0.630005 -0.880981,-1.399994c-1.319,-1.450012 -1.545013,-1.610001 -1.545013,-1.096008m10.233002,10.464005c0.937012,0.938004 1.230988,1.054993 1.48999,0.595001c0.421997,-0.75 -0.589996,-1.763 -1.760986,-1.763c-0.865021,0 -0.856018,0.039001 0.270996,1.167999m2.166992,3.128998c0,0.194 0.360016,0.738998 0.800018,1.210999c0.440002,0.472 0.799988,0.964005 0.799988,1.093002s0.872986,1.531998 1.940002,3.117004c6.109985,9.078003 13.660004,25.097992 13.660004,28.985001c0,0.466995 0.179993,0.960999 0.399994,1.097c0.220001,0.136002 0.399994,0.675995 0.399994,1.199997c0,0.524002 0.179993,1.063995 0.399994,1.199997c0.220001,0.136002 0.400024,0.959 0.400024,1.828995s0.158997,1.894012 0.352997,2.276001c0.550995,1.085999 1.246979,4.365005 1.246979,5.876999c0,0.754013 0.153015,1.466003 0.341003,1.581009c0.950012,0.58699 1.318024,23.862991 1.190002,75.237l-0.130981,52.799988l-3.200012,-0.059998c-4.201996,-0.078003 -8.304993,-0.537994 -8.779999,-0.983002c-0.208984,-0.196991 -0.975983,-0.356995 -1.704987,-0.356995c-0.729004,0 -1.683014,-0.179993 -2.119995,-0.399994l-1.589996,-0.800018c-0.437012,-0.220001 -1.069,-0.399994 -1.404022,-0.399994c-0.570984,0 -3.457001,-1.158997 -5.156006,-2.070007c-2.135986,-1.145996 -3.751984,-2.100006 -4.70697,-2.776978c-0.584015,-0.414001 -1.167023,-0.753021 -1.295013,-0.753021c-1.44101,0 -11.326996,-9.527985 -14.114014,-13.60199c-1.158997,-1.694 -1.714996,-2.623993 -3.766998,-6.298004c-0.459991,-0.825012 -1,-1.67099 -1.199982,-1.880005c-0.199005,-0.208984 -0.362,-0.699005 -0.362,-1.087982c0,-0.389008 -0.360016,-1.348999 -0.800018,-2.132019c-0.440002,-0.78299 -0.799988,-1.778992 -0.799988,-2.212006c0,-0.432983 -0.179993,-0.787994 -0.399994,-0.787994c-0.220001,0 -0.399994,-0.348999 -0.399994,-0.776001c0,-0.427002 -0.180023,-0.888 -0.400024,-1.023987c-0.220001,-0.136017 -0.399994,-0.696991 -0.399994,-1.247009c0,-0.565002 -0.174011,-0.893005 -0.399994,-0.752991c-0.643005,0.397003 -0.470001,2.487 0.227997,2.755005c0.401001,0.153992 0.541016,0.513977 0.388,0.996002c-0.154999,0.487 -0.011993,0.84198 0.403992,1.000977c0.484009,0.186005 0.578003,0.545013 0.380005,1.447998c-0.165985,0.755005 -0.102997,1.200012 0.167999,1.200012c0.244995,0 0.432007,0.778015 0.432007,1.799988c0,0.990021 0.160004,1.800018 0.355011,1.800018c0.195984,0 0.467987,0.597992 0.60498,1.329987c0.138,0.731018 0.608002,1.71402 1.045013,2.183014c0.436981,0.470001 0.794983,1.130981 0.794983,1.470001c0,0.338989 0.180023,0.617004 0.400024,0.617004c0.219971,0 0.399994,0.235992 0.399994,0.524994c0,0.287994 0.359985,0.91098 0.799988,1.382996c0.440002,0.471985 0.800018,0.95401 0.800018,1.070984c0,0.575012 1.384979,1.725006 1.858978,1.542999c0.348999,-0.133972 0.541016,0.091003 0.541016,0.63501c0,0.46402 0.179993,0.843018 0.399994,0.843018c0.220001,0 0.399994,0.273987 0.399994,0.609985c0,0.334991 0.437012,0.776001 0.971008,0.979004c0.535004,0.203003 1.570007,1.036011 2.299988,1.850006c2.854004,3.181 5.904999,6.16098 6.307007,6.16098c0.231995,0 0.421997,0.150024 0.421997,0.332001c0,0.183014 0.494995,0.588013 1.100006,0.900024c0.605011,0.312988 1.449005,0.882996 1.875,1.267975c0.427002,0.38501 1.011993,0.700012 1.299988,0.700012c0.289001,0 0.525024,0.179993 0.525024,0.399994c0,0.220001 0.359985,0.399994 0.799988,0.399994c0.440002,0 0.800995,0.13501 0.803009,0.300018c0.003998,0.359009 1.940979,1.299988 2.677002,1.299988c0.28598,0 0.519989,0.164001 0.519989,0.365021c0,0.200989 0.720001,0.485992 1.600006,0.634979c0.880005,0.149017 1.600006,0.434021 1.600006,0.63501s0.539978,0.36499 1.199982,0.36499c0.660004,0 1.200012,0.179993 1.200012,0.399994c0,0.220001 0.438995,0.400024 0.975983,0.400024c0.537018,0 1.088013,0.179993 1.223999,0.399994c0.136017,0.220001 0.867004,0.399994 1.624023,0.399994c0.756989,0 1.375977,0.179993 1.375977,0.399994c0,0.220001 0.900024,0.399994 2,0.399994s2,0.180023 2,0.400024c0,0.678986 7.869995,0.514984 8.132996,-0.169006c0.129028,-0.337006 0.539001,-0.485016 1.006012,-0.363007c0.480011,0.126007 1.113007,-0.119995 1.623993,-0.631012l0.837006,-0.836975l0,-59.229004c0,-53.460007 -0.061981,-59.290009 -0.631989,-59.860016c-0.489014,-0.48999 -0.606995,-1.321991 -0.516998,-3.675995c0.062988,-1.673004 -0.006012,-3.237991 -0.153015,-3.477005c-0.14798,-0.238998 -0.389984,-1.22699 -0.537994,-2.195999c-0.14801,-0.968994 -0.402985,-1.941986 -0.566986,-2.161987c-0.165009,-0.220001 -0.320007,-1.471008 -0.346008,-2.779999c-0.026001,-1.309006 -0.22702,-2.560013 -0.446991,-2.780014c-0.220001,-0.219986 -0.400024,-0.802994 -0.400024,-1.29599s-0.161987,-0.997009 -0.359985,-1.12001c-0.199005,-0.121994 -0.365997,-0.807999 -0.372009,-1.522995c-0.013,-1.544998 -0.214996,-2.580994 -0.570007,-2.936996c-0.142975,-0.141998 -0.161987,-0.742004 -0.043976,-1.334c0.140991,-0.705002 -0.003021,-1.255997 -0.420013,-1.600998c-0.347992,-0.290009 -0.634003,-0.955002 -0.634003,-1.477997s-0.179993,-0.951004 -0.399994,-0.951004c-0.575989,0 -0.493988,-1.096008 0.100006,-1.335007c0.274994,-0.110992 0.095001,-0.216003 -0.399994,-0.233002c-0.933014,-0.03299 -1.308014,-1.210999 -0.400024,-1.256989c0.275024,-0.014008 0.123016,-0.178009 -0.336975,-0.364014c-0.796021,-0.321991 -2.296021,-2.86499 -2.296021,-3.893997c0,-0.264999 -0.23999,-0.574997 -0.533997,-0.686996c-0.292999,-0.112991 -0.53299,-0.580994 -0.53299,-1.041c0,-0.459991 0.179993,-0.724991 0.399994,-0.589005c0.220001,0.136002 0.399994,0.134003 0.399994,-0.00499c0,-0.352997 -1.105988,-1.421005 -1.485992,-1.436005c-0.173004,-0.005997 -0.261017,-0.270004 -0.196014,-0.585007c0.064026,-0.315994 -0.179993,-0.57399 -0.543976,-0.57399c-0.505005,0 -0.60202,-0.236008 -0.410004,-1c0.144989,-0.576996 0.078979,-1 -0.156006,-1c-0.225006,0 -0.40799,-0.360001 -0.40799,-0.800003c0,-0.595993 -0.267029,-0.800003 -1.047028,-0.800003c-0.870972,0 -1.008972,-0.14299 -0.822998,-0.85199c0.222015,-0.853012 -0.501984,-1.948013 -1.289001,-1.948013c-0.228973,0 -0.328979,-0.225998 -0.223999,-0.500992c0.106018,-0.276001 -0.246979,-0.832001 -0.78598,-1.237c-0.548004,-0.410995 -0.882996,-0.98201 -0.761993,-1.298004c0.118988,-0.309998 -0.007019,-0.563995 -0.279022,-0.563995c-0.773987,0 -1.98999,-1.622009 -1.98999,-2.654007c0,-0.655991 -0.291016,-1.003998 -0.985992,-1.177994c-1.049011,-0.264008 -1.654999,-1.431 -1.175995,-2.264008c0.159973,-0.276993 0.146973,-0.373993 -0.029022,-0.215988c-0.174988,0.158997 -0.833984,-0.07901 -1.463989,-0.527008c-0.630005,-0.449005 -1.144989,-0.656998 -1.144989,-0.464005" fill="#04040f"/>
   <path id="svg_9" d="m90.515999,55.200001c0.114998,0.439999 0.045998,0.799999 -0.153,0.799999c-0.199997,0 -0.362999,-0.187 -0.362999,-0.416c0,-0.239998 -0.233002,-0.197998 -0.551003,0.098999c-1.450996,1.355 -0.681,183.929001 0.785004,186.207993c0.434998,0.677002 0.485001,1.304001 0.209999,2.600006c-0.373001,1.752991 -0.086998,4.46199 0.772003,7.30899c0.265999,0.880005 0.558998,2.589996 0.650993,3.800003c0.093002,1.210007 0.327003,2.560013 0.521004,2.999985c0.367996,0.836029 0.720001,2.299011 1.084999,4.504028c0.118004,0.71698 0.375999,1.401978 0.570999,1.52298c0.195999,0.121002 0.356003,0.572021 0.356003,1.002014c0,0.755005 0.143997,1.144989 1.138,3.065979c0.253998,0.492004 0.461998,1.257019 0.461998,1.700012c0,0.442993 0.18,0.804993 0.400002,0.804993c0.220001,0 0.400002,0.799011 0.400002,1.776001s0.18,1.888 0.399994,2.024017c0.220001,0.135986 0.400002,0.596985 0.400002,1.023987c0,0.427002 0.18,0.776001 0.400002,0.776001c0.220001,0 0.400002,0.360016 0.400002,0.799988c0,0.440002 0.18,0.800018 0.400002,0.800018c0.219994,0 0.399994,0.451996 0.399994,1.005005c0,0.552979 0.173004,1.317993 0.384003,1.699982c0.210999,0.382019 0.952003,1.915009 1.647003,3.406006c0.695,1.490997 1.598999,2.890991 2.009995,3.110992c0.410004,0.219025 1.134003,1.301025 1.608002,2.403015c0.473999,1.102997 1.242004,2.319 1.707001,2.704987c0.999001,0.828003 1.844002,2.223999 1.844002,3.048004c0,0.322998 0.737999,1.360992 1.639,2.304993c0.902,0.944 2.020996,2.257019 2.487,2.917023c0.465996,0.660004 1.033997,1.401978 1.261002,1.648987c0.226997,0.246002 1.762001,2.04599 3.411995,4c1.649002,1.953003 4.073006,4.541016 5.387001,5.751007a255.022995,255.022995 0 0 1 4.334,4.100006c1.07,1.044983 2.102997,1.899994 2.294998,1.899994c0.192001,0 0.799011,0.449982 1.348999,1c0.550003,0.549988 1.143005,1.010986 1.318008,1.024994c0.175003,0.014008 1.397995,0.912994 2.718002,1.997009c3.235992,2.656982 6.850998,5.177979 7.424988,5.177979c0.258011,0 1.084,0.540009 1.835999,1.200012c0.752014,0.660004 1.634003,1.200012 1.961014,1.200012c0.326996,0 1.306992,0.449982 2.177994,1s1.876999,1 2.233994,1c0.358002,0 1.450012,0.539978 2.428009,1.199982c0.977997,0.660004 2.028,1.200012 2.334,1.200012c0.306,0 0.667999,0.179993 0.804001,0.399994c0.136002,0.220001 0.765991,0.399994 1.399994,0.399994c0.634003,0 1.264008,0.180023 1.400009,0.399994c0.135986,0.220001 0.855988,0.400024 1.599991,0.400024c0.744003,0 1.464005,0.179993 1.600006,0.399994c0.136002,0.220001 0.765991,0.399994 1.399994,0.399994c0.634003,0 1.264008,0.179993 1.400009,0.399994c0.135986,0.220001 0.675995,0.399994 1.199997,0.399994c0.524002,0 1.063995,0.180023 1.199997,0.400024c0.136002,0.220001 0.675995,0.399994 1.199997,0.399994c0.524002,0 1.064011,0.179993 1.199997,0.399994c0.136002,0.220001 0.945999,0.399994 1.800003,0.399994c0.854004,0 1.652008,0.160004 1.77301,0.356018c0.120987,0.194977 0.806,0.457001 1.522995,0.580994l2.703995,0.471008c0.770004,0.135986 1.76001,0.405975 2.199997,0.599976c0.92601,0.409027 3.503006,0.692017 9.400009,1.029999c2.309998,0.132019 4.371002,0.403015 4.580002,0.601013c0.543991,0.516998 4.395996,0.446014 5.600998,-0.102997l1.018997,-0.463989l0,-52.71402l-2.300003,0.067017c-1.264999,0.036987 -2.832001,-0.143005 -3.483002,-0.400024c-0.649994,-0.257996 -1.639999,-0.422974 -2.199997,-0.368988c-0.559006,0.054016 -1.410004,-0.115997 -1.890991,-0.378998c-0.480011,-0.261993 -1.215012,-0.47699 -1.633011,-0.47699c-0.417999,0 -0.894989,-0.13501 -1.059998,-0.300018c-0.164993,-0.164978 -0.419998,-0.311005 -0.565994,-0.324005c-0.147003,-0.013977 -0.964005,-0.328979 -1.81601,-0.699982c-0.85199,-0.372009 -1.875992,-0.675995 -2.276001,-0.675995c-0.399994,0 -0.838989,-0.180023 -0.974991,-0.400024c-0.136002,-0.219971 -0.777008,-0.399994 -1.423996,-0.399994c-0.647003,0 -1.17601,-0.179993 -1.17601,-0.399994c0,-0.220001 -0.438995,-0.399994 -0.975998,-0.399994c-0.537003,0 -1.087997,-0.179993 -1.223999,-0.399994c-0.136002,-0.220001 -0.597,-0.400024 -1.024002,-0.400024c-0.427002,0 -0.776001,-0.179993 -0.776001,-0.399994c0,-0.220001 -0.360001,-0.399994 -0.800003,-0.399994c-0.439987,0 -0.799988,-0.158997 -0.799988,-0.352997c0,-0.195007 -0.315002,-0.45401 -0.700012,-0.575989c-1.278992,-0.404999 -3.082001,-1.653015 -4.584,-3.171021c-0.815994,-0.824982 -1.745987,-1.5 -2.067001,-1.5c-0.319992,0 -0.641998,-0.134979 -0.715988,-0.299988c-0.072998,-0.165009 -1.031006,-0.985016 -2.128006,-1.822998c-3.468002,-2.647003 -8.843002,-8.07901 -9.843002,-9.947998c-0.259003,-0.483002 -0.806,-1.239014 -1.216003,-1.679016c-0.409988,-0.440979 -0.745987,-1.022003 -0.745987,-1.291992s-0.13501,-0.550995 -0.300003,-0.625c-0.165009,-0.072998 -1.005005,-1.572998 -1.865997,-3.333008a1038.02002,1038.02002 0 0 0 -2.073013,-4.215988c-0.990997,-1.987 -1.748993,-4.605011 -1.75499,-6.059998c-0.003006,-0.812012 -0.165009,-1.575012 -0.358002,-1.694c-0.194,-0.12001 -0.472,-0.716003 -0.617996,-1.324005c-0.146011,-0.608002 -0.453003,-1.826004 -0.682999,-2.705994c-1.074005,-4.12001 -1.247009,-8.713013 -1.403,-37.105011l-0.164001,-29.904999l28.709991,0.16301c27.300003,0.155991 34.557999,0.423996 39.110001,1.442993c1.100006,0.246994 2.630005,0.526001 3.400009,0.619995l1.399994,0.172012l-1.199997,-0.414001c-2.904007,-1.001999 -5.457001,-1.493011 -9,-1.731003c-2.089996,-0.139999 -4.197998,-0.361008 -4.682999,-0.490997l-0.884003,-0.237l-0.024002,-26.21701l-0.024994,-26.216995l4.307999,0.223c2.837997,0.147003 3.761993,0.106003 2.707993,-0.119003c-2.863998,-0.612999 -10.645004,-1.243996 -11.128998,-0.903c-0.259003,0.183006 -12.097,0.269005 -26.307999,0.193001l-25.835999,-0.139999l-0.270996,-11.455002c-0.154999,-6.573997 -0.438004,-11.621994 -0.66301,-11.847c-0.216003,-0.215996 -0.39299,-0.885994 -0.39299,-1.488998c0,-0.602997 -0.180008,-1.208 -0.400009,-1.344002c-0.220001,-0.135994 -0.399994,-0.855995 -0.399994,-1.599998c0,-0.743996 -0.180008,-1.463997 -0.400009,-1.599998c-0.220001,-0.136002 -0.399994,-0.598999 -0.399994,-1.028999c0,-0.43 -0.179993,-1.139 -0.399994,-1.575996l-0.800003,-1.590004c-0.220001,-0.436996 -0.400009,-1.067001 -0.400009,-1.400002c0,-0.333 -0.179993,-0.604996 -0.399994,-0.604996c-0.220001,0 -0.399994,-0.360001 -0.399994,-0.800003c0,-0.440002 -0.180008,-0.800003 -0.400009,-0.800003c-0.220001,0 -0.399994,-0.359993 -0.399994,-0.799995c0,-0.440002 -0.180008,-0.800003 -0.400009,-0.800003c-0.220001,0 -0.403992,-0.224998 -0.40799,-0.5c-0.022003,-1.364998 -5.587997,-8.317001 -9.847008,-12.299995c-4.959,-4.636002 -6.577995,-5.731003 -13.344994,-9.023003a331.316986,331.316986 0 0 1 -4.495003,-2.213001c-0.382004,-0.199997 -1.045998,-0.363998 -1.475998,-0.363998c-0.43,0 -0.893005,-0.18 -1.028999,-0.400002c-0.136002,-0.219997 -0.676003,-0.399998 -1.200005,-0.399998c-0.524002,0 -1.063995,-0.18 -1.199997,-0.400002c-0.136002,-0.220001 -1.125999,-0.399998 -2.200005,-0.399998c-1.073997,0 -2.065994,-0.183002 -2.202995,-0.406002c-0.138,-0.223 -1.183998,-0.383999 -2.324005,-0.359001c-2.723,0.060001 -4.672997,-0.390999 -4.672997,-1.079998c0,-0.305 -0.380997,-0.555 -0.847,-0.555c-0.649002,0 -0.797997,0.186001 -0.637001,0.799999m-2.515999,3.17601c0,0.427002 -0.18,0.888 -0.400002,1.024002c-0.604996,0.373997 -0.478996,1 0.200005,1c0.418999,0 0.599998,-0.422001 0.599998,-1.400002c0,-0.77 -0.090004,-1.400002 -0.200005,-1.400002c-0.110001,0 -0.199997,0.349003 -0.199997,0.776001m26.800003,0.424c0,0.220001 0.269997,0.400002 0.599998,0.400002c0.330002,0 0.599998,-0.18 0.599998,-0.400002c0,-0.219997 -0.269997,-0.399998 -0.599998,-0.399998c-0.330002,0 -0.599998,0.18 -0.599998,0.399998m1.599998,0.799999c0,0.220001 0.269997,0.400002 0.599998,0.400002c0.330002,0 0.599998,-0.18 0.599998,-0.400002c0,-0.219997 -0.269997,-0.399998 -0.599998,-0.399998c-0.330002,0 -0.599998,0.18 -0.599998,0.399998m3.199997,1.600002c0,0.219997 0.270004,0.399998 0.599998,0.399998c0.330002,0 0.601006,0.135002 0.603004,0.300003c0.001999,0.164997 0.462997,0.512997 1.025002,0.773998c0.786995,0.365002 0.987,0.365002 0.870995,0c-0.083,-0.261002 -0.543999,-0.652 -1.024994,-0.868999c-0.481003,-0.216999 -0.874001,-0.532001 -0.874001,-0.700001c0,-0.167999 -0.270004,-0.305 -0.600006,-0.305c-0.329994,0 -0.599998,0.18 -0.599998,0.400002m4.032005,1.915001c-0.048004,0.782997 10.809998,12.084995 11.610001,12.084995c0.263992,0 0.093002,-0.335999 -0.381012,-0.746994c-0.472992,-0.411003 -0.860992,-0.953003 -0.860992,-1.204002c0,-0.542999 -9.024002,-9.649002 -9.561996,-9.649002c-0.204002,0 -0.462006,-0.224998 -0.573006,-0.5c-0.157997,-0.389999 -0.209,-0.386997 -0.232994,0.015003m-36.342003,8.984997c-0.051003,2.006004 -0.261002,3.5 -0.489998,3.5c-0.248001,0 -0.400002,2.133003 -0.400002,5.599998c0,3.223 0.158997,5.600006 0.375,5.600006c0.653,0 0.868996,-3.170006 0.735001,-10.800003c-0.070999,-4.07 -0.170006,-5.824997 -0.220001,-3.900002m48.200996,3.742004c-0.29599,0.296997 1.507996,2.157997 2.091003,2.157997c0.643997,0 0.505997,-0.348999 -0.563995,-1.417999c-1.057999,-1.058998 -1.159012,-1.108002 -1.527008,-0.739998m2.908997,3.924995c0,0.348 0.285004,0.633003 0.633011,0.633003c0.707001,0 0.584,-0.861 -0.158005,-1.108002c-0.261002,-0.086998 -0.475006,0.125999 -0.475006,0.474998m4,8.833c0,0.330002 0.180008,0.599998 0.400009,0.599998c0.220001,0 0.399994,-0.269997 0.399994,-0.599998c0,-0.330002 -0.179993,-0.599998 -0.399994,-0.599998c-0.220001,0 -0.400009,0.269997 -0.400009,0.599998m0.800003,2.599998c0,0.440002 0.180008,0.800003 0.400009,0.800003c0.220001,0 0.399994,-0.360001 0.399994,-0.800003c0,-0.439995 -0.179993,-0.799995 -0.399994,-0.799995c-0.220001,0 -0.400009,0.360001 -0.400009,0.799995m59.697006,28.5c0.091003,0.275002 0.761993,0.558006 1.492004,0.630005c1.207993,0.117996 1.270996,0.072998 0.697998,-0.5c-0.755005,-0.755005 -2.427002,-0.854004 -2.190002,-0.130005m4.401001,0.800003c0.103989,0.316002 1.037003,0.521004 2.533997,0.556999c1.302002,0.030998 1.917999,-0.028999 1.367996,-0.134003c-0.550003,-0.104996 -1.17099,-0.354996 -1.37999,-0.556999c-0.590012,-0.568001 -2.716003,-0.454994 -2.522003,0.134003m9.599991,0.800003c0.090012,0.274994 0.690002,0.531998 1.333008,0.571999c0.64299,0.039001 0.854004,-0.019005 0.468994,-0.130005c-0.384995,-0.109993 -0.699997,-0.366997 -0.699997,-0.570999c0,-0.203995 -0.285004,-0.370995 -0.632996,-0.370995c-0.348999,0 -0.559998,0.224998 -0.469009,0.5m4.702011,0.899994c0,0.330002 0.263992,0.600006 0.58699,0.600006c0.358002,0 0.498001,-0.235001 0.358002,-0.600006c-0.126999,-0.329994 -0.390991,-0.599998 -0.587997,-0.599998c-0.195999,0 -0.356995,0.270004 -0.356995,0.599998m-13.307007,0.457001c-0.113998,0.188004 0.871002,0.381004 2.188995,0.427002c1.318008,0.045998 2.62001,0.268997 2.894012,0.496002c0.273987,0.226997 0.600998,0.309998 0.72699,0.183998c0.583008,-0.584 14.404007,2.232002 18.897003,3.849998c1.100006,0.395996 2.511993,0.832001 3.136993,0.970001c0.625,0.136993 2.054001,0.692001 3.175003,1.233002c1.121002,0.541 2.229004,0.981995 2.462997,0.981003c0.713013,-0.003998 11.825012,5.687988 11.825012,6.056992c0,0.190002 0.362,0.345001 0.804993,0.345001c0.919998,0 2.084015,0.596008 3.743988,1.916c1.119019,0.891006 1.791016,0.958008 1.277008,0.126999c-0.352997,-0.571991 -6.289001,-3.873001 -8.117996,-4.513992c-0.828995,-0.291 -1.755005,-0.763 -2.056,-1.049011c-0.302002,-0.284988 -1.067001,-0.622986 -1.699997,-0.75c-0.634003,-0.125992 -1.152008,-0.343994 -1.152008,-0.481995c0,-0.138992 -0.584991,-0.502991 -1.299988,-0.80899c-0.715012,-0.306015 -2.009003,-0.890015 -2.875,-1.298004c-0.866013,-0.406998 -1.806,-0.740997 -2.088013,-0.740997c-0.281998,0 -1.153992,-0.360001 -1.936996,-0.800003c-0.78299,-0.440002 -1.780991,-0.800003 -2.218002,-0.800003c-0.435989,0 -1.149994,-0.18 -1.58699,-0.400002l-1.590012,-0.799995c-0.436996,-0.220001 -1.325989,-0.400002 -1.975998,-0.400002c-0.649994,0 -1.292999,-0.18 -1.429001,-0.400002c-0.135986,-0.220001 -0.675995,-0.400002 -1.199997,-0.400002c-0.524002,0 -1.063995,-0.18 -1.199997,-0.400002c-0.136002,-0.219994 -1.126007,-0.399994 -2.199997,-0.399994c-1.074005,0 -2.064011,-0.18 -2.199997,-0.400002c-0.136002,-0.220001 -0.741013,-0.400002 -1.344009,-0.400002c-0.602997,0 -1.266998,-0.162003 -1.475998,-0.359001c-0.209,-0.197998 -1.639999,-0.463997 -3.179993,-0.591995c-1.540009,-0.127007 -3.992004,-0.345001 -5.450012,-0.483002c-1.457001,-0.139 -2.741989,-0.098 -2.856995,0.090996m15.404999,0.243004c0.089996,0.275002 0.690002,0.531998 1.333008,0.571999c0.64299,0.039001 0.853989,-0.018997 0.468994,-0.129997c-0.384995,-0.110001 -0.699997,-0.367004 -0.699997,-0.570999c0,-0.204002 -0.285004,-0.371002 -0.632996,-0.371002c-0.349014,0 -0.560013,0.224998 -0.469009,0.5m3.199997,0.799995c0.253998,0.776001 2.302002,0.889 2.302002,0.127007c0,-0.434006 -0.37999,-0.627007 -1.233002,-0.627007c-0.807999,0 -1.177002,0.173004 -1.069,0.5m4.400009,0.800003c0.091003,0.275002 0.600998,0.532997 1.132996,0.573997c0.583008,0.043999 0.690002,-0.006996 0.268997,-0.128998c-0.384995,-0.112 -0.699997,-0.370003 -0.699997,-0.573997c0,-0.204002 -0.195007,-0.371002 -0.432999,-0.371002c-0.238998,0 -0.360001,0.224998 -0.268997,0.5m4.802002,1.599998c0.090988,0.275002 0.498993,0.564003 0.904999,0.642998c0.677994,0.132004 0.685989,0.091003 0.095001,-0.5c-0.768005,-0.767998 -1.230011,-0.834999 -1,-0.142998m1.899994,0.633003c0,0.563995 0.451004,0.821999 1.039001,0.597c0.834991,-0.320999 0.677994,-0.93 -0.238998,-0.93c-0.440002,0 -0.800003,0.150002 -0.800003,0.333m2.475006,0.891998c0.095993,0.289001 0.410995,0.604004 0.699997,0.699997c0.300003,0.100006 0.449997,-0.050003 0.349991,-0.349998c-0.095993,-0.289001 -0.410995,-0.603996 -0.699997,-0.699997c-0.300003,-0.099998 -0.449997,0.049995 -0.349991,0.349998m1.647995,0.542007c0.082001,0.817993 1.076996,1.411987 1.076996,0.64299c0,-0.251999 -0.166,-0.354004 -0.369995,-0.229004c-0.203003,0.126007 -0.462997,-0.087997 -0.576996,-0.475998c-0.175003,-0.594994 -0.195007,-0.584999 -0.130005,0.062012m2.121994,0.567993c-0.502991,0.802002 0.416,1.574997 1.055008,0.886002c0.330994,-0.356003 0.341003,-0.449005 0.029999,-0.275009c-0.268005,0.151001 -0.529007,-0.037994 -0.609009,-0.440994c-0.108994,-0.550003 -0.212997,-0.587997 -0.475998,-0.169998m1.755005,1.065002c0,0.330002 0.270004,0.599991 0.600006,0.599991c0.329987,0 0.599991,-0.269989 0.599991,-0.599991c0,-0.330002 -0.270004,-0.600006 -0.599991,-0.600006c-0.330002,0 -0.600006,0.270004 -0.600006,0.600006m5.199997,2.399994c0,0.339996 0.359009,0.600006 0.82901,0.600006c0.735992,0 0.760986,-0.067001 0.227997,-0.600006c-0.330002,-0.330002 -0.703003,-0.599991 -0.828003,-0.599991c-0.126007,0 -0.229004,0.269989 -0.229004,0.599991m2.800003,1.643005c0,0.389999 0.223007,0.556992 0.567001,0.425003c0.311996,-0.12001 0.673004,0.059998 0.802994,0.399002a0.642,0.642 0 0 0 0.833008,0.386993c0.329987,-0.126007 0.596985,-0.009003 0.596985,0.261993c0,0.585007 1.409027,1.542007 1.757019,1.194c0.497986,-0.498001 0.216003,-0.909988 -0.623993,-0.909988c-0.476013,0 -0.755005,-0.111008 -0.619019,-0.248001c0.350006,-0.348999 -0.734985,-1.352005 -1.46199,-1.352005c-0.333008,0 -0.716003,-0.179993 -0.852005,-0.399994c-0.384003,-0.621002 -1,-0.471008 -1,0.242996m5.231995,2.970993c-0.018005,0.337006 0.490997,0.923004 1.131012,1.300003c1.130005,0.667999 1.156982,0.665009 0.953003,-0.112991c-0.115021,-0.44101 -0.53302,-0.80101 -0.929016,-0.80101s-0.811005,-0.224991 -0.921997,-0.5c-0.13501,-0.334991 -0.212006,-0.298004 -0.233002,0.113998m-172.642998,27.786011c0,14.740005 0.050003,20.712006 0.111,13.271011c0.061005,-7.44101 0.061005,-19.501007 0,-26.800003c-0.060997,-7.299011 -0.111,-1.210999 -0.111,13.528992m175.900993,-25.328995c0.087006,0.259995 0.488007,0.664993 0.891022,0.899994c0.402985,0.236008 1.253998,0.924011 1.889984,1.529007c1.541016,1.466003 3.220001,1.533997 1.757996,0.070999c-0.315002,-0.313995 -0.781982,-0.570999 -1.039978,-0.570999c-0.257019,0 -0.972015,-0.540009 -1.58902,-1.199997c-1.121979,-1.202011 -2.204987,-1.615005 -1.910004,-0.729004m-1.690002,1.522003a39.18,39.18 0 0 1 1.661011,1.347c0.363007,0.319992 1.014008,0.692993 1.446991,0.830994c0.432007,0.137009 1.108002,0.604996 1.501007,1.039001c0.393005,0.434998 0.867004,0.789993 1.053009,0.789993c0.186005,0 0.665985,0.315002 1.066986,0.700012c1.904999,1.830002 3.682007,3.299988 3.988007,3.299988c0.184998,0 1.647003,1.305008 3.247009,2.900009c1.600006,1.595001 3.298004,3.268005 3.77298,3.716995c0.765015,0.725006 3.386017,3.533997 7.363007,7.889999c0.714996,0.783005 1.300018,1.62001 1.300018,1.859009c0,0.237991 0.15799,0.43399 0.350983,0.43399c0.194,0 0.584991,0.563004 0.869995,1.251999c0.286011,0.688004 0.947021,1.680008 1.471008,2.20401c0.523987,0.522995 1.208008,1.562988 1.519989,2.310989c0.312012,0.748001 0.72702,1.421005 0.921021,1.496002c0.410004,0.158997 3.119995,4.608002 4.225983,6.938004c0.417023,0.880005 0.943024,1.959 1.167023,2.399002c2.015991,3.946991 2.85498,5.712997 4.276978,9c0.904022,2.089996 1.687012,4.160004 1.740997,4.599991c0.054016,0.440002 0.403015,1.497009 0.777008,2.349014c0.373016,0.85199 0.679016,1.965988 0.679016,2.475998s0.153992,1.022995 0.342987,1.139999c0.187988,0.115997 0.559998,1.341995 0.826996,2.722992c0.265991,1.382004 0.641998,3.23201 0.835999,4.112c2.261017,10.25 2.194,8.335007 2.188995,62.800018c-0.002991,27.939972 -0.046997,52.23999 -0.097992,54c-0.050995,1.759979 0.041016,6.230988 0.205017,9.934998c0.232971,5.256989 0.185974,6.828003 -0.211029,7.156982c-0.514984,0.425995 -8.004974,-0.496002 -10.718994,-1.319c-0.675995,-0.204987 -1.541992,-0.372986 -1.924988,-0.372986c-0.765991,0 -4.610992,-1.164001 -5.247009,-1.58902c-0.220001,-0.147003 -1.209991,-0.513977 -2.199982,-0.816986c-0.990021,-0.302002 -2.229004,-0.875 -2.753998,-1.272003c-0.525024,-0.397003 -1.207001,-0.721985 -1.517029,-0.721985c-0.309998,0 -1.537994,-0.720001 -2.728973,-1.600006c-1.19101,-0.880005 -2.276001,-1.600006 -2.410004,-1.600006c-0.839996,0 -11.390015,-9.690002 -11.390015,-10.462006c0,-0.158997 -0.540009,-0.880005 -1.199982,-1.60199c-0.660004,-0.722992 -1.200012,-1.544006 -1.200012,-1.825012c0,-0.281006 -0.156006,-0.510986 -0.347992,-0.510986c-0.307007,0 -5.710022,-10.537018 -6.460999,-12.600006a66.230003,66.230003 0 0 0 -0.783997,-2c-0.701019,-1.707001 -1.205017,-18.020996 -1.248016,-40.400024c-0.018982,-10.339981 -0.042999,-20.149979 -0.052002,-21.799973c-0.007996,-1.650009 0.032013,-4.169998 0.089996,-5.600006c0.184021,-4.554993 -1.074982,-15.914993 -2.01799,-18.200012c-0.181,-0.440002 -0.626007,-1.87999 -0.988007,-3.199997c-0.362991,-1.320007 -1.18399,-3.505997 -1.824997,-4.856995c-0.640991,-1.352005 -1.166,-2.73201 -1.166,-3.067001c0,-0.335007 -0.160995,-0.669006 -0.358002,-0.743011c-0.362991,-0.134995 -1.636002,-2.116989 -2.524994,-3.932999c-0.270004,-0.549988 -1.440994,-2.232986 -2.602997,-3.740997c-1.16301,-1.507004 -2.113998,-2.914993 -2.113998,-3.127991c0,-0.525009 -1.039001,-1.531006 -1.580002,-1.531006c-0.240005,0 -1.007004,-0.809998 -1.705002,-1.800003c-0.697998,-0.98999 -1.388,-1.800003 -1.533997,-1.800003c-0.146011,0 -1.091003,-0.62999 -2.098999,-1.399994c-1.009003,-0.770004 -1.973007,-1.399994 -2.144012,-1.399994c-0.511002,0 3.222,3.17601 3.748001,3.188995c0.266998,0.005997 0.697006,0.416 0.95401,0.910995c0.257996,0.49501 1.388992,1.895004 2.513992,3.110001c3.514008,3.796005 5.455002,6.561005 8.587997,12.235001c1.584,2.871002 4.393005,10.919006 4.940002,14.154999c0.974014,5.764999 2.050003,76.82399 1.171005,77.366989c-0.559006,0.346008 -0.606003,3.03302 -0.053009,3.03302c0.220001,0 0.399994,0.281006 0.399994,0.623993c0,0.342987 0.180023,0.511993 0.400024,0.376007c0.225983,-0.140015 0.399994,0.187988 0.399994,0.752991c0,0.550018 0.179993,1.110992 0.399994,1.247009c0.220001,0.135986 0.399994,0.596985 0.399994,1.023987c0,0.427002 0.179993,0.776001 0.399994,0.776001c0.220001,0 0.400024,0.355011 0.400024,0.787994c0,0.433014 0.359985,1.429016 0.799988,2.212006c0.440002,0.78302 0.799988,1.743011 0.799988,2.132019s0.163025,0.878998 0.362,1.087982c0.200012,0.209015 0.740021,1.054993 1.200012,1.880005c2.052002,3.674011 2.608002,4.604004 3.766998,6.298004c2.786987,4.074005 12.673004,13.60199 14.114014,13.60199c0.127991,0 0.710999,0.33902 1.294983,0.753021c0.955017,0.676971 2.571014,1.630981 4.707001,2.776978c1.699005,0.911011 4.584991,2.070007 5.156006,2.070007c0.334991,0 0.96701,0.179993 1.403992,0.399994l1.589996,0.800018c0.437012,0.220001 1.391022,0.399994 2.120026,0.399994c0.728973,0 1.495972,0.160004 1.704987,0.356995c0.475006,0.445007 4.578003,0.904999 8.779999,0.983002l3.200012,0.059998l0.130981,-52.799988c0.128021,-51.374008 -0.23999,-74.650009 -1.190002,-75.237015c-0.187988,-0.11499 -0.341003,-0.826996 -0.341003,-1.580994c0,-1.512009 -0.695984,-4.791 -1.246979,-5.876999c-0.194,-0.382004 -0.352997,-1.406006 -0.352997,-2.276001c0,-0.87001 -0.180023,-1.693008 -0.400024,-1.82901c-0.220001,-0.135986 -0.399994,-0.675995 -0.399994,-1.199997c0,-0.524002 -0.179993,-1.063995 -0.399994,-1.199997c-0.220001,-0.136002 -0.399994,-0.630005 -0.399994,-1.097c0,-3.886993 -7.550018,-19.906998 -13.660004,-28.985001c-1.067017,-1.585007 -1.940002,-2.988007 -1.940002,-3.117004s-0.359985,-0.621002 -0.799988,-1.093002c-1.177002,-1.262985 -0.973022,-1.685989 0.355988,-0.73999c0.63501,0.453003 1.268005,1.274994 1.407013,1.828003c0.152985,0.608994 0.524994,0.991989 0.944977,0.972c0.417023,-0.019012 0.494019,-0.111008 0.192017,-0.233002c-0.274994,-0.111008 -0.5,-0.546997 -0.5,-0.968002c0,-0.421997 -0.19101,-0.766998 -0.424011,-0.766998c-0.233002,0 -0.311981,-0.180008 -0.175995,-0.400009c0.135986,-0.220001 0.057007,-0.399994 -0.175995,-0.399994c-0.233002,0 -0.424011,-0.294006 -0.424011,-0.653c0,-1.102997 -2.556,-3.042007 -2.867004,-2.175003c-0.072998,0.205002 -0.65799,-0.154999 -1.299988,-0.800003c-0.998993,-1.003998 -1.058014,-1.171997 -0.411011,-1.171997c0.684021,0 0.671021,-0.05899 -0.132996,-0.623001c-0.488983,-0.341995 -0.889008,-0.871002 -0.889008,-1.173996c0,-0.695007 -13.888,-14.848007 -14.231995,-14.503998c-0.139008,0.138992 -0.626007,-0.094009 -1.080994,-0.518997c-0.455994,-0.424011 -0.932007,-0.667999 -1.058014,-0.540009c-0.125977,0.126999 1.076019,1.464005 2.671021,2.971008c1.595001,1.506989 2.899994,2.858002 2.899994,3.001999c0,0.207993 -3.576996,-2.561996 -4.399994,-3.408005c-0.110016,-0.112991 -1.01001,-0.828003 -2,-1.589996c-0.990021,-0.762009 -1.860016,-1.527008 -1.933014,-1.699997c-0.074005,-0.173004 -0.306,-0.315002 -0.515991,-0.315002c-0.209991,0 -1.317993,-0.630005 -2.460999,-1.400009c-2.179016,-1.466995 -3.61499,-1.929001 -1.890015,-0.606995m16.745026,12.207001c0.700989,0.770004 1.096985,1.399994 0.880981,1.399994c-0.448975,0 -2.425995,-2.033997 -2.425995,-2.495987c0,-0.514008 0.226013,-0.354004 1.545013,1.095993m15.654999,17.539001c0,0.830002 1.498993,2.365997 2.080994,2.132004c0.394989,-0.158005 0.399994,-0.215012 0.019012,-0.238998c-0.274994,-0.018005 -0.5,-0.315002 -0.5,-0.661011c0,-0.606003 -0.902008,-1.770996 -1.371002,-1.770996c-0.126007,0 -0.229004,0.242004 -0.229004,0.539001m2.277985,2.916992c-0.319977,0.319 0.041016,0.944 0.546021,0.944c0.207001,0 0.376007,-0.269989 0.376007,-0.599991c0,-0.619003 -0.472015,-0.794998 -0.922028,-0.344009m-79.875992,4.347c0.298004,0.359009 0.863007,0.569 1.255005,0.466003c0.393005,-0.10199 0.921997,0.065002 1.177002,0.372009c0.255005,0.307999 0.847,0.562988 1.315002,0.567993c0.468002,0.005005 1.300995,0.361008 1.850998,0.791c0.550003,0.429993 1.248001,0.785995 1.550995,0.791c0.621002,0.009995 4.012009,1.852997 7.117004,3.867004c1.136993,0.737991 2.246994,1.341995 2.466003,1.341995c0.220001,0 0.459,0.156006 0.53299,0.347c0.072998,0.190994 0.583008,0.483002 1.133011,0.649994l1,0.302002l-1.003006,-0.748993a24.327999,24.327999 0 0 0 -2,-1.326004c-2.634003,-1.520996 -6.218002,-3.768005 -6.397003,-4.011002c-0.220993,-0.300003 -1.57399,-0.906998 -2.199997,-0.987c-0.220001,-0.028 -1.097,-0.360001 -1.949005,-0.737991c-0.85199,-0.379013 -1.661987,-0.689011 -1.799988,-0.690002c-0.138,-0.001999 -0.713013,-0.244003 -1.278,-0.539001c-1.858002,-0.969009 -3.409012,-1.225006 -2.771011,-0.456009m83.065018,0.064011c-0.520996,0.520996 -0.256012,1.332993 0.432983,1.326996c0.554016,-0.005005 0.585022,-0.078995 0.149017,-0.354996c-0.303009,-0.192001 -0.428009,-0.550003 -0.277008,-0.794006c0.303009,-0.490005 0.11499,-0.598999 -0.304993,-0.177994m-92.305008,1.104996c-0.11499,0.113998 -1.136002,0.240997 -2.269989,0.281006c-3.296005,0.116989 -1.988998,0.712997 1.54599,0.704987c2.299011,-0.00499 3.167999,-0.141998 3.056,-0.482986c-0.159988,-0.488007 -1.959,-0.876007 -2.332001,-0.503006m3.638,1.020996c-0.549988,0.180008 -0.86499,0.367996 -0.699997,0.417007c0.807999,0.241989 1.330002,0.179001 1.630005,-0.197006c0.222,-0.276001 0.397995,-0.248001 0.533997,0.087006c0.111008,0.274994 0.473007,0.5 0.802994,0.5c0.872009,0 0.412003,-0.988007 -0.498001,-1.067001c-0.422989,-0.037003 -1.218994,0.080002 -1.768997,0.259995m4.654999,1.007004c-0.154999,0.404007 0.019012,0.600006 0.534012,0.600006c0.419998,0 0.875,0.179993 1.011002,0.399994c0.135986,0.220001 0.686996,0.399994 1.223999,0.399994c0.536987,0 0.975998,0.180008 0.975998,0.400009c0,0.220001 0.360001,0.399994 0.800003,0.399994c0.439987,0 0.799988,-0.106003 0.799988,-0.235992c0,-0.531006 -1.862,-1.738007 -2.699997,-1.751007c-0.494995,-0.007004 -0.899994,-0.192993 -0.899994,-0.412994c0,-0.63501 -1.490005,-0.464005 -1.74501,0.199997m86.145004,1.199997c0,0.330002 0.269989,0.600006 0.600006,0.600006c0.329987,0 0.599976,-0.270004 0.599976,-0.600006c0,-0.330002 -0.269989,-0.599991 -0.599976,-0.599991c-0.330017,0 -0.600006,0.269989 -0.600006,0.599991m-79.761002,0.893997c-0.429001,0.429001 -0.252014,0.906006 0.33699,0.906006c0.317001,0 0.67601,-0.160995 0.798004,-0.358002c0.255005,-0.412003 -0.774002,-0.908005 -1.134995,-0.548004m80.778,0.478012c-0.27301,0.442001 0.358002,0.919998 0.72699,0.549988c0.381012,-0.37999 0.309998,-0.921997 -0.119995,-0.921997c-0.207001,0 -0.480011,0.167999 -0.606995,0.372009m-79.161011,0.306c-0.450989,0.449997 -0.274994,0.921997 0.344009,0.921997c0.330002,0 0.599991,-0.169006 0.599991,-0.376007c0,-0.50499 -0.625,-0.865997 -0.944,-0.54599m80.144012,2.110992c0,0.460007 0.268982,0.938995 0.597992,1.065002c0.328003,0.126999 0.522003,0.350998 0.431,0.498993c-0.30899,0.5 1.627991,3.846008 2.303009,3.976013c0.924988,0.178986 0.838989,-0.82901 -0.132019,-1.529007c-0.440002,-0.317001 -0.799988,-1 -0.799988,-1.516998c0,-0.992996 -0.834991,-2.083008 -1.595001,-2.083008c-0.248993,0 -0.348999,-0.167999 -0.222015,-0.371994c0.126007,-0.205002 0.047028,-0.485992 -0.175995,-0.623993c-0.225983,-0.139999 -0.406982,0.119995 -0.406982,0.584991m3.205994,6.511002c-0.003998,0.470001 0.289001,0.690002 0.894012,0.667999c0.600983,-0.020996 0.700989,-0.106995 0.299988,-0.259995c-0.330017,-0.125 -0.731995,-0.42601 -0.894012,-0.667999c-0.181,-0.271011 -0.29599,-0.172012 -0.299988,0.259995m0.794006,1.699997c0,0.330002 0.179993,0.600006 0.399994,0.600006c0.220001,0 0.399994,0.427994 0.399994,0.951004c0,0.522995 0.269989,1.174988 0.600006,1.44899c0.490997,0.408005 0.600006,0.380005 0.600006,-0.151001c0,-0.356995 -0.201019,-0.649002 -0.447021,-0.649002c-0.258972,0 -0.352997,-0.357986 -0.222992,-0.85199c0.123016,-0.471008 -0.02298,-1.098007 -0.324982,-1.400009c-0.709015,-0.709 -1.005005,-0.692993 -1.005005,0.052002m1.799988,5c-0.135986,0.220001 -0.106995,0.625 0.065002,0.900009c0.432007,0.690994 0.589996,1.477997 0.602997,3.000992c0.006012,0.714996 0.173004,1.401001 0.372009,1.522995c0.197998,0.123001 0.359985,0.627014 0.359985,1.12001c0,0.492996 0.180023,1.076004 0.400024,1.29599c0.219971,0.220001 0.42099,1.471008 0.446991,2.780014c0.026001,1.30899 0.182983,2.559998 0.350006,2.779999c0.165985,0.220001 0.424988,1.250992 0.575989,2.291c0.377014,2.610001 1.027008,2.820999 1.027008,0.332993c0,-1.113007 -0.180023,-2.024002 -0.399994,-2.024002c-0.220001,0 -0.400024,-0.98999 -0.400024,-2.199997c0,-1.210007 -0.177002,-2.199997 -0.392975,-2.199997c-0.216003,0 -0.371002,-0.936996 -0.346008,-2.082001c0.027985,-1.237 -0.136993,-2.143005 -0.407013,-2.233002c-0.256989,-0.085999 -0.453979,-1.007004 -0.453979,-2.117996c0,-1.082001 -0.180023,-1.96701 -0.400024,-1.96701c-0.220001,0 -0.399994,-0.360001 -0.399994,-0.799988c0,-0.844009 -0.582001,-1.076004 -1,-0.400009m3.854004,21.266998c-0.028992,1.46701 0.054993,2.952011 0.188995,3.300003c0.515991,1.345001 0.957001,0.529999 0.957001,-1.766998c0,-1.320007 -0.166992,-2.399994 -0.372009,-2.399994s-0.449982,-0.404999 -0.54599,-0.900009c-0.095001,-0.494995 -0.197998,0.300003 -0.227997,1.766998m-226.054008,13.733002c0,1.650009 0.169998,3 0.377998,3s0.445999,0.854996 0.528,1.900009c0.082001,1.044998 0.181999,-0.020004 0.222,-2.367004c0.040001,-2.347 -0.037003,-4.552002 -0.170998,-4.900009c-0.554001,-1.443985 -0.957001,-0.446991 -0.957001,2.367004m59.883003,2.996002c0.113998,0.436996 0.366989,0.695999 0.561996,0.576004c0.565994,-0.348999 0.410995,-1.372009 -0.208008,-1.372009c-0.363998,0 -0.488998,0.279999 -0.353989,0.796005m0.916992,5.203995c0,0.660004 0.180008,1.200012 0.400009,1.200012c0.220001,0 0.399994,-0.540009 0.399994,-1.200012c0,-0.659988 -0.179993,-1.199997 -0.399994,-1.199997c-0.220001,0 -0.400009,0.540009 -0.400009,1.199997m-60,3.767014c0,0.347992 0.169006,0.632996 0.375999,0.632996s0.452003,0.675003 0.546005,1.5c0.125,1.108002 0.156998,0.985001 0.124001,-0.469009c-0.041,-1.755997 -1.046005,-3.355988 -1.046005,-1.663986m0.800003,7.03299c0,0.440002 0.167,0.800003 0.372002,0.800003s0.449997,0.404999 0.545998,0.899994c0.095001,0.49501 0.197998,0.13501 0.228004,-0.799988c0.039993,-1.269012 -0.098007,-1.700012 -0.546005,-1.700012c-0.333,0 -0.599998,0.356003 -0.599998,0.800003m63.009995,0.783997c-0.314987,0.509003 0.647003,2.016006 1.286011,2.016006c0.276993,0 0.503998,-0.179993 0.503998,-0.399994c0,-0.220001 -0.180008,-0.400009 -0.400009,-0.400009c-0.220001,0 -0.399994,-0.360001 -0.399994,-0.800003c0,-0.834991 -0.580994,-1.078995 -0.990005,-0.416m-62.026993,2.917007c-0.151001,0.393005 0.007996,0.946991 0.377998,1.316986c0.584999,0.585022 0.638,0.578003 0.633003,-0.088989c-0.010002,-1.221985 -0.695,-2.053009 -1.011002,-1.227997m64.002991,0.699005c0.541,1.949982 1.443008,3.565002 2.422012,4.334991c0.54599,0.429016 0.991989,1.069 0.991989,1.423004c0,0.352997 0.159012,0.641998 0.354004,0.641998c0.195007,0 0.641006,0.602997 0.990997,1.339996c0.964005,2.03299 5.055008,5.598999 5.055008,4.407013c0,-0.139008 -0.330002,-0.544006 -0.733002,-0.900024c-0.403,-0.355988 -1.054001,-1.141998 -1.445999,-1.746979c-0.391998,-0.605011 -0.962006,-1.100006 -1.266998,-1.100006c-0.305008,0 -0.576004,-0.179993 -0.604004,-0.399994c-0.028,-0.220001 -0.072006,-0.595001 -0.100006,-0.832001c-0.026993,-0.238007 -0.36499,-0.662994 -0.75,-0.944c-0.384995,-0.282013 -0.699997,-0.654999 -0.699997,-0.830017c0,-0.174988 -0.449997,-0.90799 -1,-1.629974c-0.550003,-0.721008 -1.002991,-1.548004 -1.005997,-1.837006c-0.005005,-0.386993 -0.108994,-0.367004 -0.393997,0.072998c-0.311996,0.483002 -0.389008,0.421997 -0.393997,-0.317017c-0.003006,-0.503998 -0.386002,-1.313995 -0.851013,-1.799988l-0.845993,-0.882996l0.276993,1m-63.385994,5.199982c0,0.515991 0.203003,0.799011 0.5,0.700012a0.788,0.788 0 0 0 0.5,-0.700012a0.788,0.788 0 0 0 -0.5,-0.700012c-0.296997,-0.098999 -0.5,0.184021 -0.5,0.700012m1.599998,5.03299c0,0.707001 0.861,0.584015 1.108002,-0.15799c0.086998,-0.260986 -0.125999,-0.475006 -0.474998,-0.475006a0.635,0.635 0 0 0 -0.633003,0.632996m0.800003,1.69101c0,0.214996 0.285004,0.5 0.633003,0.632996c0.389999,0.149994 0.572998,0.061005 0.474998,-0.231995c-0.199005,-0.597992 -1.108002,-0.927002 -1.108002,-0.401001m0.800003,2.075989c0,0.516022 0.202995,0.799011 0.5,0.700012a0.788,0.788 0 0 0 0.5,-0.700012a0.788,0.788 0 0 0 -0.5,-0.699982c-0.297005,-0.098999 -0.5,0.18399 -0.5,0.699982m0.799995,1.84903c0,0.530975 0.109001,0.55899 0.599998,0.15097c0.330002,-0.273987 0.600006,-0.565979 0.600006,-0.648987c0,-0.083008 -0.270004,-0.151001 -0.600006,-0.151001c-0.329994,0 -0.599998,0.291992 -0.599998,0.649017m74.599998,0.950989c-0.136002,0.220001 0.033005,0.399994 0.376007,0.399994c0.343002,0 0.623993,0.179993 0.623993,0.399994c0,0.220001 0.182007,0.399994 0.403,0.399994c0.240005,0 0.199997,-0.325989 -0.095993,-0.799988c-0.553009,-0.885986 -0.934006,-1.002991 -1.307007,-0.399994m3,2.399994c0,0.220001 0.270004,0.399994 0.600006,0.399994c0.330002,0 0.599991,-0.179993 0.599991,-0.399994c0,-0.220001 -0.269989,-0.399994 -0.599991,-0.399994c-0.330002,0 -0.600006,0.179993 -0.600006,0.399994m-76.399994,0.371002c0,0.235992 0.254997,0.428986 0.566994,0.428986c0.311005,0 0.668007,0.225006 0.793007,0.5c0.123993,0.275024 0.181999,0.142029 0.127998,-0.294983c-0.099998,-0.81601 -1.487999,-1.40799 -1.487999,-0.634003m79.410004,0.812988c-0.339005,0.549011 -0.039001,0.960999 0.551987,0.758026c0.242004,-0.084015 0.27301,-0.366028 0.075012,-0.685028c-0.25,-0.401978 -0.412003,-0.42099 -0.626999,-0.072998m-78.610008,1.416016c0,0.411987 0.262001,0.608002 0.700005,0.523987c0.842995,-0.162994 0.789993,-0.871979 -0.079002,-1.052979c-0.362,-0.076019 -0.621002,0.144989 -0.621002,0.528992m81.200005,0.399994c0,0.330017 0.179993,0.600006 0.399994,0.600006c0.220001,0 0.400009,-0.269989 0.400009,-0.600006c0,-0.329987 -0.180008,-0.600006 -0.400009,-0.600006c-0.220001,0 -0.399994,0.27002 -0.399994,0.600006m-80.400002,1.200012c0,0.411987 0.262001,0.608002 0.699997,0.523987c0.843002,-0.162994 0.790001,-0.871979 -0.078995,-1.052979c-0.362007,-0.076019 -0.621002,0.144989 -0.621002,0.528992m83.200005,0.399994c0,0.330017 0.269989,0.600006 0.599991,0.600006c0.330002,0 0.600006,-0.269989 0.600006,-0.600006c0,-0.329987 -0.270004,-0.600006 -0.600006,-0.600006c-0.330002,0 -0.599991,0.27002 -0.599991,0.600006m2.278,0.455994c-0.479004,0.479004 0.166,0.944 1.245987,0.89801c0.677002,-0.029999 0.81601,-0.11499 0.376007,-0.230011c-0.384995,-0.099976 -0.699997,-0.348999 -0.699997,-0.552979c0,-0.425995 -0.544006,-0.493011 -0.921997,-0.115021m-84.678009,0.656006c0,0.281006 0.360001,0.770996 0.800003,1.088013c0.440002,0.316986 0.800003,0.897003 0.800003,1.287994c0,0.391998 0.18,0.712006 0.399994,0.712006c0.220001,0 0.400002,0.376984 0.400002,0.837006c0,0.500977 0.320999,0.921997 0.800003,1.046997c0.439995,0.11499 0.803001,0.502991 0.806,0.862976c0.004997,0.567017 0.056999,0.574005 0.392998,0.053009c0.264,-0.410004 0.223999,-0.72699 -0.125,-1c-0.279999,-0.220001 -0.907997,-1.255005 -1.393997,-2.299988c-0.486,-1.045013 -1.063004,-1.899994 -1.282005,-1.899994c-0.218994,0 -0.397995,-0.27002 -0.397995,-0.600006c0,-0.330017 -0.270004,-0.600006 -0.599998,-0.600006c-0.330002,0 -0.600006,0.230011 -0.600006,0.511993m87.199997,0.488007c0,0.329987 0.269989,0.600006 0.599991,0.600006c0.330002,0 0.600006,0.179993 0.600006,0.399994c0,0.220001 0.367996,0.399994 0.817993,0.399994c0.776001,0 0.767014,-0.052002 -0.181992,-1c-1.130997,-1.131989 -1.835999,-1.285004 -1.835999,-0.399994m3.199997,1.600006c0,0.367004 0.192993,0.60199 0.429993,0.52298c0.237,-0.077972 0.430008,-0.313995 0.430008,-0.52298c0,-0.209015 -0.193008,-0.444 -0.430008,-0.52301c-0.237,-0.07901 -0.429993,0.156006 -0.429993,0.52301m2.800003,0.799988c0,0.399017 0.367996,0.584015 1.099991,0.554016c0.686005,-0.029022 0.835007,-0.115997 0.395004,-0.231018c-0.388,-0.100983 -0.602005,-0.350006 -0.475998,-0.552979c0.125,-0.20401 -0.052002,-0.370026 -0.395004,-0.370026a0.614,0.614 0 0 0 -0.623993,0.600006m3.699997,0.700012c0.091003,0.274994 0.498993,0.563995 0.904999,0.643005c0.677994,0.131989 0.686005,0.091003 0.095001,-0.5c-0.768005,-0.768005 -1.229996,-0.835022 -1,-0.143005m2.300003,0.899994c0,0.339996 0.358994,0.600006 0.828995,0.600006c0.736008,0 0.761002,-0.067017 0.227997,-0.600006c-0.330002,-0.329987 -0.703003,-0.600006 -0.828003,-0.600006c-0.125992,0 -0.228989,0.27002 -0.228989,0.600006m3.078003,0.455994c-0.553009,0.552002 0.247986,0.942017 1.845993,0.89801c0.921997,-0.026001 1.361008,-0.128998 0.975998,-0.230011c-0.384995,-0.100006 -0.699997,-0.348999 -0.699997,-0.552979c0,-0.417023 -1.727005,-0.511017 -2.121994,-0.115021m-97.406998,2.811005c0.194,1.002991 1.128998,1.140991 1.128998,0.166016c0,-0.491028 -0.257996,-0.833008 -0.628998,-0.833008c-0.373001,0 -0.576996,0.272003 -0.5,0.666992m1.528999,2.53299c0,0.220001 0.270004,0.400024 0.599998,0.400024c0.330002,0 0.600006,-0.180023 0.600006,-0.400024c0,-0.220001 -0.270004,-0.399994 -0.600006,-0.399994c-0.329994,0 -0.599998,0.179993 -0.599998,0.399994m1.599998,2.167023c0,0.347992 0.285004,0.632996 0.633003,0.632996c0.348999,0 0.561996,-0.21402 0.474998,-0.475006c-0.247002,-0.742004 -1.108002,-0.86499 -1.108002,-0.15799m1.600006,2.399994c0,0.347992 0.284996,0.632996 0.632996,0.632996c0.707001,0 0.584,-0.860992 -0.157997,-1.108002c-0.261002,-0.087006 -0.474998,0.126007 -0.474998,0.475006m1.599998,2.227997c0,0.639008 1.178001,1.76001 1.504997,1.433014c0.326004,-0.326019 -0.385002,-1.521027 -1.033997,-1.738007c-0.259003,-0.085999 -0.471001,0.050995 -0.471001,0.304993m1.599998,2.556c0,0.641998 1.112999,1.670013 1.445999,1.335999c0.125,-0.125 0.108002,-0.600006 -0.035995,-1.057007c-0.293007,-0.923004 -1.410004,-1.143982 -1.410004,-0.278992m2.545998,2.76001c0.384003,0.280975 0.746002,0.832001 0.803001,1.223999c0.092003,0.623993 4.354004,5.065002 4.860001,5.065002c0.404999,0 0.161003,-0.713013 -0.509003,-1.488007l-2.640999,-3.061005c-1.067001,-1.238007 -2.226997,-2.251007 -2.575996,-2.251007c-0.548004,0 -0.540001,0.070007 0.062996,0.511017m144.25399,1.088989c0,0.515991 0.203003,0.799011 0.5,0.700012a0.788,0.788 0 0 0 0.5,-0.700012a0.788,0.788 0 0 0 -0.5,-0.700012c-0.296997,-0.098999 -0.5,0.184021 -0.5,0.700012m0.799988,1.394989c0,0.144012 0.289001,0.552002 0.643005,0.904999c0.591003,0.591003 0.632019,0.583008 0.5,-0.095001c-0.131989,-0.682983 -1.143005,-1.398987 -1.143005,-0.809998m0.800018,3.605011c0,0.549988 0.179993,1 0.399994,1c0.220001,0 0.399994,-0.450012 0.399994,-1s-0.179993,-1 -0.399994,-1c-0.220001,0 -0.399994,0.450012 -0.399994,1m10,16.028992c0,0.44101 1.108002,1.330017 1.35199,1.085022c0.136993,-0.136017 0.248016,-0.02002 0.248016,0.258972c0,0.453003 2.230988,2.827026 2.655975,2.827026c0.402008,0 -0.758972,-1.65802 -1.473999,-2.104004c-0.429993,-0.269012 -0.781982,-0.649994 -0.781982,-0.848022c0,-0.197998 -0.315002,-0.598999 -0.700012,-0.890991c-0.743988,-0.565002 -1.299988,-0.704987 -1.299988,-0.328003m44.266998,16.838013c-0.460999,0.459991 -0.291992,0.932983 0.333008,0.932983c0.329987,0 0.599976,-0.269989 0.599976,-0.599976c0,-0.625 -0.472992,-0.794006 -0.932983,-0.333008m-135.466995,0.53299c0,0.220001 0.360001,0.399994 0.800003,0.399994c0.440002,0 0.800003,-0.179993 0.800003,-0.399994c0,-0.220001 -0.360001,-0.399994 -0.800003,-0.399994c-0.440002,0 -0.800003,0.179993 -0.800003,0.399994m133.056015,0.277985c-0.451019,0.450012 -0.275024,0.921997 0.343994,0.921997c0.329987,0 0.600006,-0.168976 0.600006,-0.375977c0,-0.505005 -0.625,-0.865997 -0.944,-0.546021m-128.336014,0.60202c0.373001,0.372986 0.587006,0.372986 0.960007,0s0.266998,-0.480011 -0.480011,-0.480011s-0.852997,0.106995 -0.479996,0.480011" fill="#373a59"/>
   <path id="svg_10" d="m87.199997,58.624001c0,0.579998 0.173004,0.916 0.400002,0.776001c0.220001,-0.136002 0.400002,-0.597 0.400002,-1.024002c0,-0.426998 -0.18,-0.776001 -0.400002,-0.776001c-0.220001,0 -0.400002,0.461002 -0.400002,1.024002m-0.799995,13.375999c0,2.133003 0.163002,3.599998 0.400002,3.599998c0.237,0 0.399994,-1.466995 0.399994,-3.599998s-0.162994,-3.599998 -0.399994,-3.599998c-0.237,0 -0.400002,1.466995 -0.400002,3.599998m47.599998,1.429001c0,0.423996 1.235992,1.468002 1.466995,1.237999c0.125,-0.125999 -0.049988,-0.506996 -0.390991,-0.848c-0.63501,-0.635002 -1.076004,-0.794998 -1.076004,-0.389999m75.800003,46.971001c0.136002,0.220001 0.686996,0.400002 1.223999,0.400002c0.537003,0 0.975998,-0.18 0.975998,-0.400002c0,-0.220001 -0.550995,-0.400002 -1.223999,-0.400002c-0.712997,0 -1.119995,0.167 -0.975998,0.400002m8.199997,0.799995c0,0.220001 0.270004,0.400002 0.600006,0.400002c0.329987,0 0.599991,-0.18 0.599991,-0.400002c0,-0.219994 -0.270004,-0.399994 -0.599991,-0.399994c-0.330002,0 -0.600006,0.18 -0.600006,0.399994m-18.703003,26.900009l0.097,25.699997l0.106003,-25.481003l0.106003,-25.481003l2.496994,-0.141998l2.497009,-0.141998l-2.700012,-0.077003l-2.699997,-0.076996l0.097,25.700005m25.503006,-25.300003c0,0.219994 0.270004,0.399994 0.599991,0.399994c0.330002,0 0.600006,-0.18 0.600006,-0.399994c0,-0.220001 -0.270004,-0.400002 -0.600006,-0.400002c-0.329987,0 -0.599991,0.18 -0.599991,0.400002m-16.400009,0.32c0,0.225998 1.162003,0.472 2.582001,0.545998c3.113007,0.162003 2.927002,-0.287003 -0.281998,-0.678001c-1.492996,-0.181999 -2.300003,-0.136002 -2.300003,0.132004m5.600006,0.879997c0,0.220001 0.869995,0.400002 1.932999,0.400002c2.249008,0 6.494995,0.756996 7.046997,1.255997c0.209,0.189003 1.109009,0.329002 2,0.310005l1.62001,-0.034004l-2.200012,-0.570999c-2.092987,-0.543999 -8.837997,-1.738998 -9.899994,-1.753998c-0.274994,-0.004005 -0.5,0.172997 -0.5,0.392998m18,0.400002c0,0.220001 0.270004,0.400002 0.600006,0.400002c0.329987,0 0.599991,-0.18 0.599991,-0.400002c0,-0.220001 -0.270004,-0.400002 -0.599991,-0.400002c-0.330002,0 -0.600006,0.18 -0.600006,0.400002m4.800003,1.599998c0,0.220001 0.270004,0.400002 0.599991,0.400002c0.330002,0 0.600006,-0.18 0.600006,-0.400002c0,-0.220001 -0.270004,-0.400002 -0.600006,-0.400002c-0.329987,0 -0.599991,0.18 -0.599991,0.400002m-9.600006,0.277c0,0.199997 1.125,0.595001 2.5,0.877998c1.375,0.284004 2.680008,0.648003 2.900009,0.807999c0.220001,0.160995 1.209991,0.526001 2.199997,0.811005c0.98999,0.283997 2.186996,0.697998 2.660995,0.917999c0.473007,0.220993 1.100006,0.320999 1.393005,0.222992c0.292999,-0.097 -0.274002,-0.453995 -1.26001,-0.791992a969.289978,969.289978 0 0 1 -3.793991,-1.314003c-1.100006,-0.384995 -2.720001,-0.847 -3.600006,-1.026001c-0.87999,-0.179001 -1.914993,-0.447998 -2.300003,-0.597c-0.384995,-0.149994 -0.699997,-0.107994 -0.699997,0.091003m14.800003,5.004005c0.990005,0.421997 2.492004,1.171997 8.5,4.242996c1.705002,0.871994 3.100006,1.449997 3.100006,1.285004c0,-0.409012 -11.251007,-6.021011 -12,-5.984009c-0.330002,0.016006 -0.150009,0.221008 0.399994,0.456009m-156.132988,6.185989c-0.450005,0.450012 -0.318001,54.133011 0.132996,54.133011c0.263,0 0.400002,-9.333008 0.400002,-27.200012c0,-14.959991 -0.059998,-27.199997 -0.132996,-27.199997c-0.074005,0 -0.254005,0.12001 -0.400002,0.266998m168.932991,0.024002c0.330002,0.125 1.352005,0.740997 2.272018,1.367996c1.992981,1.360001 2.653992,1.511002 1.056976,0.241013c-1.507996,-1.199005 -2.805984,-1.907013 -3.423981,-1.868011c-0.318008,0.019012 -0.283005,0.116013 0.094986,0.259003m5.199997,3.095001c0,0.313004 2.450012,1.897003 2.640015,1.707001c0.106995,-0.106995 -0.444,-0.569992 -1.222992,-1.029999c-0.779022,-0.460007 -1.417023,-0.764008 -1.417023,-0.677002m5.119019,3.671005c1.144989,0.800995 2.080994,1.606003 2.080994,1.789001c0,0.18399 0.506989,0.595993 1.126007,0.916c0.619995,0.319992 2.722992,2.121994 4.673004,4.003998c1.950989,1.880997 3.638977,3.328995 3.751984,3.216995c0.23999,-0.240005 -4.776001,-5.382996 -5.25,-5.382996c-0.292999,0 -2.096985,-1.499008 -3.971985,-3.300003c-0.401001,-0.384995 -0.838013,-0.699997 -0.971008,-0.699997s-0.777008,-0.449997 -1.431,-1s-1.390991,-1 -1.639008,-1c-0.247009,0 0.487,0.655991 1.631012,1.457001m4.311005,0.091995c0.423981,0.412003 0.914001,0.666 1.088989,0.563995c0.470001,-0.270996 -0.513,-1.312988 -1.238007,-1.312988c-0.507996,0 -0.480988,0.135986 0.149017,0.748993m8.68399,11.221008c0.596985,0.709991 1.085999,1.631989 1.085999,2.047989c0,0.508011 0.196991,0.681 0.600006,0.527008c0.628998,-0.242004 0.848999,0.453995 0.259003,0.819c-0.187012,0.11499 -0.447021,1.350998 -0.578003,2.744995c-0.130005,1.395004 -1.151001,8.285004 -2.27002,15.313004l-3.208984,20.177994c-0.647003,4.070007 -1.356018,8.479996 -1.575012,9.800003c-0.220001,1.320007 -0.770996,4.740005 -1.225006,7.600006c-1.375977,8.662994 -1.694977,10.382996 -2.002991,10.799988c-0.161987,0.220001 -0.408997,1.930008 -0.548004,3.800003c-0.138977,1.87001 -0.424988,4.389999 -0.635986,5.600006c-0.389008,2.233994 -0.776001,4.60199 -1.63501,10c-0.263,1.649994 -0.631989,3.809998 -0.820007,4.800003c-0.188995,0.98999 -0.720978,4.229996 -1.181976,7.199982c-0.460999,2.970001 -1.013,6.300018 -1.226013,7.400024c-0.213013,1.099976 -0.540985,3.349976 -0.72699,5c-0.440002,3.876984 -1.214996,8.013 -1.667999,8.894989c-0.196014,0.381989 -0.359009,1.552002 -0.361023,2.600006c-0.004974,2.173004 -1.752991,13.595978 -2.140991,13.983002c-0.139984,0.139984 -0.274994,-7.830017 -0.298004,-17.710999c-0.023987,-9.882019 -0.177979,-19.046997 -0.34198,-20.367004c-0.421021,-3.395004 -0.453003,24.673981 -0.041016,36.600006c0.209991,6.092987 0.524994,10.253998 0.832001,11c0.270996,0.659973 0.625,1.559998 0.785004,2c0.751007,2.062988 6.153992,12.599976 6.460999,12.599976c0.192017,0 0.347992,0.230011 0.347992,0.511017s0.540009,1.10199 1.200012,1.824982c0.660004,0.722015 1.200012,1.443024 1.200012,1.60202c0,0.772003 10.549988,10.462006 11.389984,10.462006c0.134003,0 1.218994,0.720001 2.410004,1.599976c1.19101,0.880005 2.419006,1.600006 2.729004,1.600006c0.309998,0 0.992004,0.325012 1.516998,0.722015c0.524994,0.397003 1.764008,0.970001 2.753998,1.272003c0.98999,0.302979 1.980011,0.669983 2.200012,0.816986c0.635986,0.424988 4.480988,1.588989 5.246979,1.588989c0.382996,0 1.248993,0.167999 1.925018,0.373016c2.713989,0.822998 10.203979,1.744995 10.718994,1.319c0.397003,-0.32901 0.444,-1.899994 0.210999,-7.157013c-0.164001,-3.703979 -0.253998,-8.174988 -0.200012,-9.934998c0.054016,-1.759979 0.053009,-6.529999 -0.002991,-10.600006c-0.056,-4.069977 -0.056,-9.289978 0,-11.599976c0.056,-2.309998 0.098999,-21.840027 0.096985,-43.400024c-0.004974,-41.865997 0.025024,-41.158005 -2.189972,-51.199997c-0.194,-0.880005 -0.570007,-2.729996 -0.836029,-4.112c-0.266998,-1.380997 -0.638977,-2.606995 -0.826996,-2.723007c-0.188995,-0.116989 -0.342987,-0.62999 -0.342987,-1.139999c0,-0.509995 -0.306,-1.623993 -0.679016,-2.475998c-0.373993,-0.85199 -0.722992,-1.908997 -0.776978,-2.348999c-0.054016,-0.440002 -0.837006,-2.509995 -1.740997,-4.599991c-1.421997,-3.287003 -2.261017,-5.053009 -4.277008,-9c-0.223999,-0.440002 -0.75,-1.519012 -1.166992,-2.399002c-1.106018,-2.330002 -3.81601,-6.779007 -4.226013,-6.938004c-0.194,-0.074997 -0.609009,-0.748001 -0.92099,-1.496002c-0.312012,-0.748001 -0.996002,-1.787994 -1.52002,-2.311005c-0.523987,-0.524002 -1.184998,-1.515991 -1.470978,-2.203995c-0.285004,-0.688995 -0.676025,-1.251999 -0.870026,-1.251999c-0.192993,0 -0.350983,-0.195999 -0.350983,-0.434006c0,-0.442993 -0.597015,-1.138992 -5.200012,-6.065994c-1.429993,-1.531006 -2.742981,-3.031998 -2.916992,-3.337006c-0.174988,-0.304001 -0.708008,-0.761993 -1.186005,-1.01799c-0.766998,-0.411011 -0.742004,-0.314011 0.21701,0.824997m6.686005,3.981003c0,0.501999 1.173981,1.408997 1.457001,1.125c0.130981,-0.131012 -0.040009,-0.516006 -0.381012,-0.85701c-0.695007,-0.694992 -1.075989,-0.789993 -1.075989,-0.26799m-84.200012,15.459c0.220001,0.097 2.380005,0.350998 4.800003,0.565002c2.419998,0.213989 4.921997,0.513 5.559006,0.664993c0.759003,0.181 1.071991,0.132996 0.903992,-0.138c-0.140991,-0.227005 -0.931992,-0.541 -1.759003,-0.697006c-1.690994,-0.317993 -10.125992,-0.668991 -9.503998,-0.394989m12.199997,1.789993c0.330002,0.212997 0.960007,0.378006 1.400009,0.365997l0.800003,-0.021988l-0.800003,-0.344009c-1.195999,-0.513992 -2.195007,-0.513992 -1.400009,0m5.008011,1.212997c0.10199,0.164001 0.668991,0.419998 1.261002,0.569c0.592987,0.14801 1.794998,0.617004 2.672989,1.041c1.220001,0.590012 2.727005,0.818008 1.825012,0.277008c-2.105011,-1.263 -6.203003,-2.605011 -5.759003,-1.887009m8.991989,4.05101c0.770004,0.466995 2.34201,1.453995 3.494003,2.192993c1.151001,0.738998 2.21701,1.343002 2.367996,1.343002c0.151001,0 0.605011,0.298996 1.009003,0.664001c0.404007,0.365997 0.837997,0.559998 0.966003,0.431992c0.128006,-0.127991 -0.278,-0.547989 -0.901993,-0.93399a288,288 0 0 1 -2.889008,-1.822998c-0.964996,-0.616013 -2.270004,-1.348007 -2.899994,-1.626999c-0.630005,-0.279007 -1.146011,-0.643005 -1.146011,-0.810013c0,-0.166 -0.314987,-0.298996 -0.699997,-0.294998c-0.453003,0.003998 -0.205002,0.307007 0.699997,0.85701m9.200012,6.37999c2.173996,1.881012 3.213989,2.195007 1.248993,0.376007c-0.964005,-0.891006 -1.953995,-1.613007 -2.199997,-1.604004c-0.246994,0.009003 0.181,0.561996 0.951004,1.227997m4.365997,3.844009c0.863998,1.276993 1.570999,1.921997 1.813004,1.651993c0.069,-0.076996 -0.507004,-0.770004 -1.279007,-1.539993l-1.404999,-1.400009l0.871002,1.28801m66.034012,0.112c0,0.220001 0.269989,0.399994 0.599976,0.399994c0.330017,0 0.600006,-0.179993 0.600006,-0.399994c0,-0.220001 -0.269989,-0.400009 -0.600006,-0.400009c-0.329987,0 -0.599976,0.180008 -0.599976,0.400009m1.811981,2.916992c-0.17099,0.395004 -0.199005,0.830002 -0.061005,0.96701c0.406006,0.405991 0.733002,-0.164001 0.546021,-0.953003c-0.165009,-0.697998 -0.187012,-0.699005 -0.485016,-0.014008m-64.612,0.214005c0,0.212997 0.945007,1.623001 2.100006,3.132996c2.041992,2.671005 2.727997,3.742004 4.119995,6.436005c0.369003,0.714996 0.834,1.300003 1.033997,1.300003c0.670013,0 -3.112,-6.359009 -4.888992,-8.219009c-0.641006,-0.67099 -1.165009,-1.358002 -1.165009,-1.528992c0,-0.169998 -0.269989,-0.57901 -0.599991,-0.908997c-0.330002,-0.330002 -0.600006,-0.42601 -0.600006,-0.212006m7.633011,11.557999c-0.05101,0.751007 1.944992,5.065994 2.217987,4.794006c0.132004,-0.132004 -0.306,-1.375 -0.972992,-2.762009c-0.667007,-1.386002 -1.227005,-2.300995 -1.244995,-2.031998m59.966995,0.710999c0,0.550003 0.179993,1 0.399994,1c0.220001,0 0.399994,-0.449997 0.399994,-1s-0.179993,-1 -0.399994,-1c-0.220001,0 -0.399994,0.449997 -0.399994,1m0.799988,4.400009c0,0.549988 0.180023,1 0.400024,1c0.219971,0 0.399994,-0.450012 0.399994,-1s-0.180023,-1 -0.399994,-1c-0.220001,0 -0.400024,0.449997 -0.400024,1m-58.383987,0.337997c-0.020996,0.438995 1.134995,4.623001 1.563004,5.662003c0.597,1.446991 1.253998,5.92099 1.569,10.695999c0.17099,2.582993 0.388,4.772995 0.480988,4.866989c0.337006,0.337006 -0.121002,-9.97699 -0.471008,-10.636993c-0.196991,-0.369995 -0.365997,-1.270004 -0.375977,-2c-0.009003,-0.729004 -0.292999,-2.046005 -0.631012,-2.925995c-0.33699,-0.880005 -0.65799,-2.050003 -0.714005,-2.600006c-0.097992,-0.966003 -1.388992,-3.748001 -1.42099,-3.061996m59.183975,4.862c0,1.209991 0.166992,2.199997 0.371002,2.199997c0.204987,0 0.372009,-0.990005 0.372009,-2.199997c0,-1.210007 -0.167023,-2.199997 -0.372009,-2.199997c-0.20401,0 -0.371002,0.98999 -0.371002,2.199997m-226.399986,21.800003c0,1.100006 0.18,2 0.400002,2c0.219994,0 0.399994,-0.899994 0.399994,-2s-0.18,-2 -0.399994,-2c-0.220001,0 -0.400002,0.900009 -0.400002,2m170.598991,0.100006c-0.143005,1.154999 -0.089996,3.899994 0.115997,6.099991l0.374023,4l0.056,-6.099991c0.056976,-6.35701 -0.107025,-7.563004 -0.546021,-4m-169.798996,8.899994c0,0.770004 0.18,1.400009 0.400002,1.400009c0.220001,0 0.400002,-0.630005 0.400002,-1.400009c0,-0.770004 -0.18,-1.399994 -0.400002,-1.399994c-0.220001,0 -0.400002,0.62999 -0.400002,1.399994m0.800003,6.800003c0,0.550003 0.18,1 0.400002,1c0.220001,0 0.400002,-0.449997 0.400002,-1s-0.18,-1 -0.400002,-1c-0.220001,0 -0.400002,0.449997 -0.400002,1m6.800003,23c0,0.220001 0.269997,0.399994 0.599998,0.399994c0.330002,0 0.599998,-0.179993 0.599998,-0.399994c0,-0.220001 -0.269997,-0.399994 -0.599998,-0.399994c-0.330002,0 -0.599998,0.179993 -0.599998,0.399994m88,4c0,0.220001 0.270004,0.399994 0.599991,0.399994c0.330002,0 0.600006,-0.179993 0.600006,-0.399994c0,-0.220001 -0.270004,-0.399994 -0.600006,-0.399994c-0.329987,0 -0.599991,0.179993 -0.599991,0.399994m18.800003,5.600006c0,0.220001 0.269989,0.399994 0.599991,0.399994c0.330002,0 0.600006,-0.179993 0.600006,-0.399994c0,-0.220001 -0.270004,-0.399994 -0.600006,-0.399994c-0.330002,0 -0.599991,0.179993 -0.599991,0.399994m-101.200005,0.600006c0,0.329987 0.18,0.599976 0.400002,0.599976c0.219994,0 0.399994,-0.269989 0.399994,-0.599976c0,-0.330017 -0.18,-0.600006 -0.399994,-0.600006c-0.220001,0 -0.400002,0.269989 -0.400002,0.600006m155.599998,14c0,0.329987 0.180023,0.599976 0.400024,0.599976c0.219971,0 0.399994,-0.269989 0.399994,-0.599976c0,-0.330017 -0.180023,-0.600006 -0.399994,-0.600006c-0.220001,0 -0.400024,0.269989 -0.400024,0.600006m-143.999992,2.919983c0,0.42099 0.869003,1.279999 1.293999,1.279999c0.184006,0 0.141006,-0.359985 -0.093994,-0.799988c-0.423004,-0.790009 -1.200005,-1.101013 -1.200005,-0.480011" fill="#939cbd"/>
   <path id="svg_11" d="m199.606003,148.248001c0.002991,14.052994 0.140991,25.764999 0.306992,26.024002c0.186005,0.293991 1.889999,0.541992 4.494003,0.653992c4.26001,0.184998 6.671005,0.534012 7.393005,1.072998c0.220001,0.164001 1.389999,0.521011 2.599991,0.795013c1.210007,0.272995 2.613007,0.655991 3.119003,0.850998c0.505005,0.194992 1.212006,0.354996 1.570007,0.354996c0.617996,0 7.287994,3.089996 7.710999,3.572006c0.110001,0.125 1.009995,0.668991 2,1.209c2.466995,1.343994 4.341995,2.562988 5.994003,3.894989c2.218994,1.790009 9.985992,9.486008 9.995987,9.904999c0.006012,0.209 0.534012,0.929001 1.175003,1.600006c2.699997,2.826004 8.725006,14.483994 9.001999,17.419006c0.052002,0.549988 0.307007,1.394989 0.567001,1.878998c1.529999,2.849991 1.908997,10.682999 2.283997,47.223999c0.170013,16.557007 0.39502,30.016998 0.501007,29.911987c0.339996,-0.341003 2.072998,-11.949982 2.076996,-13.919983c0.002014,-1.048004 0.165009,-2.218018 0.360992,-2.600006c0.453003,-0.881989 1.227997,-5.018005 1.667999,-8.894989c0.186005,-1.650024 0.514008,-3.900024 0.72702,-5c0.212982,-1.100006 0.751984,-4.340027 1.196991,-7.200012c0.446014,-2.860001 0.992004,-6.190002 1.214996,-7.399994c0.395996,-2.157013 0.699005,-3.983002 1.656006,-10c0.263,-1.650009 0.634003,-3.900009 0.825012,-5c0.190979,-1.100006 0.461975,-3.529999 0.602997,-5.400009c0.140991,-1.869995 0.388977,-3.580002 0.550995,-3.800003c0.307983,-0.416992 0.626984,-2.136993 2.002991,-10.799988c0.45401,-2.860001 1.005005,-6.279999 1.225006,-7.600006c0.218994,-1.320007 0.928009,-5.729996 1.575012,-9.800003l3.208984,-20.177994c1.118988,-7.028 2.140015,-13.917999 2.269989,-15.313004c0.131012,-1.393997 0.391022,-2.630005 0.578003,-2.744995c0.56601,-0.350006 0.382019,-1.065002 -0.214996,-0.835999c-0.368988,0.140991 -0.631989,-0.167007 -0.781982,-0.916c-0.139008,-0.695999 -0.947021,-1.719009 -2.111023,-2.669998c-1.037994,-0.848007 -3.134979,-2.762009 -4.661987,-4.254013c-1.526001,-1.491989 -3.29599,-2.980988 -3.932007,-3.309998c-0.635986,-0.328995 -1.156982,-0.753998 -1.156982,-0.944992c0,-0.284012 -5.515015,-4.335999 -7.939026,-5.833008c-0.355988,-0.220001 -1.402985,-0.895004 -2.325989,-1.5c-0.924011,-0.604996 -1.826996,-1.102997 -2.007004,-1.106003c-0.29599,-0.00499 -1.688995,-0.684998 -9.528,-4.651001c-3.761993,-1.903992 -6.168991,-2.942993 -6.815994,-2.942993c-0.326996,0 -0.906998,-0.162003 -1.289001,-0.360992c-0.382004,-0.199005 -1.505005,-0.591003 -2.494995,-0.872009c-0.990005,-0.281006 -1.979996,-0.638992 -2.199997,-0.794998c-0.220001,-0.154999 -1.480011,-0.511002 -2.800003,-0.791c-1.320007,-0.278999 -2.570999,-0.658997 -2.779999,-0.844002c-0.209,-0.184998 -1.143005,-0.336998 -2.076004,-0.336998s-1.792007,-0.153999 -1.908005,-0.341003c-0.194992,-0.316994 -3.561996,-0.945999 -7.835999,-1.463997c-0.98999,-0.121002 -3.059998,-0.389 -4.599991,-0.598c-1.540009,-0.208 -4.645004,-0.497002 -6.900009,-0.639999l-4.099991,-0.262001l0.005997,25.553001" fill="#bac4e7"/>
  </g>
 <path fill="url(#svg_13)" fill-opacity="0.1" stroke="none" stroke-opacity="1" style="color: rgb(0, 0, 0);" stroke-width="1"  stroke-linejoin="miter" stroke-linecap="butt" stroke-dashoffset="" fill-rule="nonzero" opacity="1" marker-start="" marker-mid="" marker-end="" id="svg_12" d="M236.158,328.291 L280.508,394.915"/><path fill="url(#svg_13)" fill-opacity="0.15" stroke="none" stroke-opacity="1" style="color: rgb(0, 0, 0);" stroke-width="1"  stroke-linejoin="miter" stroke-linecap="butt" stroke-dashoffset="" fill-rule="nonzero" opacity="1" marker-start="" marker-mid="" marker-end="" id="svg_17" d="M252.25989890098572,389.3079056739807 "/><path fill="url(#svg_13)" fill-opacity="0.15" stroke="none" stroke-opacity="1" style="color: rgb(0, 0, 0);" stroke-width="1"  stroke-linejoin="miter" stroke-linecap="butt" stroke-dashoffset="" fill-rule="nonzero" opacity="1" marker-start="" marker-mid="" marker-end="" id="svg_18" d="M134.463,326.596 L207.627,395.763"/><path fill="url(#svg_13)" fill-opacity="0.15" stroke="none" stroke-opacity="1" style="color: rgb(0, 0, 0);" stroke-width="1"  stroke-linejoin="miter" stroke-linecap="butt" stroke-dashoffset="" fill-rule="nonzero" opacity="1" marker-start="" marker-mid="" marker-end="" id="svg_20" d="M135.00001072883606,327.14286506175995 "/><path fill="url(#svg_13)" fill-opacity="0.15" stroke="none" stroke-opacity="1" style="color: rgb(0, 0, 0);" stroke-width="1"  stroke-linejoin="miter" stroke-linecap="butt" stroke-dashoffset="" fill-rule="nonzero" opacity="1" marker-start="" marker-mid="" marker-end="" id="svg_19" d="M135.714,329.286 L205,398.571"/><path fill="url(#svg_13)" fill-opacity="0.15" stroke="none" stroke-opacity="1" style="color: rgb(0, 0, 0);" stroke-width="1"  stroke-linejoin="miter" stroke-linecap="butt" stroke-dashoffset="" fill-rule="nonzero" opacity="1" marker-start="" marker-mid="" marker-end="" id="svg_21" d="M205.71429812908173,397.85715246200556 "/><path fill="url(#svg_13)" fill-opacity="0.15" stroke="none" stroke-opacity="1" style="color: rgb(0, 0, 0);" stroke-width="1"  stroke-linejoin="miter" stroke-linecap="butt" stroke-dashoffset="" fill-rule="nonzero" opacity="1" marker-start="" marker-mid="" marker-end="" id="svg_22" d="M205.71429812908173,398.5714381933212 "/></g>
</svg>
