<?xml version="1.0" ?><!DOCTYPE svg  PUBLIC '-//W3C//DTD SVG 1.1//EN'  'http://www.w3.org/Graphics/SVG/1.1/DTD/svg11.dtd'><svg enable-background="new 0 0 128 128" id="Слой_1" version="1.1" viewBox="0 0 128 128" xml:space="preserve" xmlns="http://www.w3.org/2000/svg" xmlns:xlink="http://www.w3.org/1999/xlink"><g><g><polygon fill="#92D9F7" points="91.7,124 64,111.1 36.3,124 36.3,46.1 91.7,46.1   "/></g><g><path d="M91.7,125c-0.1,0-0.3,0-0.4-0.1L64,112.2l-27.2,12.7c-0.3,0.1-0.7,0.1-1-0.1c-0.3-0.2-0.5-0.5-0.5-0.8    V46.1c0-0.6,0.4-1,1-1h55.3c0.6,0,1,0.4,1,1V124c0,0.3-0.2,0.7-0.5,0.8C92,124.9,91.8,125,91.7,125z M64,110.1    c0.1,0,0.3,0,0.4,0.1l26.2,12.2V47.1H37.3v75.4l26.2-12.2C63.7,110.2,63.9,110.1,64,110.1z" fill="#62355C"/></g><g><path d="M36.3,89c0.4,0,0.9-0.1,1.3-0.2c1,5.2,5.6,8.9,10.9,8.9c2.2,0,4.3-0.6,6.1-1.9    c2.1,3.1,5.5,4.9,9.2,4.9s7.2-1.9,9.2-4.9c1.8,1.2,3.9,1.9,6.1,1.9c5.4,0,9.9-3.8,10.9-8.9c0.4,0.1,0.9,0.1,1.3,0.2v-43H36.3V89z" fill="#0E1115" opacity="0.2"/><path d="M68.5,6.7L68.5,6.7c1.5,2.8,5.2,3.5,7.7,1.5l0,0c3.2-2.5,7.9-0.6,8.3,3.4v0c0.4,3.2,3.5,5.2,6.5,4.4l0,0    c3.9-1.1,7.5,2.5,6.4,6.4l0,0c-0.9,3.1,1.2,6.2,4.4,6.5l0,0c4,0.5,6,5.2,3.4,8.3l0,0c-2,2.5-1.3,6.2,1.5,7.7l0,0c3.5,2,3.5,7,0,9    l0,0c-2.8,1.5-3.5,5.2-1.5,7.7l0,0c2.5,3.2,0.6,7.9-3.4,8.3l0,0c-3.2,0.4-5.2,3.5-4.4,6.5l0,0c1.1,3.9-2.5,7.5-6.4,6.4h0    c-3.1-0.9-6.2,1.2-6.5,4.4v0c-0.5,4-5.2,6-8.3,3.4l0,0c-2.5-2-6.2-1.3-7.7,1.5l0,0c-2,3.5-7,3.5-9,0l0,0c-1.5-2.8-5.2-3.5-7.7-1.5    l0,0c-3.2,2.5-7.9,0.6-8.3-3.4v0c-0.4-3.2-3.5-5.2-6.5-4.4h0c-3.9,1.1-7.5-2.5-6.4-6.4l0,0c0.9-3.1-1.2-6.2-4.4-6.5l0,0    c-4-0.5-6-5.2-3.4-8.3l0,0c2-2.5,1.3-6.2-1.5-7.7l0,0c-3.5-2-3.5-7,0-9l0,0c2.8-1.5,3.5-5.2,1.5-7.7l0,0c-2.5-3.2-0.6-7.9,3.4-8.3    l0,0c3.2-0.4,5.2-3.5,4.4-6.5l0,0c-1.1-3.9,2.5-7.5,6.4-6.4l0,0c3.1,0.9,6.2-1.2,6.5-4.4v0c0.5-4,5.2-6,8.3-3.4l0,0    c2.5,2,6.2,1.3,7.7-1.5l0,0C61.5,3.1,66.5,3.1,68.5,6.7z" fill="#EC7BB0"/><path d="M64,95.9c-2.3,0-4.3-1.2-5.4-3.2c-0.7-1.3-2.1-2.1-3.6-2.1c-0.9,0-1.8,0.3-2.6,0.9    c-1.1,0.9-2.4,1.3-3.8,1.3c-3.1,0-5.8-2.3-6.1-5.5c-0.2-2.1-2-3.7-4.1-3.7c-0.4,0-0.8,0.1-1.2,0.2c-2.4,0.7-5.1-0.2-6.6-2.2    c-1.2-1.5-1.5-3.5-1-5.4c0.3-1.2,0.1-2.4-0.5-3.4c-0.7-1-1.8-1.7-3-1.8c-2.3-0.3-4.1-1.7-5-3.8c-0.9-2.1-0.5-4.4,0.9-6.2    c0.8-1,1.1-2.2,0.8-3.4c-0.2-1.2-1-2.2-2.1-2.8c-2-1.1-3.2-3.1-3.2-5.4c0-2.3,1.2-4.3,3.2-5.4c1.1-0.6,1.8-1.6,2.1-2.8    c0.2-1.2-0.1-2.4-0.8-3.4c-1.4-1.8-1.7-4.1-0.9-6.2c0.9-2.1,2.7-3.5,5-3.8c1.2-0.1,2.3-0.8,3-1.8c0.7-1,0.9-2.3,0.5-3.4    c-0.5-1.9-0.2-3.8,1-5.4c1.5-2,4.2-2.9,6.6-2.2c0.4,0.1,0.8,0.2,1.2,0.2c2.1,0,3.9-1.6,4.1-3.7c0.4-3.1,3-5.5,6.1-5.5    c1.4,0,2.7,0.5,3.8,1.3C53.2,8,54,8.3,55,8.3c1.5,0,2.9-0.8,3.6-2.1C59.7,4.2,61.7,3,64,3s4.3,1.2,5.4,3.2    c0.7,1.3,2.1,2.1,3.6,2.1c0.9,0,1.8-0.3,2.6-0.9c1.1-0.9,2.4-1.3,3.8-1.3c3.1,0,5.8,2.3,6.1,5.5c0.2,2.1,2,3.7,4.1,3.7    c0.4,0,0.8-0.1,1.2-0.2c2.4-0.7,5.1,0.2,6.6,2.2c1.2,1.5,1.5,3.5,1,5.4c-0.3,1.2-0.1,2.4,0.5,3.4c0.7,1,1.8,1.7,3,1.8    c2.3,0.3,4.1,1.7,5,3.8c0.9,2.1,0.5,4.4-0.9,6.2c-0.8,1-1.1,2.2-0.8,3.4c0.2,1.2,1,2.2,2.1,2.8c2,1.1,3.2,3.1,3.2,5.4    c0,2.3-1.2,4.3-3.2,5.4c-1.1,0.6-1.8,1.6-2.1,2.8c-0.2,1.2,0.1,2.4,0.8,3.4c1.4,1.8,1.7,4.1,0.9,6.2c-0.9,2.1-2.7,3.5-5,3.8    c-1.2,0.1-2.3,0.8-3,1.8c-0.7,1-0.9,2.3-0.5,3.4c0.5,1.9,0.2,3.8-1,5.4c-1.5,2-4.2,2.9-6.6,2.2c-0.4-0.1-0.8-0.2-1.2-0.2    c-2.1,0-3.9,1.6-4.1,3.7c-0.4,3.1-3,5.5-6.1,5.5c-1.4,0-2.7-0.5-3.8-1.3c-0.7-0.6-1.6-0.9-2.6-0.9c-1.5,0-2.9,0.8-3.6,2.1    C68.3,94.7,66.3,95.9,64,95.9z M55,88.6c2.2,0,4.3,1.2,5.4,3.2c0.7,1.3,2.1,2.1,3.6,2.1s2.9-0.8,3.6-2.1c1.1-2,3.1-3.2,5.4-3.2    c1.4,0,2.7,0.5,3.8,1.3c0.7,0.6,1.6,0.9,2.6,0.9c1.8,0,3.9-1.3,4.1-3.7c0.4-3.1,3-5.5,6.1-5.5c0.6,0,1.1,0.1,1.7,0.2    c1.7,0.5,3.4-0.1,4.5-1.5c0.8-1,1-2.4,0.7-3.6c-0.5-1.7-0.2-3.6,0.8-5.1c1-1.5,2.6-2.5,4.4-2.7c1.5-0.2,2.8-1.1,3.4-2.5    s0.4-3-0.6-4.2c-1.1-1.4-1.6-3.3-1.2-5c0.4-1.8,1.5-3.3,3.1-4.2c1.3-0.7,2.1-2.1,2.1-3.6s-0.8-2.9-2.1-3.6    c-1.6-0.9-2.7-2.4-3.1-4.2c-0.4-1.8,0.1-3.6,1.2-5c1-1.2,1.2-2.8,0.6-4.2s-1.8-2.4-3.4-2.5c-1.8-0.2-3.4-1.2-4.4-2.7    c-1-1.5-1.3-3.4-0.8-5.1c0.4-1.3,0.1-2.6-0.7-3.6c-1-1.4-2.8-2-4.5-1.5c-0.6,0.2-1.1,0.2-1.7,0.2c-3.1,0-5.7-2.3-6.1-5.5    c-0.3-2.4-2.3-3.7-4.1-3.7c-0.9,0-1.8,0.3-2.6,0.9c-1.1,0.9-2.4,1.3-3.8,1.3c-2.2,0-4.3-1.2-5.4-3.2C66.9,5.8,65.5,5,64,5    s-2.9,0.8-3.6,2.1c-1.1,2-3.1,3.2-5.4,3.2c0,0,0,0,0,0c-1.4,0-2.7-0.5-3.8-1.3c-0.7-0.6-1.6-0.9-2.6-0.9c-1.8,0-3.9,1.3-4.1,3.7    c-0.4,3.1-3,5.5-6.1,5.5c-0.6,0-1.1-0.1-1.7-0.2c-1.7-0.5-3.4,0.1-4.5,1.5c-0.8,1-1,2.4-0.7,3.6c0.5,1.7,0.2,3.6-0.8,5.1    c-1,1.5-2.6,2.5-4.4,2.7c-1.5,0.2-2.8,1.1-3.4,2.5c-0.6,1.4-0.4,3,0.6,4.2c1.1,1.4,1.6,3.2,1.2,5c-0.4,1.8-1.5,3.3-3.1,4.2    c-1.3,0.7-2.1,2.1-2.1,3.6s0.8,2.9,2.1,3.6c1.6,0.9,2.7,2.4,3.1,4.2c0.4,1.8-0.1,3.6-1.2,5c-1,1.2-1.2,2.8-0.6,4.2    s1.8,2.4,3.4,2.5c1.8,0.2,3.4,1.2,4.4,2.7c1,1.5,1.3,3.4,0.8,5.1c-0.4,1.3-0.1,2.6,0.7,3.6c1,1.4,2.8,2,4.5,1.5    c0.6-0.2,1.1-0.2,1.7-0.2c3.1,0,5.7,2.3,6.1,5.5c0.3,2.4,2.3,3.7,4.1,3.7c0.9,0,1.8-0.3,2.6-0.9C52.3,89,53.6,88.6,55,88.6z" fill="#62355C"/></g><g><path d="M64,95.9c-2.3,0-4.3-1.2-5.4-3.2c-0.7-1.3-2.1-2.1-3.6-2.1c-0.9,0-1.8,0.3-2.6,0.9    c-1.1,0.9-2.4,1.3-3.8,1.3c-3.1,0-5.8-2.3-6.1-5.5c-0.2-2.1-2-3.7-4.1-3.7c-0.4,0-0.8,0.1-1.2,0.2c-2.4,0.7-5.1-0.2-6.6-2.2    c-1.2-1.5-1.5-3.5-1-5.4c0.3-1.2,0.1-2.4-0.5-3.4c-0.7-1-1.8-1.7-3-1.8c-2.3-0.3-4.1-1.7-5-3.8c-0.9-2.1-0.5-4.4,0.9-6.2    c0.8-1,1.1-2.2,0.8-3.4c-0.2-1.2-1-2.2-2.1-2.8c-2-1.1-3.2-3.1-3.2-5.4c0-2.3,1.2-4.3,3.2-5.4c1.1-0.6,1.8-1.6,2.1-2.8    c0.2-1.2-0.1-2.4-0.8-3.4c-1.4-1.8-1.7-4.1-0.9-6.2c0.9-2.1,2.7-3.5,5-3.8c1.2-0.1,2.3-0.8,3-1.8c0.7-1,0.9-2.3,0.5-3.4    c-0.5-1.9-0.2-3.8,1-5.4c1.5-2,4.2-2.9,6.6-2.2c0.4,0.1,0.8,0.2,1.2,0.2c2.1,0,3.9-1.6,4.1-3.7c0.4-3.1,3-5.5,6.1-5.5    c1.4,0,2.7,0.5,3.8,1.3C53.2,8,54,8.3,55,8.3c1.5,0,2.9-0.8,3.6-2.1C59.7,4.2,61.7,3,64,3s4.3,1.2,5.4,3.2    c0.7,1.3,2.1,2.1,3.6,2.1c0.9,0,1.8-0.3,2.6-0.9c1.1-0.9,2.4-1.3,3.8-1.3c3.1,0,5.8,2.3,6.1,5.5c0.2,2.1,2,3.7,4.1,3.7    c0.4,0,0.8-0.1,1.2-0.2c2.4-0.7,5.1,0.2,6.6,2.2c1.2,1.5,1.5,3.5,1,5.4c-0.3,1.2-0.1,2.4,0.5,3.4c0.7,1,1.8,1.7,3,1.8    c2.3,0.3,4.1,1.7,5,3.8c0.9,2.1,0.5,4.4-0.9,6.2c-0.8,1-1.1,2.2-0.8,3.4c0.2,1.2,1,2.2,2.1,2.8c2,1.1,3.2,3.1,3.2,5.4    c0,2.3-1.2,4.3-3.2,5.4c-1.1,0.6-1.8,1.6-2.1,2.8c-0.2,1.2,0.1,2.4,0.8,3.4c1.4,1.8,1.7,4.1,0.9,6.2c-0.9,2.1-2.7,3.5-5,3.8    c-1.2,0.1-2.3,0.8-3,1.8c-0.7,1-0.9,2.3-0.5,3.4c0.5,1.9,0.2,3.8-1,5.4c-1.5,2-4.2,2.9-6.6,2.2c-0.4-0.1-0.8-0.2-1.2-0.2    c-2.1,0-3.9,1.6-4.1,3.7c-0.4,3.1-3,5.5-6.1,5.5c-1.4,0-2.7-0.5-3.8-1.3c-0.7-0.6-1.6-0.9-2.6-0.9c-1.5,0-2.9,0.8-3.6,2.1    C68.3,94.7,66.3,95.9,64,95.9z M55,88.6c2.2,0,4.3,1.2,5.4,3.2c0.7,1.3,2.1,2.1,3.6,2.1s2.9-0.8,3.6-2.1c1.1-2,3.1-3.2,5.4-3.2    c1.4,0,2.7,0.5,3.8,1.3c0.7,0.6,1.6,0.9,2.6,0.9c1.8,0,3.9-1.3,4.1-3.7c0.4-3.1,3-5.5,6.1-5.5c0.6,0,1.1,0.1,1.7,0.2    c1.7,0.5,3.4-0.1,4.5-1.5c0.8-1,1-2.4,0.7-3.6c-0.5-1.7-0.2-3.6,0.8-5.1c1-1.5,2.6-2.5,4.4-2.7c1.5-0.2,2.8-1.1,3.4-2.5    s0.4-3-0.6-4.2c-1.1-1.4-1.6-3.3-1.2-5c0.4-1.8,1.5-3.3,3.1-4.2c1.3-0.7,2.1-2.1,2.1-3.6s-0.8-2.9-2.1-3.6    c-1.6-0.9-2.7-2.4-3.1-4.2c-0.4-1.8,0.1-3.6,1.2-5c1-1.2,1.2-2.8,0.6-4.2s-1.8-2.4-3.4-2.5c-1.8-0.2-3.4-1.2-4.4-2.7    c-1-1.5-1.3-3.4-0.8-5.1c0.4-1.3,0.1-2.6-0.7-3.6c-1-1.4-2.8-2-4.5-1.5c-0.6,0.2-1.1,0.2-1.7,0.2c-3.1,0-5.7-2.3-6.1-5.5    c-0.3-2.4-2.3-3.7-4.1-3.7c-0.9,0-1.8,0.3-2.6,0.9c-1.1,0.9-2.4,1.3-3.8,1.3c-2.2,0-4.3-1.2-5.4-3.2C66.9,5.8,65.5,5,64,5    s-2.9,0.8-3.6,2.1c-1.1,2-3.1,3.2-5.4,3.2c0,0,0,0,0,0c-1.4,0-2.7-0.5-3.8-1.3c-0.7-0.6-1.6-0.9-2.6-0.9c-1.8,0-3.9,1.3-4.1,3.7    c-0.4,3.1-3,5.5-6.1,5.5c-0.6,0-1.1-0.1-1.7-0.2c-1.7-0.5-3.4,0.1-4.5,1.5c-0.8,1-1,2.4-0.7,3.6c0.5,1.7,0.2,3.6-0.8,5.1    c-1,1.5-2.6,2.5-4.4,2.7c-1.5,0.2-2.8,1.1-3.4,2.5c-0.6,1.4-0.4,3,0.6,4.2c1.1,1.4,1.6,3.2,1.2,5c-0.4,1.8-1.5,3.3-3.1,4.2    c-1.3,0.7-2.1,2.1-2.1,3.6s0.8,2.9,2.1,3.6c1.6,0.9,2.7,2.4,3.1,4.2c0.4,1.8-0.1,3.6-1.2,5c-1,1.2-1.2,2.8-0.6,4.2    s1.8,2.4,3.4,2.5c1.8,0.2,3.4,1.2,4.4,2.7c1,1.5,1.3,3.4,0.8,5.1c-0.4,1.3-0.1,2.6,0.7,3.6c1,1.4,2.8,2,4.5,1.5    c0.6-0.2,1.1-0.2,1.7-0.2c3.1,0,5.7,2.3,6.1,5.5c0.3,2.4,2.3,3.7,4.1,3.7c0.9,0,1.8-0.3,2.6-0.9C52.3,89,53.6,88.6,55,88.6z" fill="#62355C"/></g><g><path d="M67.2,72.6c-1.9,0-3.4-1.5-3.4-3.4V40.6l-8.4,7.7c-1.4,1.3-3.6,1.2-4.8-0.2c-1.3-1.4-1.2-3.6,0.2-4.8    l14.1-13c1-0.9,2.5-1.2,3.7-0.6c1.2,0.5,2,1.8,2,3.1v36.3C70.6,71,69.1,72.6,67.2,72.6z" fill="#FFFFFF"/></g></g></svg>