<svg width="400" height="400" xmlns="http://www.w3.org/2000/svg" viewBox="0 0 400 400" display="block">
  <g fill-rule="evenodd">
    <path d="M104.8 93.601c-15.31 1.473-29.876 14.118-33.176 28.799-.272 1.21-.705 3.1-.962 4.2l-.468 2-2.597.27c-23.068 2.402-31.875 33.474-13.314 46.97 7.982 5.805 10.819 6.27 37.117 6.088l18.4-.128.102-44.3.101-44.3-1.101.056c-.606.031-2.452.186-4.102.345m198.592 12.141c-10.146 3.1-16.857 10.333-19.348 20.854l-.662 2.797-1.98.283c-18.107 2.59-21.91 27.184-5.472 35.391L279 166.6l16.1.125 16.1.124V104.8l-2.5.042c-1.375.023-3.764.428-5.308.9" fill="#fff"/>
    <path d="M222.6 164.4l-1.6.286 1.7.057 1.7.057.012 86.3.011 86.3 1.089-1.24c1.16-1.321 1.503-1.747 3.678-4.561.764-.99 1.489-1.889 1.61-1.999.121-.11.841-1.01 1.6-2 .759-.99 1.478-1.89 1.598-2 .12-.11 1.348-1.64 2.729-3.4a890.28 890.28 0 0 1 2.991-3.801c.265-.331 1.107-1.411 1.872-2.4.764-.99 1.484-1.889 1.6-1.999.115-.11.838-1.01 1.604-2 .767-.99 1.616-2.07 1.886-2.4.271-.33 3.05-3.84 6.177-7.8 3.128-3.96 5.79-7.29 5.917-7.4.127-.11.704-.83 1.283-1.6a57.683 57.683 0 0 1 1.798-2.271c.41-.479 2.095-2.606 3.745-4.727 2.667-3.427 11.015-13.943 12.681-15.973a128.41 128.41 0 0 0 1.998-2.56c1.205-1.578 2.837-3.628 4.983-6.257a410.849 410.849 0 0 0 5.538-7.02c.55-.725 1.192-1.515 1.427-1.755 1.949-1.995 1.081-4.968-2.501-8.566-.289-.29-.526-.668-.526-.838 0-.171-.315-.682-.7-1.135-.385-.454-3.58-5.094-7.1-10.313-3.52-5.218-6.625-9.721-6.9-10.008-.275-.286-.5-.713-.5-.948 0-.236-.18-.429-.4-.429-.22 0-.4-.255-.4-.567 0-.311-.145-.626-.323-.7-.178-.073-3.182-4.363-6.677-9.533-3.495-5.17-6.499-9.46-6.677-9.533-.178-.074-.323-.389-.323-.7 0-.312-.18-.567-.4-.567-.22 0-.4-.27-.4-.6 0-.33-.15-.6-.332-.6-.183 0-.588-.495-.9-1.1-.312-.605-.669-1.19-.795-1.3-.126-.11-2.906-4.16-6.18-9-3.273-4.84-6.096-8.86-6.272-8.933-.177-.074-.324-.344-.328-.6-.032-2.003-7.314-8.777-10.654-9.909-.846-.286-1.71-.665-1.919-.84-.209-.175-.94-.318-1.624-.318-.683 0-1.592-.264-2.02-.587-.822-.622-2.158-.682-4.776-.213" fill="#121149"/>
    <path d="M220.586 143c0 11.66.051 16.372.114 10.472.062-5.901.062-15.441 0-21.2-.063-5.76-.114-.932-.114 10.728m6.79 21.57c.428.347 1.328.609 2 .584 1.217-.046 1.216-.047-.19-.323-.777-.152-1.677-.415-2-.584-.322-.168-.237-.023.19.323m-6.976.515c0 .266-.675.671-1.5.9-3.177.882-7.493 4.183-10.494 8.028-.767.983-1.617 2.057-1.888 2.387-.271.33-2.755 3.48-5.521 7-2.765 3.52-5.552 7.03-6.194 7.8-.641.77-2.39 2.955-3.885 4.855l-6.718 8.54c-2.2 2.797-4.27 5.403-4.6 5.792-.33.388-1.05 1.299-1.6 2.023-.55.724-1.18 1.518-1.4 1.763-.22.246-1.028 1.252-1.794 2.237a371.93 371.93 0 0 1-1.875 2.39c-.948 1.185-7.225 9.079-10.338 13-1.747 2.2-3.396 4.27-3.666 4.6-.269.33-1.353 1.7-2.408 3.045-2.343 2.986-2.99 3.804-9.424 11.917-2.808 3.541-5.508 6.891-6 7.445a20.863 20.863 0 0 0-1.594 2.084c-.733 1.13-10.253 13.162-10.688 13.509-.138.11-.684.83-1.213 1.6-.529.77-1.242 1.67-1.584 2-.343.33-1.415 1.643-2.382 2.919-.968 1.275-2.188 2.715-2.712 3.2-.523.484-3.322 3.851-6.22 7.481-7.463 9.35-14.696 18.441-16.102 20.237-.66.843-3.45 4.364-6.2 7.823-2.75 3.459-6.71 8.481-8.8 11.159-2.09 2.678-6.275 8.001-9.3 11.83-6.256 7.919-6.103 7.521-3.684 9.543 1.817 1.518 2.555 2.099 6.777 5.339 1.24.951 2.354 1.986 2.474 2.3.12.313.405.569.632.569.228 0 .944.555 1.592 1.232.648.678 1.275 1.135 1.394 1.016.235-.235 3.83 2.099 4.048 2.629.074.178.355.323.625.323s.84.315 1.267.7c.426.385 1.27.955 1.875 1.268.605.312 1.1.717 1.1.9 0 .182.188.332.417.332.679 0 2.089 1.505 1.819 1.942a.483.483 0 0 0 .167.66c.229.142.367.042.307-.222-.061-.264.115-.563.39-.663.275-.101.5.011.5.25 0 .238.289.433.643.433.384 0 .557.224.43.555-.15.389.017.494.557.353.511-.134.77.004.77.408 0 .412.259.541.8.4.447-.117.8-.012.8.237 0 .246.236.447.525.447.288 0 .911.36 1.383.8.472.44 1.136.8 1.475.8.339 0 .617.253.617.563 0 .375.281.489.846.341.717-.188.804-.091.573.637-.169.532-.101.859.178.859.247 0 .339-.18.203-.4-.136-.22.123-.4.576-.4.453 0 .824.18.824.4 0 .22.27.4.6.4.33 0 .6.18.6.4 0 .22.36.4.8.4.44 0 .8.18.8.4 0 .22.36.4.8.4.44 0 .8.18.8.4 0 .22.36.4.8.4.44 0 .8.199.8.443 0 .243.277.336.615.206.398-.152.728.069.934.626.212.572.417.704.609.393.415-.672 1.042-.577 1.042.159 0 .445.232.553.8.373.574-.182.8-.072.8.391 0 .354.225.615.5.579.971-.126 1.545.034 1.336.372-.117.188.231.258.771.155.639-.122 1.064.022 1.214.413.139.363.538.521 1.005.399.508-.133.774.001.774.389 0 .415.298.534 1 .4.812-.155 1-.032 1 .655 0 .466.18.847.4.847.22 0 .4-.195.4-.433 0-.239.225-.359.5-.267.275.092.5.368.5.613 0 .246.236.681.524.967.43.427.476.395.257-.18-.202-.53-.061-.7.576-.7.464 0 .843.245.843.545 0 .365.329.481 1 .353.838-.16 1.001-.038 1.006.755.005.679.103.794.348.408.399-.63 1.846-.465 1.846.211 0 .254.135.596.3.761.165.165.3.09.3-.166 0-.257.379-.467.843-.467.566 0 .771.188.623.571-.172.45.072.524 1.158.348 1.425-.232 1.989.451.676.819-.385.107.245.097 1.4-.023 1.672-.174 2.1-.099 2.1.364 0 .411.331.534 1.124.418.873-.129 1.223.042 1.573.769.247.514.461.709.476.434.015-.275.488-.5 1.051-.5.58 0 .916.173.776.4-.266.431.173.526 1.9.412.605-.04 1.1.121 1.1.358 0 .236.654.43 1.453.43.99 0 1.691.275 2.2.861.411.474.747.654.747.4 0-.253.45-.461 1-.461s1 .204 1 .452c0 .294.491.373 1.397.226.971-.158 1.586-.038 2.018.394.416.416 1.01.543 1.798.385 1.341-.268 2.493.049 2.157.592-.129.208.744.325 2.025.271 1.381-.057 2.362.087 2.539.374.178.287 1.197.436 2.643.387 1.589-.055 2.409.082 2.522.419.258.77 3.182.62 4.001-.205.385-.388 2.59-3.103 4.9-6.033 2.31-2.93 6.81-8.606 10-12.613a2281.26 2281.26 0 0 0 6.878-8.667c3.971-5.091 26.753-33.534 27.379-34.182.425-.44 2.471-2.96 4.547-5.6 2.076-2.64 4.589-5.8 5.585-7.023a151.894 151.894 0 0 0 2.811-3.553c.55-.732 1.27-1.643 1.6-2.024.33-.381 1.05-1.289 1.6-2.018.55-.729 1.45-1.875 2-2.548s1.215-1.496 1.479-1.829L253.391 302c4.089-5.17 7.656-9.67 7.927-10 .271-.33 1.121-1.401 1.888-2.381.766-.979 1.781-2.239 2.253-2.8.472-.56 2.414-2.999 4.314-5.419 1.9-2.42 3.676-4.67 3.946-5 .271-.33 1.12-1.406 1.887-2.39.766-.985 1.622-2.035 1.9-2.335.278-.299.998-1.202 1.6-2.007.602-.804 2.264-2.915 3.694-4.69 1.43-1.776 3.05-3.834 3.6-4.574a84.64 84.64 0 0 1 2-2.57c.55-.673 1.217-1.496 1.481-1.829 4.898-6.158 4.882-6.133 4.109-6.611-.225-.139-.384-.105-.353.076.124.713-.073 1.171-.937 2.177a63.19 63.19 0 0 0-1.9 2.355 462.784 462.784 0 0 1-5.538 7.01c-2.146 2.629-3.778 4.679-4.983 6.257a128.41 128.41 0 0 1-1.998 2.56c-1.666 2.03-10.014 12.546-12.681 15.973-1.65 2.121-3.335 4.248-3.745 4.727a57.683 57.683 0 0 0-1.798 2.271c-.579.77-1.156 1.49-1.283 1.6-.127.11-2.789 3.44-5.917 7.4-3.127 3.96-5.906 7.47-6.177 7.8-.27.33-1.119 1.41-1.886 2.4-.766.99-1.489 1.89-1.604 2-.116.11-.836 1.009-1.6 1.999-.765.989-1.607 2.069-1.872 2.4a890.28 890.28 0 0 0-2.991 3.801c-1.381 1.76-2.609 3.29-2.729 3.4-.12.11-.839 1.01-1.598 2-.759.99-1.479 1.89-1.6 2-.121.11-.846 1.009-1.61 1.999-2.175 2.814-2.518 3.24-3.678 4.561l-1.089 1.24-.011-86.261-.012-86.262-2-.138c-1.376-.096-2 .012-2 .346m10.541.389c.354.355 3.187 1.331 3.36 1.158.137-.136-2.917-1.432-3.376-1.432-.142 0-.135.123.016.274m4.631 2.003c1.579 1.175 5.875 5.457 6.339 6.32.236.438.547.678.691.534.38-.379-5.086-6-6.665-6.854-1.29-.698-1.303-.698-.365 0m17.148 22.075c1.914 2.834 3.537 5.101 3.608 5.039.195-.173-6.489-10.17-6.808-10.181-.154-.005 1.286 2.308 3.2 5.142m4.102 5.848c.005.529 1.12 1.991 1.347 1.765.097-.097-.167-.624-.587-1.171-.421-.547-.762-.814-.76-.594m7.015 10.4c.36.55.72 1 .8 1 .08 0-.059-.45-.31-1-.25-.55-.611-1-.8-1-.19 0-.051.45.31 1m71.663 1.261l-1.1.192V348h1.024c.58 0 .916-.173.776-.4-.136-.22-.047-.4.199-.4.364 0 1.871-1.452 5.51-5.309.16-.17 1.413-1.371 2.784-2.669 1.5-1.419 2.297-2.439 2-2.559-.386-.157-.385-.207.007-.231.275-.018.5-.286.5-.596 0-.809 2.302-2.635 3.331-2.642.708-.005.758-.078.269-.394-.33-.213-.397-.391-.15-.394.248-.003.55-.506.672-1.118.123-.611.732-1.646 1.355-2.3a27.597 27.597 0 0 0 2.119-2.588c1.753-2.488 2.83-3.396 3.27-2.758.274.396.309.286.121-.38-.198-.702.009-1.223.825-2.074.599-.625 1.291-1.483 1.538-1.905.248-.423.99-1.543 1.65-2.49.66-.946 1.47-2.116 1.8-2.6.33-.484 1.545-2.247 2.7-3.918 1.155-1.672 2.1-3.227 2.1-3.457 0-.23.18-.418.4-.418.22 0 .4-.27.4-.6 0-.33.136-.6.302-.6.167 0 .562-.585.878-1.3.317-.715.9-1.649 1.298-2.075.397-.427.722-1.012.722-1.3 0-.289.18-.525.4-.525.22 0 .4-.36.4-.8 0-.44.18-.8.4-.8.22 0 .4-.27.4-.6 0-.33.345-.945.767-1.367.421-.421.647-.886.5-1.032-.146-.147.067-.51.474-.807.406-.297.62-.734.474-.97-.146-.236.004-.533.334-.66s.503-.484.384-.794c-.119-.31.083-.678.448-.818.366-.14.57-.502.455-.804-.116-.301-.032-.548.186-.548.458 0 1.346-1.957 1.225-2.7-.045-.275.106-.5.335-.5.23 0 .418-.252.418-.559 0-.308.54-1.586 1.2-2.841.66-1.255 1.2-2.533 1.2-2.841 0-.307.167-.559.372-.559s.43-.405.5-.9c.074-.523.41-.902.8-.905.369-.003.819-.153 1-.333.18-.181.069-.269-.248-.195-.317.073-.645-.182-.73-.567-.09-.413.083-.7.421-.7.397 0 .515-.309.383-1-.112-.584-.005-1 .255-1 .246 0 .447-.362.447-.805 0-.443.18-1.163.4-1.6l.8-1.59c.22-.437.4-1.157.4-1.6 0-.443.18-.805.4-.805.22 0 .4-.45.4-1 0-.668.222-1 .67-1 .583 0 .564-.116-.146-.9-.448-.495-3.488-4.86-6.755-9.7-3.267-4.84-6.261-9.149-6.654-9.575-.393-.427-.715-.997-.715-1.267 0-.27-.146-.551-.325-.625-.179-.073-3.004-4.093-6.279-8.933s-6.099-8.86-6.275-8.933c-.177-.074-.321-.344-.322-.6 0-.257-.54-1.097-1.199-1.867s-1.199-1.61-1.199-1.867c-.001-.256-.15-.526-.331-.6-.182-.073-1.272-1.534-2.422-3.247-2.301-3.426-5.959-7.486-6.746-7.486-.276 0-.502-.18-.502-.4 0-.22-.27-.4-.6-.4-.33 0-.6-.18-.6-.4 0-.22-.33-.4-.733-.4-.404 0-.857-.123-1.008-.274-1.034-1.034-7.886-1.967-10.759-1.465m-66.776 5.892c2.132 3.163 3.94 5.695 4.018 5.624.202-.181-7.284-11.346-7.618-11.363-.152-.008 1.468 2.575 3.6 5.739m13.36 19.447c1.427 2.09 3.432 5.036 4.456 6.547 1.023 1.51 1.86 2.614 1.86 2.453 0-.444-7.19-11.083-8.11-12-.441-.44.366.91 1.794 3m7.189 10.6c.25.55.611 1 .8 1 .19 0 .051-.45-.31-1-.36-.55-.72-1-.8-1-.08 0 .059.45.31 1m42.311 107.509c-.859.922-1.005 1.491-.384 1.491.22 0 .4-.158.4-.35 0-.193.553-.618 1.23-.946 1.131-.548 1.162-.613.384-.816-.554-.145-1.116.069-1.63.621m-5.084 4.156c-.275.111-.5.442-.5.735a.812.812 0 0 1-.5.712c-.275.098-.374.315-.219.481.329.354 1.249-.489 1.629-1.493.146-.385.226-.686.177-.668a33.59 33.59 0 0 0-.587.233m-4 3.133c-.892 1.013-.646 1.919.3 1.109.783-.671 1.094-1.722.5-1.692-.165.009-.525.271-.8.583m-11.3 8.289c0 .355-.225.727-.5.825-.275.098-.374.315-.219.481.154.166.584-.001.954-.371.503-.503.558-.789.219-1.128-.339-.339-.454-.29-.454.193m-2.4 1.713c0 .34.359.6.829.6.736 0 .761-.067.228-.6-.33-.33-.703-.6-.828-.6-.126 0-.229.27-.229.6m-2.267 1.945c0 .341.288.47.767.345.592-.155.646-.278.234-.539-.756-.479-1.001-.432-1.001.194m-5.633 2.947c-.593.207-.677 1.308-.1 1.308.22 0 .4-.167.4-.371s.315-.434.7-.511c.575-.116.593-.183.1-.371-.33-.126-.825-.151-1.1-.055m-2.1 1.508c0 .33.18.6.4.6.22 0 .4-.27.4-.6 0-.33-.18-.6-.4-.6-.22 0-.4.27-.4.6m-5.6 3c0 .22.259.4.576.4.317 0 .688-.18.824-.4.136-.22-.123-.4-.576-.4-.453 0-.824.18-.824.4m-8.4 4c0 .22-.36.4-.8.4-.44 0-.8.18-.8.4 0 .22.36.4.8.4.44 0 .8-.18.8-.4 0-.22.27-.4.6-.4.33 0 .6-.18.6-.4 0-.22-.27-.4-.6-.4-.33 0-.6.18-.6.4m-12.8 5.808c0 .429-.264.542-.9.384-.657-.163-1.048.024-1.447.693-.425.711-.43.804-.02.415.29-.275.905-.5 1.367-.5.842 0 1.8-.681 1.8-1.28 0-.176-.18-.32-.4-.32-.22 0-.4.273-.4.608m-4 1.416c0 .453.18.712.4.576.22-.136.4-.507.4-.824 0-.317-.18-.576-.4-.576-.22 0-.4.371-.4.824m-4.623 2.014c-.149.24-.7.355-1.224.255-.524-.1-.953-.027-.953.162 0 .46 1.739.443 2.22-.021.209-.202.83-.447 1.38-.546.999-.179.999-.179-.076-.234-.592-.029-1.199.143-1.347.384m-7.777 1.693c0 .362-.381.475-1.2.354-.72-.105-1.2.002-1.2.27 0 .595 1.582.565 2.917-.055 1.273-.591 1.404-1.1.283-1.1-.44 0-.8.239-.8.531m-5.2 1.469c0 .22.54.4 1.2.4.66 0 1.2-.18 1.2-.4 0-.22-.54-.4-1.2-.4-.66 0-1.2.18-1.2.4m-6.8 1.6c0 .22.461.4 1.024.4.58 0 .916-.173.776-.4-.136-.22-.597-.4-1.024-.4-.427 0-.776.18-.776.4m-3.8.8c.136.22.597.4 1.024.4.427 0 .776-.18.776-.4 0-.22-.461-.4-1.024-.4-.58 0-.916.173-.776.4m-3.8.8c0 .22.36.4.8.4.44 0 .8-.18.8-.4 0-.22-.36-.4-.8-.4-.44 0-.8.18-.8.4m-3.8.8c-.136.22.134.4.6.4.466 0 .736-.18.6-.4-.136-.22-.406-.4-.6-.4-.194 0-.464.18-.6.4m-7.167 1.057c-.138.362-.158.752-.042.867.115.115.209-.001.209-.257 0-.267.6-.467 1.4-.467.77 0 1.4-.18 1.4-.4 0-.699-2.689-.466-2.967.257" fill="#273b7a"/>
    <path d="M222.929 83.11c-2.589.41-2.606.729-2.291 43.498l.28 38.007 2.941-.373 2.941-.373-.006-39.234c-.007-44.634.223-42.171-3.865-41.525" fill="#930000"/>
    <path d="M227.298 124.857c-.107 43.035-.261 40.01 2.035 39.902.66-.031.558-.14-.431-.457l-1.298-.417-.104-39.242-.104-39.243-.098 39.457M219.6 165c-.274.33-.808.6-1.187.6-.842 0-4.906 2.588-6.974 4.441-1.196 1.072-14.35 17.197-19.439 23.83-1.195 1.558-7.668 9.743-12.4 15.681-1.87 2.346-7.54 9.481-12.6 15.856-5.06 6.374-12.44 15.657-16.4 20.63-3.96 4.972-7.65 9.643-8.2 10.379a69.268 69.268 0 0 1-2.025 2.561 38.506 38.506 0 0 0-1.975 2.622 37.36 37.36 0 0 1-1.975 2.614c-.564.668-1.565 1.91-2.225 2.76-7.096 9.139-13.813 17.088-14.301 16.926-.231-.077-2.245-2.831-4.476-6.12s-5.541-8.14-7.357-10.78c-1.816-2.64-5.126-7.5-7.356-10.8-7.89-11.675-10.189-14.268-14.539-16.396-9.39-4.595-19.836-1.331-26.875 8.396-.972 1.343-2.117 2.807-3.896 4.981-.66.807-1.68 2.086-2.267 2.843-.587.757-4.781 6.056-9.319 11.776a6451.772 6451.772 0 0 0-9.333 11.779c-4.496 5.737-11.454 14.245-11.738 14.355-.192.074-.251.291-.133.483.119.191.48.247.803.123.402-.154.587.041.587.617 0 .464.18.843.4.843.22 0 .4.27.4.6 0 .33.18.6.4.6.22 0 .4.27.4.6 0 .33.18.6.4.6.22 0 .4.345.4.767 0 .421.135.826.3.9.376.167 1.675 2.297 1.971 3.233.122.385.381.7.576.7.194 0 .353.281.353.624 0 .369-.188.507-.462.338-.286-.177-.353-.11-.176.176.157.254.467.462.69.462.565 0 1.695 1.186 1.405 1.476-.131.131-.476.077-.766-.119-.291-.196-.228-.087.14.243.368.33 1.051.865 1.519 1.188.467.324.85.785.85 1.025 0 .24.315.785.7 1.212.385.426 1.06 1.495 1.5 2.375.44.88.935 1.66 1.1 1.733.165.074.3.492.3.929 0 .437.27 1.065.6 1.395.33.33.6.489.6.353 0-.344 1.545 1.297 3.154 3.349 1.092 1.394 1.246 1.801.8 2.11-.395.273-.295.311.346.13.68-.191.9-.086.9.427 0 .374.377 1.007.837 1.406.46.399.721.913.579 1.142-.155.251-.01.322.363.179.394-.151.621-.016.621.371 0 .335-.225.7-.5.811-.288.116-.191.215.229.233.875.038 4.529 3.406 5.295 4.882.3.578 3.183 3.667 6.406 6.865 3.869 3.838 5.756 5.983 5.554 6.311-.196.316-.144.396.142.22.254-.157 1.368.596 2.562 1.734 1.162 1.106 2.247 2.014 2.412 2.016.165.002.3.28.3.617 0 .702 2.549 3.387 3.215 3.387.529 0 1.623 1.029 1.367 1.285-.1.099.269.421.819.715.549.294.999.685.999.868 0 .182.36.332.8.332.44 0 .755.135.7.3-.055.165-.002.3.117.3.119 0 .912.675 1.761 1.5.85.825 1.802 1.5 2.117 1.5 1.332 0 .065-1.262-5.576-5.558-3.232-2.461-5.119-4.193-5.119-4.7 0-.292 2.475-3.664 5.5-7.493s7.21-9.152 9.3-11.83c2.09-2.678 6.05-7.7 8.8-11.159 2.75-3.459 5.54-6.98 6.2-7.823 1.406-1.796 8.639-10.887 16.102-20.237 2.898-3.63 5.697-6.997 6.22-7.481.524-.485 1.744-1.925 2.712-3.2.967-1.276 2.039-2.589 2.382-2.919.342-.33 1.055-1.23 1.584-2 .529-.77 1.075-1.49 1.213-1.6.435-.347 9.955-12.379 10.688-13.509a20.863 20.863 0 0 1 1.594-2.084c.492-.554 3.192-3.904 6-7.445 6.434-8.113 7.081-8.931 9.424-11.917a360.636 360.636 0 0 1 2.408-3.045c.27-.33 1.919-2.4 3.666-4.6 3.113-3.921 9.39-11.815 10.338-13a371.93 371.93 0 0 0 1.875-2.39c.766-.985 1.574-1.991 1.794-2.237.22-.245.85-1.039 1.4-1.763.55-.724 1.27-1.635 1.6-2.023.33-.389 2.4-2.995 4.6-5.792l6.718-8.54c1.495-1.9 3.244-4.085 3.885-4.855.642-.77 3.429-4.28 6.194-7.8 2.766-3.52 5.25-6.67 5.521-7 .271-.33 1.121-1.404 1.888-2.387 3.001-3.845 7.317-7.146 10.494-8.028.859-.238 1.5-.666 1.5-1 0-.74-.176-.737-.8.015m15.2 1.824c3.367 1.85 6.425 5.181 10.702 11.657 2.144 3.246 4.055 5.906 4.247 5.911.192.004.102-.346-.2-.779-.302-.433-2.068-2.998-3.924-5.7-5.147-7.492-10.061-12.338-12.479-12.306-.3.004.444.552 1.654 1.217m19.045 23.788c.365.557.741.935.837.839.237-.237-.798-1.851-1.187-1.851-.173 0-.015.456.35 1.012m5.245 7.688c2.354 3.465 4.5 6.526 4.769 6.802.269.277.603.862.742 1.3.139.439.423.798.632.798.417 0 .387-.048-5.633-8.954-2.31-3.418-4.333-6.221-4.495-6.23-.163-.009 1.631 2.819 3.985 6.284m73.11 9.265c-4.627 1.792-8.258 4.773-12.223 10.035-.746.99-1.456 1.89-1.577 2-.121.11-.846 1.009-1.61 1.999-1.685 2.18-1.629 2.11-5.264 6.677a7046.366 7046.366 0 0 0-9.726 12.281c-6.818 8.627-7.53 9.325-7.999 7.845-.139-.438-.474-1.023-.744-1.3-.269-.276-3.529-5.002-7.244-10.502-3.714-5.5-6.902-10.06-7.083-10.133-.182-.074-.33-.361-.33-.638 0-.278-.36-.831-.8-1.229-.44-.398-.8-.966-.8-1.262 0-.296-.135-.542-.3-.546-.165-.004-1.83-2.341-3.7-5.192s-3.54-5.188-3.712-5.192c-.267-.007 6.412 10.054 10.351 15.592 2.326 3.27 14.961 21.961 14.961 22.131 0 .092-.908 1.315-2.019 2.718-2.779 3.513-2.853 3.605-3.981 4.985a84.64 84.64 0 0 0-2 2.57c-.55.74-2.17 2.798-3.6 4.574-1.43 1.775-3.092 3.886-3.694 4.69-.602.805-1.322 1.708-1.6 2.007-.278.3-1.134 1.35-1.9 2.335a185.54 185.54 0 0 1-1.887 2.39c-.27.33-2.046 2.58-3.946 5-1.9 2.42-3.842 4.859-4.314 5.419-.472.561-1.487 1.821-2.253 2.8-.767.98-1.617 2.051-1.888 2.381-.271.33-3.838 4.83-7.927 10l-7.912 10.005c-.264.333-.929 1.156-1.479 1.829s-1.45 1.819-2 2.548c-.55.729-1.27 1.637-1.6 2.018-.33.381-1.05 1.292-1.6 2.024-.55.731-1.815 2.33-2.811 3.553a715.528 715.528 0 0 0-5.585 7.023c-2.076 2.64-4.122 5.16-4.547 5.6-.626.648-23.408 29.091-27.379 34.182-.593.76-3.688 4.66-6.878 8.666s-7.87 9.914-10.4 13.129c-2.909 3.696-4.949 5.935-5.55 6.09-2.912.75 1.557 1.073 17.329 1.25 22.007.248 31.699-.103 32.035-1.16.257-.812 2.986-1.138 2.986-.357 0 .22.63.4 1.4.4.77 0 1.401-.135 1.403-.3.006-.573 2.135-1.322 2.557-.9.696.696 2.169.455 2.44-.4.255-.804 1.8-1.147 1.8-.4 0 .22.45.4 1 .4.892 0 1.194-.374 1.047-1.3-.026-.165.403-.3.953-.3.55 0 1 .18 1 .4 0 .747 1.545.404 1.8-.4.275-.868 1.378-1.062 2.075-.365.313.313.51.313.703 0 .148-.239 1.085-.435 2.083-.435 1.477 0 1.853-.148 2.023-.8.157-.601.546-.8 1.563-.8.744 0 1.353-.2 1.353-.445 0-.268.48-.375 1.2-.27.819.121 1.2.008 1.2-.354 0-.292.36-.531.8-.531.44 0 .8.18.8.4 0 .786 1.112.383 1.38-.5.166-.545.355-.703.48-.4.281.681 2.14.642 2.14-.045 0-.358.326-.482.953-.362.524.1 1.075-.015 1.224-.255.148-.241.8-.438 1.447-.438.818 0 1.176-.197 1.176-.649 0-.523.113-.555.582-.166.729.605 1.418.212 1.418-.809 0-.965.795-1.04.813-.076.012.591.135.555.789-.231.545-.653 1.017-.853 1.587-.673.579.184.811.079.811-.369 0-.345.18-.627.4-.627.22 0 .4.211.4.47 0 .258.431.065.957-.43.715-.671 1.012-.765 1.175-.369.174.424.322.409.743-.074.289-.332.931-.544 1.427-.472.53.077.997-.117 1.133-.472.127-.331.485-.505.796-.386.343.132.712-.152.941-.725.208-.518.389-.717.403-.442.041.824.825.565 1.213-.4.199-.495.373-.675.387-.4.042.845 1.225.555 1.225-.3 0-.533.267-.8.8-.8.44 0 .8-.18.8-.4 0-.22.27-.4.6-.4.33 0 .6.202.6.449 0 .312.182.298.596-.045.327-.272.473-.699.323-.949-.15-.25.061-.185.469.145.566.458.782.481.91.1.093-.275.514-.5.935-.5.422 0 .767-.18.767-.4 0-.22.36-.4.8-.4.44 0 .8-.18.8-.4 0-.22.36-.4.8-.4.533 0 .8-.267.8-.8 0-.622.267-.8 1.2-.8.968 0 1.206-.174 1.232-.9.017-.495.122-.675.233-.4.341.844 1.333.554 1.367-.4.017-.495.122-.675.233-.4.324.803 1.335.575 1.335-.3 0-.886.617-1.083.94-.3.125.303.314.145.48-.4.274-.902.581-1.053 1.877-.921.48.048.622-.124.457-.554-.132-.344-.04-.625.203-.625a.44.44 0 0 1 .443.433c0 .447 2.788-1.08 3.274-1.793.15-.221.166-.576.034-.789-.138-.223.043-.279.426-.132 1.042.4 1.866-.114 1.866-1.162 0-.526.18-.957.4-.957.22 0 .4.18.4.4 0 .22.18.4.4.4.22 0 .4-.27.4-.6 0-.33.18-.6.4-.6.22 0 .406-.315.413-.7.011-.645.057-.641.579.049.645.85 1.808.129 1.808-1.12 0-.702.656-.861.872-.212.077.23.546.039 1.043-.423.496-.463.798-1.011.67-1.218-.128-.207.183-.382.691-.389 1.216-.016 2.322-.887 2.33-1.831.005-.623.072-.652.379-.166.433.684 2.415-.866 2.415-1.888 0-.959 1.21-1.933 1.606-1.293.403.652 1.594-.139 1.594-1.058 0-.303.18-.551.4-.551.22 0 .4-.251.4-.557 0-.307.261-.657.58-.78.387-.148.505-.03.357.357-.123.319-.109.58.029.58.479 0 3.834-3.304 3.834-3.776 0-.844 1.54-2.165 2.293-1.968.439.115 1.104-.214 1.686-.833.789-.841.841-1.023.291-1.023-.624 0-.67-4.829-.67-70.362v-70.363l2.007-.276c3.086-.424 8.784.459 9.852 1.527.151.151.604.274 1.008.274.403 0 .733.18.733.4 0 .22.27.4.6.4.33 0 .6.18.6.4 0 .22.226.4.502.4.787 0 4.445 4.06 6.746 7.486 1.15 1.713 2.24 3.174 2.422 3.247.181.074.33.344.331.6 0 .257.54 1.097 1.199 1.867s1.199 1.61 1.199 1.867c.001.256.145.526.322.6.176.073 3 4.093 6.275 8.933 3.275 4.84 6.1 8.86 6.279 8.933.179.074.325.355.325.625s.322.84.715 1.267c.393.426 3.387 4.735 6.654 9.575 3.267 4.84 6.307 9.205 6.755 9.7.71.784.729.9.146.9-.448 0-.67.332-.67 1 0 .55-.18 1-.4 1-.22 0-.4.362-.4.805 0 .443-.18 1.163-.4 1.6l-.8 1.59c-.22.437-.4 1.157-.4 1.6 0 .443-.18.805-.4.805-.22 0-.4.36-.4.8 0 .444.267.8.6.8.403 0 .6-.403.6-1.224 0-.713.167-1.12.4-.976.22.136.4-.113.4-.553 0-.44.18-.911.4-1.047.22-.136.4-.687.4-1.224 0-.537.225-.979.5-.982.333-.004.3-.136-.1-.394s-.433-.39-.1-.394c.275-.003.5-.366.5-.806 0-.44.136-.8.302-.8.166 0 .496-.62.733-1.378.283-.903.293-1.351.028-1.3-.442.085-2.341-2.6-17.463-24.693-2.31-3.374-4.75-6.922-5.422-7.882-.672-.961-3.674-5.347-6.67-9.747-6.795-9.977-8.272-11.606-12.848-14.169-4.111-2.302-10.602-2.671-15.26-.866m52.309 69.609c.117.448-.032.864-.353.988-.306.117-.556.579-.556 1.025 0 .447-.18.813-.4.813-.22 0-.4.252-.4.559 0 .308-.54 1.586-1.2 2.841-.66 1.255-1.2 2.518-1.2 2.807 0 .29-.225.602-.5.695-.381.128-.358.344.1.91.347.429.389.615.099.441-.325-.196-.637.057-.89.723-.214.563-.568 1.024-.787 1.024-.218 0-.302.247-.186.548.115.302-.089.664-.455.804-.365.14-.567.508-.448.818a.608.608 0 0 1-.352.782.607.607 0 0 0-.351.781c.119.31-.064.671-.407.803-.763.293-.825 1.064-.086 1.064.296 0 .971-.855 1.5-1.9.53-1.045 1.098-1.96 1.263-2.033.165-.074.3-.479.3-.9 0-.422.135-.768.3-.77.463-.005 1.299-2.038 1.306-3.177.005-.805.088-.894.394-.42.302.468.389.357.394-.5.003-.605.186-1.1.406-1.1.22 0 .4-.36.4-.8 0-.44.18-.8.4-.8.22 0 .4-.36.4-.8 0-.44.18-.8.4-.8.22 0 .4-.36.4-.8 0-.44.18-.8.4-.8.22 0 .4-.439.4-.976 0-.537.18-1.088.4-1.224.639-.395.462-1.4-.247-1.4-.442 0-.582.244-.444.774m-9.831 20.026c-.25.66-.594 1.2-.766 1.2-.171 0-.312.36-.312.8 0 .44-.18.8-.4.8-.22 0-.4.236-.4.525 0 .288-.325.873-.722 1.3-.398.426-.981 1.36-1.298 2.075-.316.715-.711 1.3-.878 1.3-.166 0-.302.27-.302.6 0 .33-.18.6-.4.6a.41.41 0 0 0-.4.418c0 .23-.945 1.785-2.1 3.457a1240.28 1240.28 0 0 0-2.7 3.918c-.33.484-1.14 1.654-1.8 2.6-.66.947-1.402 2.067-1.65 2.49-.247.422-.922 1.261-1.5 1.864-.577.603-1.05 1.24-1.05 1.414 0 .175-.502.795-1.115 1.379-.614.583-1.55 1.69-2.081 2.46-.532.77-1.259 1.67-1.618 2-.964.887-2.128 2.791-1.867 3.052.29.29 3.081-2.48 3.081-3.058 0-.237.81-1.253 1.8-2.258.99-1.004 1.8-1.985 1.8-2.18 0-.195.72-1.097 1.6-2.004.88-.907 1.6-1.857 1.6-2.112 0-.255.36-.723.8-1.04.44-.317.8-.809.8-1.092 0-.283.54-1.08 1.2-1.771.66-.691 1.2-1.433 1.2-1.649 0-.217.388-.73.861-1.141.474-.411.635-.747.358-.747s.055-.522.739-1.16c.683-.639 1.242-1.366 1.242-1.617 0-.251.36-.843.8-1.315.44-.472.8-1.095.8-1.383 0-.289.18-.525.4-.525.22 0 .4-.248.4-.551 0-.303.268-.773.596-1.045.327-.272.497-.654.376-.849-.121-.195-.059-.355.137-.355s.611-.495.923-1.1c.313-.605.973-1.71 1.468-2.456s.9-1.691.9-2.1c0-.409.18-.744.4-.744.22 0 .4-.27.4-.6 0-1.038-.85-.652-1.322.6m-26.247 37.036c-.677.569-1.231 1.274-1.231 1.566 0 .292-.225.622-.5.733-.275.111-.32.21-.1.22.454.021 1.546-.89 2.97-2.475 1.235-1.375.477-1.405-1.139-.044M79.8 360.8c-.136.22.033.4.376.4.343 0 .624.141.624.314 0 .172.495.606 1.1.965a17.037 17.037 0 0 1 2.052 1.477c.523.455 1.075.751 1.227.657.151-.094.528.18.836.608.309.429.816.779 1.126.779.311 0 .868.349 1.237.775.37.426.919.831 1.22.9.3.069 1.081.62 1.734 1.225.652.605 1.43 1.1 1.727 1.1.298 0 .541.18.541.4 0 .22.197.4.438.4s.937.355 1.545.788c1.038.739 1.617.719 1.617-.055 0-.183-.27-.333-.6-.333-.33 0-.6-.195-.6-.433 0-.239-.218-.361-.485-.272-.267.089-.873-.256-1.346-.767-.474-.51-1.065-.928-1.315-.928s-.454-.15-.454-.332c0-.183-.495-.588-1.1-.9-.605-.313-1.449-.883-1.875-1.268-.427-.385-.997-.7-1.267-.7-.27 0-.551-.145-.625-.323-.218-.53-3.813-2.864-4.048-2.629-.119.119-.746-.338-1.394-1.016-1.223-1.28-1.869-1.514-2.291-.832m17.4 11.557c0 .197.27.461.6.588.365.14.6 0 .6-.358a.595.595 0 0 0-.6-.587c-.33 0-.6.161-.6.357m1.6.763c0 .565.938 1.28 1.68 1.28.396 0 .72.18.72.4 0 .22.27.4.6.4 1.004 0 .671-.701-.6-1.264-.66-.292-1.2-.667-1.2-.834 0-.166-.27-.302-.6-.302-.33 0-.6.144-.6.32m4 2.48c0 .22.27.4.6.4.33 0 .6-.18.6-.4 0-.22-.27-.4-.6-.4-.33 0-.6.18-.6.4m1.6.753c0 .195.315.454.7.576.936.296 3.066 1.595 3.233 1.971.074.165.479.3.9.3.422 0 .767.18.767.4 0 .22.36.4.8.4.44 0 .8.18.8.4 0 .22.36.4.8.4.44 0 .8-.18.8-.4 0-.22-.36-.4-.8-.4-.44 0-.8-.18-.8-.4 0-.22-.36-.4-.8-.4-.44 0-.8-.18-.8-.4 0-.22-.36-.4-.8-.4-.44 0-.8-.18-.8-.4 0-.22-.27-.4-.6-.4-.33 0-.6-.18-.6-.4 0-.22-.36-.4-.8-.4-.44 0-.8-.18-.8-.4 0-.22-.27-.4-.6-.4-.33 0-.6.159-.6.353m9.196 4.651c-.411.496-.351.596.355.596.467 0 .849-.169.849-.376 0-.693-.704-.822-1.204-.22m1.871.463c-.461.46-.292.933.333.933.33 0 .6-.27.6-.6 0-.625-.473-.794-.933-.333m1.6.8c-.461.46-.292.933.333.933.33 0 .6-.27.6-.6 0-.625-.473-.794-.933-.333m1.548.852c-.503.502-.153.958.585.765.52-.136.8-.012.8.353 0 .339.412.563 1.033.563.577 0 .969-.195.886-.442-.169-.508-2.981-1.562-3.304-1.239M122.4 385c0 .33.27.6.6.6.33 0 .6-.27.6-.6 0-.33-.27-.6-.6-.6-.33 0-.6.27-.6.6m1.6.8c0 .333.356.6.8.6.444 0 .8-.267.8-.6 0-.333-.356-.6-.8-.6-.444 0-.8.267-.8.6m2.4.8c0 .367.194.602.43.523.237-.078.43-.314.43-.523 0-.209-.193-.444-.43-.523-.236-.079-.43.156-.43.523m1.7.7c.252.757 1.5.864 1.5.129 0-.371-.342-.629-.833-.629-.489 0-.765.207-.667.5m2 .8c.252.757 1.5.864 1.5.129 0-.371-.342-.629-.833-.629-.489 0-.765.207-.667.5m1.989.766c.206.62 1.463.724 1.611.134.055-.22-.325-.46-.845-.534-.647-.091-.888.034-.766.4m2.311.691c0 .45 1.04.869 1.361.549.481-.482.219-.906-.561-.906-.44 0-.8.161-.8.357m2 .843c0 .22.45.4 1 .4s1-.18 1-.4c0-.22-.45-.4-1-.4s-1 .18-1 .4m2.4.8c0 .22.54.4 1.2.4.66 0 1.2-.18 1.2-.4 0-.22-.54-.4-1.2-.4-.66 0-1.2.18-1.2.4m3 .8c-.14.227.196.4.776.4.563 0 1.024-.18 1.024-.4 0-.22-.349-.4-.776-.4-.427 0-.888.18-1.024.4m2.6.8c0 .22.349.4.776.4.427 0 .888-.18 1.024-.4.14-.227-.196-.4-.776-.4-.563 0-1.024.18-1.024.4m2.8.8c0 .22.45.4 1 .4s1-.18 1-.4c0-.22-.45-.4-1-.4s-1 .18-1 .4m2.6.8c.136.22.777.4 1.424.4.647 0 1.176-.18 1.176-.4 0-.22-.641-.4-1.424-.4-.847 0-1.323.162-1.176.4m3.8.8c0 .22.45.4 1 .4s1-.18 1-.4c0-.22-.45-.4-1-.4s-1 .18-1 .4m3.7.265c-.928.374-.508.935.7.935 1.282 0 1.612-.556.567-.957-.348-.134-.663-.229-.7-.211-.037.017-.292.122-.567.233m3.3.917c-.736.3-.712.349.299.615 1.421.374 2.762-.061 1.89-.612-.697-.441-1.113-.441-2.189-.003m4.495.696c-.388.1-.602.349-.476.552.309.5 2.981.473 2.981-.03 0-.22-.165-.4-.367-.4-.202 0-.607-.069-.9-.152-.293-.084-.85-.071-1.238.03m4.605.787c-1.091.44-.404.935 1.3.935 1.902 0 2.416-.542.9-.948-1.028-.275-1.492-.273-2.2.013" fill="#386895"/>
    <path d="M221.785 83.312c-.976.839-2.208 4.596-1.329 4.054.189-.117.344-.751.344-1.408 0-2.299 2.412-3.757 4.526-2.736.844.408.848.401.098-.2-1.095-.877-2.404-.773-3.639.29M176.593 104.5l.007 16.9 21.9.2c12.045.11 21.9.065 21.9-.1s-9.808-.3-21.796-.3h-21.795l-.111-16.8-.111-16.8.006 16.9" fill="#996046"/>
    <path d="M226.992 124.8c0 21.67.049 30.535.108 19.7a4385.22 4385.22 0 0 0 0-39.4c-.059-10.835-.108-1.97-.108 19.7M198.7 87.5l-21.9.107V121.2h43.583l.109-17 .108-16.904c0 .054-9.855.145-21.9.204" fill="#c92f00"/>
    <path d="M222.044 82.558c-1.186.657-2.011 2.096-2.03 3.539L220 87.193l-21.9.104-21.9.103v34.4l22 .007 22 .007-21.8-.207-21.8-.207-.104-16.897-.105-16.896 21.898-.104 21.898-.103.256-1.577c.293-1.805 1.876-3.423 3.349-3.423 1.128 0 3.408 1.808 3.408 2.702 0 .347.12.511.267.364 1.531-1.531-3.267-4.103-5.423-2.908m-1.858 60.842c0 11.66.051 16.372.114 10.472.062-5.901.062-15.441 0-21.2-.063-5.76-.114-.932-.114 10.728M72.8 238.021c-.43.293-.146.333 1 .141 1.984-.332 2.304-.564.767-.556-.642.003-1.437.19-1.767.415M62.587 244.1l-2.387 2.5 2.5-2.387c2.322-2.218 2.683-2.613 2.387-2.613-.061 0-1.186 1.125-2.5 2.5M90 242.125c0 .069.585.654 1.3 1.3l1.3 1.175-1.175-1.3C90.33 242.088 90 241.816 90 242.125M46.569 263.9a2066.555 2066.555 0 0 1-4.491 5.6c-.756.935-1.282 1.7-1.17 1.7.113 0 1.608-1.755 3.323-3.9 1.715-2.145 3.736-4.665 4.491-5.6.756-.935 1.282-1.7 1.17-1.7-.113 0-1.608 1.755-3.323 3.9m-14.79 18.6c-2.471 3.1-3.357 4.387-1.872 2.719 1.515-1.702 4.558-5.619 4.365-5.619-.1 0-1.222 1.305-2.493 2.9M23.2 295c0 .33.18.6.4.6.22 0 .4-.27.4-.6 0-.33-.18-.6-.4-.6-.22 0-.4.27-.4.6m3.2 5.567c0 .311.167.626.37.7.204.073.429.396.5.717.138.62.271.833 1.517 2.416.607.771.789.848.8.333.007-.366-.122-.726-.287-.8-.376-.167-1.675-2.297-1.971-3.233-.266-.839-.929-.934-.929-.133m3.5 5.911c.483.483.994.761 1.137.619.335-.336-.825-1.497-1.497-1.497-.314 0-.172.345.36.878m1.033 1.704c0 .321.15.49.334.377.183-.114.333.035.333.329 0 .295.36.795.8 1.112.44.317.8.857.8 1.2 0 .343.36.883.8 1.2.44.317.804.852.809 1.188.013.935 1.571 2.816 1.582 1.912.005-.385-.126-.702-.291-.704-.165-.002-.655-.812-1.09-1.8-.434-.988-.899-1.796-1.032-1.796-.134 0-.497-.495-.808-1.1-.456-.889-1.851-2.5-2.165-2.5-.039 0-.072.262-.072.582M37.6 317.6c0 .24.45.886 1 1.436.55.55 1 1.132 1 1.294 0 .161.36.553.8.87.44.317.8.73.8.917 0 .507 1.203 1.614 1.467 1.35.125-.126-.066-.523-.425-.883-.36-.359-1.146-1.311-1.748-2.116-1.511-2.02-2.894-3.391-2.894-2.868m6 7.817c0 .119.36.603.8 1.075.456.489.8.642.8.355 0-.277-.257-.761-.571-1.076-.587-.586-1.029-.738-1.029-.354m2.809 3.283c-.005.275.171.5.391.5s.4.229.4.51c0 .28.9 1.439 2 2.574 1.1 1.135 2.001 2.211 2.002 2.39.003.527 6.123 6.348 6.998 6.656.44.155-.524-.981-2.143-2.524-1.619-1.543-3.104-2.806-3.3-2.806-.196 0-.312-.146-.257-.325.115-.373-1.466-2.41-4.191-5.4-1.041-1.141-1.896-1.85-1.9-1.575m13.252 14.078c.845 1.535 7.447 7.847 7.818 7.476.113-.113-.485-.801-1.327-1.529-.843-.729-2.769-2.585-4.281-4.125-1.512-1.54-2.506-2.36-2.21-1.822" fill="#90a29a"/>
    <path d="M227.6 124.46v39.393l3.1.933c7.031 2.117 8.819 3.969 20.278 21.014 1.331 1.98 2.736 3.949 3.121 4.375.386.427.701.997.701 1.267 0 .27.144.551.319.625.294.122 3.868 5.282 11.037 15.933 1.554 2.31 2.936 4.29 3.071 4.4.134.11 1.743 2.45 3.574 5.2 1.831 2.75 3.48 5.06 3.664 5.133.184.074.335.361.335.638 0 .278.36.831.8 1.229.44.398.8.951.8 1.229 0 .277.148.564.33.638.181.073 3.369 4.633 7.083 10.133 3.715 5.5 6.975 10.226 7.244 10.502.27.277.605.862.744 1.3.469 1.48 1.181.782 7.999-7.845 3.74-4.732 8.117-10.258 9.726-12.281 3.635-4.567 3.579-4.497 5.264-6.677.764-.99 1.492-1.889 1.618-1.999.126-.11 1.06-1.28 2.075-2.6 8.655-11.253 19.558-13.782 29.717-6.892 2.266 1.537 4.669 4.506 10.108 12.492 2.996 4.4 5.998 8.786 6.67 9.747.672.96 3.112 4.508 5.422 7.882 15.203 22.212 16.974 24.727 17.359 24.668.493-.077 1.841-4.015 1.841-5.382 0-.613.18-1.115.4-1.115.22 0 .4-.504.4-1.12 0-.616.225-1.362.5-1.659.4-.431.4-.482 0-.256-.275.155-.5.092-.5-.141 0-.233.18-.424.4-.424.22 0 .4-.435.4-.967 0-.531.225-1.057.5-1.168.4-.161.4-.208 0-.233-.275-.018-.5-.223-.5-.456s.18-.312.4-.176c.372.23.592-.891.421-2.14-.041-.297.118-.422.352-.277.272.168.427-.246.427-1.136 0-.77.18-1.511.4-1.647.22-.136.4-1.147.4-2.247 0-1.232.154-1.905.4-1.753.241.149.4-.385.4-1.343 0-.898.218-1.678.5-1.792.4-.161.4-.208 0-.233-.589-.038-.686-1.232-.1-1.232.22 0 .4-.504.4-1.12 0-.616.225-1.362.5-1.659.4-.431.4-.482 0-.256-.307.173-.5.041-.5-.341 0-.343.18-.624.4-.624.22 0 .4-.72.4-1.6 0-.88.18-1.6.4-1.6.23 0 .4-1.24.4-2.92 0-1.782.195-3.13.5-3.459.4-.431.4-.482 0-.256-.345.194-.5-.043-.5-.765 0-.576.162-.947.359-.825.662.409.95-10.604.758-28.959l-.19-18.184-1.132-.816c-.623-.449-10.137-9.799-21.142-20.779-12.091-12.063-20.082-19.749-20.192-19.42-.1.299.026.612.279.696.253.085.46.488.46.897 0 .408.18.854.4.99.22.136.4.651.4 1.144 0 .493.199 1.095.443 1.339.6.6.6 10.434 0 11.034-.244.244-.443.769-.443 1.167 0 .847-1.615 4.454-2.081 4.649-.176.074-.319.372-.319.664 0 2.168-7.186 7.511-13.2 9.815-1.911.732-58.761 1.086-62.753.391-13.45-2.342-20.12-18.028-12.549-29.51 1.289-1.955 5.094-5.693 5.795-5.693.754 0-38.37-39.852-45.911-46.767-.1-.091-.182 17.561-.182 39.227m-31.166 17.3c10.871 10.869 20.472 20.493 21.335 21.388l1.569 1.627-.969.387c-.533.213-.732.399-.443.413 2.163.104 2.074 1.053 2.074-22.189V122h-43.332l19.766 19.76m-22.034-7.016c0 .189.52 1.404 1.155 2.7.636 1.296 1.375 3.166 1.642 4.156.267.99.648 2.213.845 2.719.197.505.358 3.332.358 6.281s-.161 5.776-.358 6.281c-.197.506-.575 1.729-.839 2.719-.265.99-.643 2.113-.842 2.495-.199.382-.361.967-.361 1.3 0 .333-.136.605-.302.605-.167 0-.556.585-.866 1.3-2.137 4.938-8.041 10.72-13.996 13.709-6.784 3.405-3.107 3.178-51.636 3.185-47.734.007-44.448.179-50.163-2.637-1.3-.64-2.421-1.107-2.491-1.037-.07.07 18.324 18.579 40.875 41.131l41.002 41.003-1.05 1.573c-1.792 2.685 1.159-.739 5.027-5.832.55-.724 4.24-5.385 8.2-10.357 3.96-4.973 11.34-14.256 16.4-20.63 5.06-6.375 10.73-13.51 12.6-15.856 4.732-5.938 11.205-14.123 12.4-15.681 10.799-14.075 19.808-24.658 22.8-26.784.933-.662.937-.68.065-.266-.515.245-1.617 1.06-2.449 1.812-.832.752-1.671 1.361-1.864 1.354-.194-.007-8.351-8.017-18.127-17.8-18.116-18.128-18.025-18.04-18.025-17.443m-100 102.702c2.279.287 7.89.332 7.462.06-.254-.162-2.262-.27-4.462-.24-2.2.03-3.55.11-3 .18m-3.941.953c-2.923 1.051-5.478 2.762-7.859 5.261-1.911 2.006-1.88 1.99.685-.353 2.43-2.219 6.995-4.898 8.372-4.913.299-.003.813-.181 1.143-.394.933-.603.005-.445-2.341.399m12.941-.11c.44.109.98.33 1.2.492.526.388 1.8.838 1.8.636 0-.315-2.539-1.416-3.161-1.371-.428.032-.375.112.161.243m3.433 1.427c.092.064.842.613 1.667 1.221.825.607 1.498.96 1.495.783-.005-.333-2.58-2.12-3.056-2.12-.15 0-.197.052-.106.116m6.083 5.392c.736.812 1.501 1.905 7.488 10.692 2.398 3.52 5.846 8.56 7.662 11.2 1.815 2.64 5.132 7.5 7.371 10.8 2.238 3.3 4.306 6 4.596 6 .527 0 7.212-7.862 6.935-8.157-.082-.086-.492.268-.912.787l-.764.944-14.346-14.406c-7.89-7.923-15.188-15.342-16.218-16.487-1.029-1.144-2.002-2.081-2.162-2.081-.159 0-.002.318.35.708m-34.016 2.67c-.715.935-1.3 1.844-1.3 2.019 0 .175.648-.53 1.439-1.567.792-1.037 1.377-1.945 1.3-2.019-.076-.073-.724.631-1.439 1.567m-3.429 4.268c-.841 1.074-1.381 1.948-1.2 1.942.393-.015 3.108-3.548 2.884-3.754-.085-.078-.843.737-1.684 1.812m-5.531 7.031c-4.247 5.311-4.858 6.123-4.606 6.123.099 0 1.938-2.205 4.086-4.9 4.952-6.214 4.715-5.9 4.469-5.9-.114 0-1.891 2.105-3.949 4.677m84.354 6.978c-.828 1.07-1.425 1.945-1.327 1.945.29 0 3.161-3.607 2.99-3.756-.087-.074-.835.741-1.663 1.811M41.2 269.9c-.001.165-.406.772-.9 1.35-.838.977-3.084 3.814-6.217 7.85-.726.935-1.241 1.7-1.145 1.7.096 0 1.578-1.755 3.293-3.9s3.736-4.665 4.491-5.6c.756-.935 1.173-1.7.926-1.7-.246 0-.448.135-.448.3m86.975 3.968c-.616.808-.916 1.343-.666 1.188.512-.316 2.244-2.656 1.966-2.656-.099 0-.684.661-1.3 1.468M26.231 289c-1.681 2.09-2.977 3.8-2.88 3.8.098 0 1.392-1.485 2.877-3.3 3.422-4.182 3.512-4.3 3.265-4.3-.113 0-1.581 1.71-3.262 3.8m7.462 23.8c.469.751 1.107 1.08 1.107.571 0-.298-1.075-1.371-1.375-1.371-.127 0-.007.36.268.8m6.4 8.8c.469.751 1.107 1.08 1.107.571 0-.298-1.075-1.371-1.375-1.371-.127 0-.007.36.268.8m6 7.6c.469.751 1.107 1.08 1.107.571 0-.298-1.075-1.371-1.375-1.371-.127 0-.007.36.268.8m3.86 4.278c.248.482.63.988.849 1.123.685.424.435-.196-.451-1.118l-.85-.883.452.878m8.653 8.764c.573.574 1.12.966 1.214.871.245-.245-1.371-1.913-1.854-1.913-.221 0 .067.469.64 1.042m4.994 5.162c0 .397 2.117 2.213 2.33 1.999.17-.17-.408-.79-1.632-1.752-.384-.302-.698-.413-.698-.247" fill="#38c6d9"/>
    <path d="M180 .261c-1.87.081-3.76.318-4.2.527-.44.21-1.97.473-3.4.587-5.193.41-7.2.706-7.2 1.062 0 .2-.889.363-1.976.363s-2.088.18-2.224.4c-.136.22-1.137.4-2.224.4-1.087 0-1.976.18-1.976.4 0 .22-.619.4-1.376.4-.757 0-1.488.18-1.624.4-.136.22-.957.4-1.824.4-.867 0-1.576.18-1.576.4 0 .22-.63.4-1.4.4-.77 0-1.4.18-1.4.4 0 .22-.619.4-1.376.4-.757 0-1.488.18-1.624.4-.136.22-.777.4-1.424.4-.647 0-1.176.18-1.176.4 0 .22-.529.4-1.176.4-.647 0-1.288.18-1.424.4-.136.22-.687.4-1.224.4-.537 0-.976.18-.976.4 0 .22-.441.4-.98.4-.857 0-7.177 2.083-9.72 3.203a50.74 50.74 0 0 1-1.8.746c-.495.192-1.755.732-2.8 1.2a935.815 935.815 0 0 1-3.6 1.602c-3.667 1.621-8.907 4.257-9.033 4.545-.074.167-.479.304-.9.304-.422 0-.767.18-.767.4 0 .22-.36.4-.8.4-.44 0-.8.18-.8.4 0 .22-.36.4-.8.4-.44 0-.8.18-.8.4 0 .22-.36.4-.8.4-.44 0-.8.18-.8.4 0 .22-.236.4-.525.4-.288 0-.873.321-1.3.712-.426.392-1.765 1.21-2.975 1.818-2.963 1.487-3.861 2.021-4.729 2.806-.404.365-.878.664-1.054.664-.44 0-6.385 4.055-6.55 4.468-.074.182-.389.332-.7.332-.312 0-.567.18-.567.4 0 .22-.255.4-.567.4-.311 0-.626.135-.7.3-.181.409-3.417 2.9-3.766 2.9-.154 0-.796.54-1.427 1.2-.631.66-1.334 1.2-1.562 1.2-.228 0-.83.405-1.337.9C73.572 44.332 72 45.614 72 45.379c0-.118-.416.198-.924.703-.509.505-1.99 1.818-3.292 2.918C64.718 51.59 51.59 64.718 49 67.784c-1.1 1.302-2.413 2.783-2.918 3.292-.505.508-.821.924-.703.924.235 0-1.047 1.572-2.479 3.041-.495.507-.9 1.109-.9 1.337 0 .228-.54.931-1.2 1.562-.66.631-1.2 1.273-1.2 1.427 0 .349-2.491 3.585-2.9 3.766-.165.074-.3.389-.3.7 0 .312-.18.567-.4.567-.22 0-.4.255-.4.567 0 .311-.15.626-.332.7-.413.165-4.468 6.11-4.468 6.55 0 .176-.299.65-.664 1.054-.785.868-1.319 1.766-2.806 4.729-.608 1.21-1.426 2.549-1.818 2.975-.391.427-.712 1.012-.712 1.3 0 .289-.18.525-.4.525-.22 0-.4.36-.4.8 0 .44-.18.8-.4.8-.22 0-.4.36-.4.8 0 .44-.18.8-.4.8-.22 0-.4.36-.4.8 0 .44-.18.8-.4.8-.22 0-.4.345-.4.767 0 .421-.137.826-.304.9-.288.126-2.924 5.366-4.545 9.033-.413.935-1.134 2.555-1.602 3.6a107.523 107.523 0 0 0-1.253 2.9c-.222.55-.557 1.36-.746 1.8-1.147 2.674-3.15 8.792-3.15 9.62 0 .539-.18.98-.4.98-.22 0-.4.439-.4.976 0 .537-.18 1.088-.4 1.224-.22.136-.4.777-.4 1.424 0 .647-.18 1.176-.4 1.176-.22 0-.4.529-.4 1.176 0 .647-.18 1.288-.4 1.424-.22.136-.4.867-.4 1.624 0 .757-.18 1.376-.4 1.376-.22 0-.4.63-.4 1.4 0 .77-.18 1.4-.4 1.4-.22 0-.4.709-.4 1.576 0 .867-.18 1.688-.4 1.824-.22.136-.4.867-.4 1.624 0 .757-.18 1.376-.4 1.376-.22 0-.4.889-.4 1.976s-.18 2.088-.4 2.224c-.22.136-.4 1.137-.4 2.224 0 1.087-.163 1.976-.363 1.976-.356 0-.652 2.007-1.062 7.2-.114 1.43-.424 3.032-.691 3.561-.691 1.371-.699 47.257-.008 48.09.262.316.515 1.88.561 3.476.047 1.595.238 2.996.424 3.111.186.115.339 1.099.339 2.186s.18 1.976.4 1.976c.22 0 .4.99.4 2.2 0 1.21.18 2.2.4 2.2.22 0 .4.799.4 1.776s.18 1.888.4 2.024c.22.136.4.957.4 1.824 0 .867.18 1.576.4 1.576.22 0 .4.709.4 1.576 0 .867.18 1.688.4 1.824.22.136.4.777.4 1.424 0 .647.18 1.176.4 1.176.22 0 .4.619.4 1.376 0 .757.18 1.488.4 1.624.22.136.4.676.4 1.2 0 .524.18 1.064.4 1.2.22.136.4.766.4 1.4 0 .634.18 1.264.4 1.4.22.136.4.687.4 1.224 0 .537.156.976.346.976.19 0 .454.765.587 1.7.218 1.536 2.174 7.208 3 8.7.183.33.582 1.455.887 2.5.305 1.045.695 1.9.867 1.9.172 0 .313.36.313.8 0 .44.141.8.313.8.172 0 .561.855.865 1.9.304 1.045.658 1.99.787 2.1.472.402 1.235 2.005 1.235 2.595 0 .333.18.605.4.605.22 0 .4.272.4.605 0 .556.723 2.119 1.201 2.595.11.11.47.74.8 1.4.63 1.263 1.557 2.397 1.753 2.148l4.281-5.39c2.291-2.883 4.641-5.853 5.222-6.6 1.98-2.544 6.416-8.154 7.371-9.323.524-.641 1.362-1.7 1.862-2.354.501-.653 1.18-1.5 1.51-1.881.33-.381 1.05-1.292 1.6-2.024.55-.731 1.815-2.33 2.811-3.553A658.155 658.155 0 0 0 53.186 255c2.07-2.64 3.865-4.89 3.989-5 .124-.11.846-1.01 1.606-2 10.253-13.363 23.224-14.681 34.019-3.456 2.09 2.174 10.247 10.441 18.126 18.371l14.327 14.42.878-.968c.482-.532 1.505-1.776 2.273-2.766.768-.989 1.613-2.069 1.878-2.4.265-.33 1.614-2.041 2.998-3.801 1.384-1.76 2.847-3.56 3.252-4 2.445-2.657 6.353 1.714-39.155-43.794-22.527-22.527-40.901-41.015-40.831-41.086.07-.07 1.191.395 2.491 1.034 5.781 2.84 2.314 2.645 47.163 2.658l40.4.012-39.6-.245c-38.512-.239-40.733-.314-44.507-1.512-15.71-4.987-22.886-22.917-15.153-37.867.682-1.32 1.341-2.49 1.464-2.6.123-.11.916-1.058 1.763-2.106 3.86-4.78 11.97-9.06 17.233-9.095 2.466-.017 2.618-.243 3.4-5.013.488-2.976 3.041-9.124 5.151-12.401 16.759-26.036 55.497-23.382 68.185 4.67 1.397 3.09 1.328 3.043 4.969 3.354 4.496.384 9.234 1.904 13.379 4.294 2.919 1.683 9.641 8.001 10.121 9.513.139.437.42.692.624.566.204-.126.374.186.377.694.004.612.114.755.324.423.218-.343 5.913 5.098 18.094 17.288 18.718 18.73 18.222 18.297 19.414 16.955 1.027-1.158 4.609-3.438 5.915-3.766.58-.145 1.14-.404 1.245-.573.105-.17-9.528-10.024-21.408-21.898l-21.599-21.59.105-16.957.104-16.958 21.9-.103 21.9-.104v-1.354c0-1.943 1.842-3.839 3.73-3.839 1.443 0 3.87 1.592 3.87 2.539 0 .257 10.44 10.9 23.2 23.651 21.54 21.524 23.738 23.81 22.893 23.81-.169 0-1.229.807-2.356 1.793-10.285 8.997-8.227 25.651 3.914 31.671 4.232 2.099 4.998 2.144 34.722 2.045l27.427-.091-28.4-.231c-18.19-.148-28.922-.383-29.852-.656-6.157-1.803-10.741-6.153-13.207-12.531-.824-2.131-.708-9.31.19-11.8 2.387-6.616 8.651-11.781 15.239-12.565l1.971-.235.57-2.6c.314-1.43.714-2.96.889-3.4.176-.44.551-1.43.834-2.2 4.082-11.1 20.584-19.442 31.538-15.944 9.481 3.029 15.097 7.717 18.878 15.761.679 1.444 1.039 1.784 1.894 1.79 6.483.043 14.415 4.516 17.982 10.141.658 1.037 1.268 1.67 1.356 1.407.087-.263 9.288 8.639 20.446 19.783 11.158 11.144 20.464 20.262 20.679 20.262.216 0 .393-1.08.393-2.4 0-1.333-.178-2.4-.4-2.4-.22 0-.4-.99-.4-2.2 0-1.21-.18-2.2-.4-2.2-.22 0-.4-.99-.4-2.2 0-1.21-.18-2.2-.4-2.2-.22 0-.4-.799-.4-1.776s-.18-1.888-.4-2.024c-.22-.136-.4-.957-.4-1.824 0-.867-.18-1.576-.4-1.576-.22 0-.4-.709-.4-1.576 0-.867-.18-1.688-.4-1.824-.22-.136-.4-.766-.4-1.4 0-.634-.18-1.264-.4-1.4-.22-.136-.4-.766-.4-1.4 0-.634-.18-1.264-.4-1.4-.22-.136-.4-.777-.4-1.424 0-.647-.18-1.176-.4-1.176-.22 0-.4-.438-.4-.972 0-1.27-2.045-7.85-3.179-10.228-.158-.33-.536-1.455-.841-2.5-.305-1.045-.663-1.9-.795-1.9s-.485-.9-.785-2c-.3-1.1-.692-2-.872-2-.181 0-.328-.36-.328-.8 0-.44-.18-.8-.4-.8-.22 0-.4-.439-.4-.976 0-.537-.18-1.088-.4-1.224-.22-.136-.4-.582-.4-.99 0-.409-.135-.803-.3-.877-.432-.192-2.1-3.505-2.1-4.171 0-.309-.146-.562-.325-.562-.179 0-.573-.63-.875-1.4-.302-.77-.696-1.4-.875-1.4-.179 0-.325-.36-.325-.8 0-.44-.18-.8-.4-.8-.22 0-.4-.36-.4-.8 0-.44-.18-.8-.4-.8-.22 0-.4-.36-.4-.8 0-.44-.136-.8-.302-.8-.167 0-.554-.585-.861-1.3-.307-.715-1.071-2.074-1.697-3.02-.627-.946-1.14-1.876-1.14-2.068 0-.547-1.367-2.807-1.7-2.809-.165-.002-.3-.239-.3-.528 0-.288-.315-.873-.7-1.3-.385-.426-.955-1.27-1.268-1.875-.312-.605-.717-1.1-.9-1.1-.182 0-.332-.36-.332-.8 0-.44-.15-.8-.332-.8-.183 0-.587-.495-.898-1.1-.31-.605-.881-1.391-1.267-1.747-.387-.356-.703-.901-.703-1.212 0-.31-.36-.824-.8-1.141-.44-.317-.8-.78-.8-1.029 0-.249-.54-1.017-1.2-1.708-.66-.691-1.2-1.371-1.2-1.512 0-.142-.324-.548-.719-.904-.395-.356-1.154-1.277-1.687-2.047-.532-.77-1.154-1.619-1.381-1.886a28.37 28.37 0 0 1-.813-1.014c-.525-.692-3.386-4.142-4.847-5.844-1.115-1.299-8.987-9.451-13.667-14.152-1.257-1.263-2.399-2.298-2.538-2.3-.138-.002-.953-.679-1.81-1.504-1.287-1.239-4.654-4.112-6.338-5.408-.22-.169-.94-.754-1.6-1.299-.66-.546-1.333-.992-1.497-.993-.163 0-.793-.508-1.4-1.13-.606-.621-2.003-1.735-3.103-2.474-1.1-.74-2.291-1.672-2.647-2.071-.356-.399-.875-.725-1.153-.725s-.799-.315-1.157-.7c-.359-.385-1.055-.925-1.547-1.2-2.274-1.269-2.706-1.545-3.451-2.2-.438-.385-.94-.7-1.117-.7-.177 0-1.13-.617-2.118-1.372-.989-.754-2.43-1.601-3.204-1.88-.773-.28-1.406-.653-1.406-.828 0-.176-.27-.32-.6-.32-.33 0-.6-.146-.6-.325 0-.179-.63-.573-1.4-.875-.77-.302-1.4-.696-1.4-.875 0-.179-.36-.325-.8-.325-.44 0-.8-.18-.8-.4 0-.22-.36-.4-.8-.4-.44 0-.8-.18-.8-.4 0-.22-.36-.4-.8-.4-.44 0-.8-.136-.8-.302 0-.167-.585-.557-1.3-.868-.715-.311-1.39-.67-1.5-.798-.406-.472-2.008-1.232-2.595-1.232-.333 0-.605-.18-.605-.4 0-.22-.272-.4-.605-.4-.59 0-2.193-.763-2.595-1.235-.11-.129-1.055-.483-2.1-.787-1.045-.304-1.9-.693-1.9-.865 0-.172-.36-.313-.8-.313-.44 0-.8-.158-.8-.35 0-.193-.554-.461-1.232-.596-.677-.136-1.802-.511-2.5-.835-2.929-1.357-7.786-3.062-9.368-3.286-.935-.133-1.7-.397-1.7-.587 0-.19-.439-.346-.976-.346-.537 0-1.088-.18-1.224-.4-.136-.22-.766-.4-1.4-.4-.634 0-1.264-.18-1.4-.4-.136-.22-.676-.4-1.2-.4-.524 0-1.064-.18-1.2-.4-.136-.22-.867-.4-1.624-.4-.757 0-1.376-.18-1.376-.4 0-.22-.529-.4-1.176-.4-.647 0-1.288-.18-1.424-.4-.136-.22-.957-.4-1.824-.4-.867 0-1.576-.18-1.576-.4 0-.22-.709-.4-1.576-.4-.867 0-1.688-.18-1.824-.4-.136-.22-1.047-.4-2.024-.4-.977 0-1.776-.18-1.776-.4 0-.22-.99-.4-2.2-.4-1.21 0-2.2-.18-2.2-.4 0-.22-.889-.4-1.976-.4s-2.071-.153-2.186-.339c-.115-.186-1.516-.377-3.111-.424-1.596-.046-3.15-.29-3.453-.542-.54-.447-35.753-.794-44.074-.434m-3.783 139.465c.452 1.802 1.448 4.239 1.175 2.874l-.462-2.305c-.122-.608-.389-1.208-.592-1.333-.212-.131-.264.195-.121.764m182.977 1.793l.193 2.281.131-1.956c.072-1.075-.015-2.102-.194-2.281-.178-.179-.237.701-.13 1.956M177.8 150.6c0 3.588.132 6.316.294 6.062.383-.602.383-11.522 0-12.124-.162-.254-.294 2.474-.294 6.062m181.393-1.919c-.106 1.144-.046 1.934.133 1.754.179-.179.265-1.116.192-2.081l-.133-1.754-.192 2.081m-.747 2.986c-.025.367-.15.997-.276 1.4-.218.695-.207.696.227.02.251-.391.376-1.021.276-1.4-.162-.619-.185-.621-.227-.02m-181.2 6.4c-.025.367-.15.997-.276 1.4-.218.695-.207.696.227.02.251-.391.376-1.021.276-1.4-.162-.619-.185-.621-.227-.02m175.329 3.233l-1.175 1.3 1.3-1.175c.715-.646 1.3-1.231 1.3-1.3 0-.309-.33-.037-1.425 1.175M163.1 177.429c-1.495.811-1.404 1.149.1.371.66-.341 1.2-.706 1.2-.81 0-.258-.043-.243-1.3.439m-6.084 2.835c-.871.314-1.681.667-1.799.786-.366.366 2.125-.33 3.183-.889 1.278-.676.647-.629-1.384.103M152.2 181.6c-1.089.277-1.107.307-.2.325.55.01 1.36-.136 1.8-.325.986-.424.066-.424-1.6 0m246.6 41.8c0 .596.172.941.4.8.22-.136.4-.496.4-.8 0-.304-.18-.664-.4-.8-.228-.141-.4.204-.4.8m-2.4 15.2c0 .33.18.6.4.6.22 0 .4-.27.4-.6 0-.33-.18-.6-.4-.6-.22 0-.4.27-.4.6" fill="#71e2ef"/>
    <path d="M109.903 137.56L109.8 182h20.28c23.623 0 25.088-.179 31.92-3.903 26.85-14.638 18.027-56.082-12.495-58.688-3.641-.311-3.572-.264-4.969-3.354-5.679-12.556-18.018-21.397-31.633-22.666l-2.896-.269-.104 44.44m201.297-1.765v30.995l-14.7.11c-8.085.061-1.365.153 14.934.205 35.459.114 34.664.234 41.389-6.274 13.833-13.387 4.242-37.898-14.879-38.024-.855-.006-1.215-.346-1.894-1.79-3.214-6.837-8.671-12.018-15.25-14.481-3.965-1.484-5.028-1.736-7.328-1.736H311.2v30.995" fill="#d0d1d3"/>
  </g>
</svg>
